<svg width="111" height="931" viewBox="0 0 111 931" fill="none" xmlns="http://www.w3.org/2000/svg">
<path d="M19.2041 880.257C19.2041 884.602 20.0586 888.46 21.7676 891.829C23.4277 895.149 25.8447 897.957 29.0186 900.252C32.1924 902.498 36.0254 904.207 40.5176 905.379C45.0098 906.551 50.0635 907.136 55.6787 907.136C63.2471 907.136 69.7168 906.209 75.0879 904.353C80.4102 902.449 84.4873 899.519 87.3193 895.564C90.1025 891.609 91.4941 886.507 91.4941 880.257C91.4941 875.911 91.0059 871.565 90.0293 867.219C89.0527 862.825 87.6611 858.064 85.8545 852.937H104.897C106.851 857.674 108.242 862.337 109.072 866.927C109.951 871.516 110.391 876.668 110.391 882.381C110.391 893.416 108.12 902.498 103.579 909.627C98.9893 916.707 92.5928 921.956 84.3896 925.374C76.1377 928.792 66.5186 930.501 55.5322 930.501C47.4268 930.501 40.0049 929.402 33.2666 927.205C26.5283 925.008 20.6934 921.785 15.7617 917.537C10.8301 913.289 7.02148 908.04 4.33594 901.79C1.65039 895.54 0.307617 888.362 0.307617 880.257C0.307617 874.934 0.991211 869.612 2.3584 864.29C3.67676 858.919 5.50781 853.792 7.85156 848.909L26.3086 856.233C24.4043 860.237 22.7441 864.265 21.3281 868.318C19.9121 872.371 19.2041 876.35 19.2041 880.257ZM55.2393 732.893C63.4912 732.893 71.0107 733.919 77.7979 735.969C84.5361 738.02 90.3467 741.145 95.2295 745.344C100.112 749.495 103.872 754.768 106.509 761.165C109.097 767.561 110.391 775.13 110.391 783.87C110.391 792.61 109.097 800.178 106.509 806.575C103.872 812.971 100.112 818.269 95.2295 822.469C90.3467 826.619 84.5117 829.719 77.7246 831.77C70.9375 833.821 63.3936 834.846 55.0928 834.846C44.0088 834.846 34.3652 833.04 26.1621 829.427C17.9102 825.764 11.5137 820.149 6.97266 812.581C2.43164 805.012 0.161133 795.393 0.161133 783.723C0.161133 772.102 2.43164 762.556 6.97266 755.086C11.5137 747.566 17.9102 742 26.1621 738.386C34.4141 734.724 44.1064 732.893 55.2393 732.893ZM55.2393 811.043C62.71 811.043 69.1553 810.115 74.5752 808.26C79.9463 806.355 84.0967 803.401 87.0264 799.397C89.9072 795.393 91.3477 790.218 91.3477 783.87C91.3477 777.425 89.9072 772.2 87.0264 768.196C84.0967 764.192 79.9463 761.287 74.5752 759.48C69.1553 757.625 62.71 756.697 55.2393 756.697C44.0088 756.697 35.1709 758.797 28.7256 762.996C22.2803 767.195 19.0576 774.104 19.0576 783.723C19.0576 790.12 20.5225 795.344 23.4521 799.397C26.333 803.401 30.4834 806.355 35.9033 808.26C41.2744 810.115 47.7197 811.043 55.2393 811.043ZM108.926 615.706V644.563L27.9199 691.145V691.804C31.2891 691.609 34.6826 691.438 38.1006 691.292C41.5186 691.145 44.9365 690.999 48.3545 690.852C51.7236 690.706 55.1172 690.559 58.5352 690.413H108.926V710.701H1.8457V682.063L82.0459 635.554V635.042C78.7256 635.139 75.4297 635.261 72.1582 635.408C68.8867 635.554 65.6152 635.701 62.3438 635.847C59.0723 635.945 55.8008 636.043 52.5293 636.14H1.8457V615.706H108.926ZM108.926 547.371V570.076H20.7422V599.153H1.8457V518.294H20.7422V547.371H108.926ZM108.926 436.262L83.4375 444.026V483.064L108.926 490.828V515.291L1.40625 477.498V449.739L108.926 411.8V436.262ZM64.3945 449.446L39.4922 457.21C37.832 457.698 35.708 458.357 33.1201 459.187C30.4834 459.969 27.8223 460.774 25.1367 461.604C22.4023 462.385 20.0342 463.02 18.0322 463.509C20.0342 463.997 22.5244 464.68 25.5029 465.559C28.4326 466.389 31.2158 467.195 33.8525 467.976C36.4893 468.758 38.3691 469.319 39.4922 469.661L64.3945 477.351V449.446ZM19.2041 352.766C19.2041 357.112 20.0586 360.969 21.7676 364.339C23.4277 367.659 25.8447 370.467 29.0186 372.761C32.1924 375.008 36.0254 376.717 40.5176 377.888C45.0098 379.06 50.0635 379.646 55.6787 379.646C63.2471 379.646 69.7168 378.719 75.0879 376.863C80.4102 374.959 84.4873 372.029 87.3193 368.074C90.1025 364.119 91.4941 359.016 91.4941 352.766C91.4941 348.421 91.0059 344.075 90.0293 339.729C89.0527 335.335 87.6611 330.574 85.8545 325.447H104.897C106.851 330.183 108.242 334.846 109.072 339.436C109.951 344.026 110.391 349.177 110.391 354.89C110.391 365.926 108.12 375.008 103.579 382.136C98.9893 389.217 92.5928 394.466 84.3896 397.884C76.1377 401.302 66.5186 403.01 55.5322 403.01C47.4268 403.01 40.0049 401.912 33.2666 399.715C26.5283 397.517 20.6934 394.295 15.7617 390.047C10.8301 385.799 7.02148 380.55 4.33594 374.3C1.65039 368.05 0.307617 360.872 0.307617 352.766C0.307617 347.444 0.991211 342.122 2.3584 336.8C3.67676 331.428 5.50781 326.302 7.85156 321.419L26.3086 328.743C24.4043 332.747 22.7441 336.775 21.3281 340.828C19.9121 344.881 19.2041 348.86 19.2041 352.766ZM108.926 261.287V283.992H20.7422V313.069H1.8457V232.21H20.7422V261.287H108.926ZM1.8457 89.6072H71.1328C78.5059 89.6072 85.1709 91.2429 91.1279 94.5144C97.0361 97.7371 101.724 102.644 105.19 109.236C108.657 115.779 110.391 124.031 110.391 133.992C110.391 148.152 106.777 158.943 99.5508 166.365C92.3242 173.787 82.7539 177.498 70.8398 177.498H1.8457V154.866H67.3975C76.2354 154.866 82.4365 153.059 86.001 149.446C89.5654 145.833 91.3477 140.486 91.3477 133.406C91.3477 128.426 90.4932 124.397 88.7842 121.321C87.0752 118.196 84.4385 115.901 80.874 114.436C77.3096 112.971 72.7686 112.239 67.251 112.239H1.8457V89.6072ZM79.1895 0.178467C85.5371 0.178467 91.0547 1.71655 95.7422 4.79272C100.43 7.8689 104.043 12.3611 106.582 18.2693C109.121 24.1287 110.391 31.2576 110.391 39.656C110.391 43.3669 110.146 47.0046 109.658 50.5691C109.17 54.0847 108.462 57.4783 107.534 60.7498C106.558 63.9724 105.361 67.0486 103.945 69.9783H82.8516C85.0977 64.9001 87.124 59.6267 88.9307 54.158C90.7373 48.6892 91.6406 43.2693 91.6406 37.8982C91.6406 34.1873 91.1523 31.2087 90.1758 28.9626C89.1992 26.6677 87.8564 25.0076 86.1475 23.9822C84.4385 22.9568 82.4854 22.4441 80.2881 22.4441C77.6025 22.4441 75.3076 23.3474 73.4033 25.1541C71.499 26.9607 69.7168 29.4509 68.0566 32.6248C66.3965 35.7498 64.6143 39.2898 62.71 43.2449C61.5381 45.7351 60.1221 48.4451 58.4619 51.3748C56.7529 54.3044 54.6777 57.0876 52.2363 59.7244C49.7949 62.3611 46.8408 64.5339 43.374 66.2429C39.8584 67.9031 35.6592 68.7332 30.7764 68.7332C24.3799 68.7332 18.9111 67.2683 14.3701 64.3386C9.8291 61.4089 6.3623 57.2341 3.96973 51.8142C1.52832 46.3455 0.307617 39.9001 0.307617 32.4783C0.307617 26.9119 0.966797 21.614 2.28516 16.5847C3.55469 11.5066 5.41016 6.20874 7.85156 0.691162L25.5029 8.01538C23.501 12.947 21.9629 17.366 20.8887 21.2722C19.7656 25.1785 19.2041 29.158 19.2041 33.2107C19.2041 36.0427 19.668 38.4597 20.5957 40.4617C21.4746 42.4636 22.7441 43.9773 24.4043 45.0027C26.0156 46.0281 27.8955 46.5408 30.0439 46.5408C32.583 46.5408 34.7314 45.8083 36.4893 44.3435C38.1982 42.8298 39.8584 40.5837 41.4697 37.6052C43.0811 34.5779 44.9609 30.8181 47.1094 26.3259C49.6973 20.8572 52.4072 16.1941 55.2393 12.3367C58.0225 8.43042 61.3184 5.42749 65.127 3.32788C68.8867 1.22827 73.5742 0.178467 79.1895 0.178467Z" fill="white" fill-opacity="0.3"/>
</svg>
