<svg width="47" height="47" viewBox="0 0 47 47" fill="none" xmlns="http://www.w3.org/2000/svg">
<path d="M16.2499 19.6614H30.7501C31.5512 19.6614 32.2001 19.0125 32.2001 18.2114V16.7614C32.2001 15.9602 31.5512 15.3113 30.7501 15.3113H16.2499C15.4488 15.3113 14.7999 15.9602 14.7999 16.7614V18.2114C14.7999 19.0125 15.4488 19.6614 16.2499 19.6614ZM14.7999 26.9114C14.7999 27.7126 15.4488 28.3615 16.2499 28.3615H30.7501C31.5512 28.3615 32.2001 27.7126 32.2001 26.9114V25.4614C32.2001 24.6603 31.5512 24.0114 30.7501 24.0114H16.2499C15.4488 24.0114 14.7999 24.6603 14.7999 25.4614V26.9114ZM23.5 37.8889C22.0119 37.8889 20.5238 37.4304 19.2533 36.5123L0.299805 22.8206V42.1366C0.299805 44.5391 2.24735 46.4866 4.64984 46.4866H42.3502C44.7526 46.4866 46.7002 44.5391 46.7002 42.1366V22.8206L27.7467 36.5123C26.4761 37.4295 24.9881 37.8889 23.5 37.8889ZM45.0336 14.8537C44.2315 14.2247 43.4712 13.633 42.3502 12.7865V8.78629C42.3502 6.3838 40.4026 4.43625 38.0001 4.43625H30.9721C30.6966 4.23688 30.4401 4.05019 30.1528 3.84175C28.6294 2.72977 25.6025 0.0544981 23.5 0.0862171C21.3975 0.0544981 18.3715 2.72977 16.8472 3.84175C16.5599 4.05019 16.3034 4.23688 16.0279 4.43625H8.99988C6.59739 4.43625 4.64984 6.3838 4.64984 8.78629V12.7865C3.5288 13.632 2.76845 14.2247 1.96641 14.8537C1.44727 15.2605 1.02745 15.7801 0.738718 16.3731C0.449983 16.9661 0.299894 17.617 0.299805 18.2766L0.299805 19.2418L8.99988 25.5267V8.78629H38.0001V25.5267L46.7002 19.2418V18.2766C46.7002 16.9408 46.0858 15.6784 45.0336 14.8537Z" fill="black"/>
</svg>
