<svg width="222" height="85" viewBox="0 0 222 85" fill="none" xmlns="http://www.w3.org/2000/svg">
<path d="M219.863 39.0971L217.238 40.1118L220.238 40.9762L219.975 41.2543C220.046 41.6865 220.061 42.126 220.02 42.5621C219.953 43.0512 219.741 43.5091 219.413 43.8774C218.738 44.4068 218.02 44.8794 217.268 45.2904C216.915 45.5084 216.518 45.6888 215.993 45.9744C217.41 46.508 218.64 46.9364 219.833 47.4325C220.195 47.5689 220.493 47.8337 220.673 48.1766C220.74 48.357 220.418 48.7929 220.17 48.9733C219.488 49.4618 218.753 49.8752 217.808 50.4765H219.353C218.033 52.8591 215.438 52.7314 213.353 53.8738C214.103 53.9715 214.59 54.0241 215.078 54.1068C215.471 54.1033 215.855 54.2242 216.176 54.4523C216.496 54.6804 216.737 55.004 216.863 55.377C216.912 55.5598 216.999 55.7299 217.12 55.8754C217.241 56.0209 217.391 56.1385 217.562 56.2199C217.732 56.3014 217.918 56.3448 218.107 56.3472C218.296 56.3496 218.483 56.311 218.655 56.2339C219.218 56.1583 219.788 56.1583 220.35 56.2339L220.058 56.527C220.298 57.2786 220.575 57.9551 220.763 58.6916C220.795 58.8367 220.796 58.987 220.765 59.1323C220.734 59.2776 220.672 59.4144 220.583 59.5334C219.927 60.0986 219.201 60.5761 218.423 60.954C216.645 61.7056 214.808 62.352 213 63.051C212.791 63.1616 212.591 63.2872 212.4 63.4268L213.203 63.8326L211.905 64.5843C212.505 64.8022 212.895 64.9676 213.3 65.0803C214.275 65.3509 215.55 65.3208 216.173 65.9296C217.538 67.1923 219.443 67.3427 220.838 68.4851C219.338 69.9883 219.375 70.5445 220.943 71.3788L217.98 73.3706C219.638 74.5807 221.138 75.8058 221.018 77.9855C218.483 78.0982 215.97 78.2335 213.465 78.3087C210.675 78.3913 207.878 78.3989 205.088 78.474C203.835 78.5116 202.59 78.677 201.338 78.692C200.685 78.692 200.04 78.4214 199.38 78.3989C196.207 78.3162 193.027 78.2335 189.847 78.2335C179.767 78.2335 169.692 78.2711 159.622 78.3462C153.524 78.3462 147.426 78.459 141.329 78.4515C138.584 78.4515 135.839 78.2561 133.078 78.2335C131.188 78.2335 129.328 78.3688 127.408 78.3838C126.658 78.3838 126.373 78.6995 126.388 79.4436C126.388 80.9994 126.388 82.5628 126.388 84.1261H126.066C125.991 83.8803 125.936 83.629 125.901 83.3745C125.901 82.7432 125.901 82.1118 125.856 81.4805C125.758 78.9325 125.548 78.7446 122.991 78.7596C120.433 78.7747 120.546 78.7596 120.388 81.255C120.259 82.231 120.055 83.1958 119.781 84.1412L119.293 84.051C119.286 83.7484 119.337 83.4473 119.443 83.1641C120.193 81.984 119.788 80.7439 119.661 79.5263C119.661 79.2858 119.443 78.8799 119.301 78.8649C118.138 78.7284 116.969 78.6556 115.798 78.6469C115.536 78.6469 115.273 79.0452 114.913 79.3459C113.901 77.8427 112.34 78.8724 110.915 78.6394L110.728 79.7893C110.248 79.3384 110.3 78.2034 109.415 78.6619L110.48 83.2242L110.608 83.2768L110.803 80.6537C111.395 81.5481 111.658 83.6601 111.118 84.0735C110.581 84.3112 110.002 84.4366 109.415 84.4418V79.9923H109.145L108.583 80.7439L108.268 80.6913L108.508 78.5943C108.02 78.3843 107.474 78.3504 106.964 78.4985C106.454 78.6465 106.011 78.9672 105.71 79.406C105.47 79.7518 105.613 80.353 105.583 80.8341H105.868L106.265 80.0825C106.513 81.4654 106.093 82.8634 107.443 84.0961C107.713 83.2768 107.885 82.6379 108.133 82.0367C108.282 81.7631 108.466 81.5104 108.68 81.285C108.823 81.6007 109.138 81.9615 109.063 82.2095C108.901 82.885 108.58 83.5115 108.125 84.0359C107.891 84.1664 107.629 84.2404 107.361 84.2521C107.093 84.2638 106.826 84.213 106.58 84.1036C106.123 83.9007 105.245 83.6451 105.83 82.6906C105.935 82.5177 105.635 82.1118 105.53 81.8112C105.442 81.6047 105.381 81.3873 105.35 81.1648C105.35 80.8115 105.388 80.4583 105.388 80.105C105.414 79.7728 105.347 79.4397 105.195 79.1435C105.042 78.8473 104.81 78.5996 104.525 78.4285C104.24 78.2573 103.912 78.1695 103.58 78.1749C103.247 78.1803 102.923 78.2787 102.643 78.459C102.552 78.5196 102.475 78.5995 102.418 78.693C102.361 78.7865 102.325 78.8913 102.313 79.0002C102.313 80.0449 102.313 81.0971 102.313 82.1494H102.635L102.935 81.0896L103.258 84.8477C102.103 84.0585 102.125 83.0739 101.99 82.1494C101.855 81.2249 101.713 80.2854 101.57 79.3609C100.115 79.4511 99.7627 80.353 100.4 82.5252L100.715 81.488H100.85C100.85 82.2396 100.903 83.0363 100.85 83.8029C100.85 84.0585 100.475 84.2765 100.273 84.5095C100.115 84.2765 99.8227 84.0435 99.8227 83.8105C99.7852 82.3072 99.8227 80.804 99.8227 79.3008C99.8227 79.0828 99.7702 78.8573 99.7177 78.3989L99.2827 79.1505L98.8477 78.4515L98.4202 79.5864L97.7227 78.9626L97.4452 79.9923L97.1077 78.9175H96.7477L97.0402 82.6755H96.8226L96.3276 78.7596H95.7501L95.6751 84.0886H95.1801L94.8801 82.3749L94.3926 83.6075C94.3326 82.5853 94.2576 81.8939 94.2651 81.2024C94.2726 80.5109 94.3776 80.0299 94.4376 79.4511L93.8376 79.406L93.5001 83.5925L92.225 83.7729L91.715 83.367L91.37 83.5324C91.2725 82.2095 91.175 80.8867 91.1 79.5639C91.0325 78.4289 90.5825 77.9704 89.3225 77.9855C80.3923 78.0606 71.4596 78.0807 62.5244 78.0456C49.6916 77.9855 36.8663 77.8577 24.0335 77.745C19.6609 77.745 15.2883 77.745 10.9232 77.5646C7.69064 77.4142 4.47307 76.9107 1.24799 76.5424C0.400474 76.4447 0.377974 75.9712 0.857984 75.415C1.08391 75.199 1.33587 75.0122 1.608 74.8588C1.79376 74.7467 1.95307 74.5957 2.07497 74.416C2.19686 74.2363 2.27844 74.0323 2.31409 73.818C2.34973 73.6037 2.33859 73.3841 2.28143 73.1746C2.22428 72.965 2.12247 72.7703 1.98301 72.6039C1.81004 72.3947 1.65922 72.168 1.533 71.9275C1.2995 71.3823 1.00511 70.8654 0.65548 70.3867C0.970487 69.4848 1.743 68.9586 2.63552 68.3423C3.82805 67.5231 5.52309 66.9143 5.74059 65.0954C5.74059 64.8924 5.51559 64.5767 5.30558 64.4339C4.97774 64.292 4.632 64.1959 4.27806 64.1483L5.26058 63.051C3.61805 62.5549 1.7655 62.9157 0.317972 61.7056C1.12049 60.8262 1.503 59.7514 2.75553 59.2779C3.62555 58.9397 4.25556 57.9551 5.00558 57.2636C4.00806 56.2113 4.02306 56.2339 5.33559 55.7002C6.0181 55.4221 6.65561 55.0388 7.65314 54.5277C6.90312 54.415 6.44561 54.3248 6.0106 54.2947C5.57559 54.2646 5.17808 54.2947 4.80307 54.2947C4.73557 54.0843 4.66807 53.9941 4.69057 53.9415C5.33559 52.1226 5.12558 51.8144 3.19054 51.4386C2.28302 51.2657 1.4055 50.9425 0.512977 50.687V50.1909C0.910306 50.0039 1.29602 49.7931 1.668 49.5596C2.12551 49.2514 2.52302 48.8606 2.96553 48.5299C3.40804 48.1991 4.00056 47.7782 4.63057 47.3649C4.3327 47.2898 4.02916 47.2396 3.72305 47.2145C3.09683 47.2644 2.46821 47.2769 1.84051 47.2521C1.2648 47.1167 0.704386 46.9228 0.167969 46.6734C0.446603 46.0794 0.821711 45.5358 1.27799 45.0649C2.59052 44.1329 4.00806 43.3588 5.48559 42.4568L5.28308 41.5624L6.98562 41.3294L7.03062 41.119L1.353 38.774C1.95721 38.5478 2.52367 38.231 3.03303 37.8344C3.31768 37.3747 3.51121 36.8643 3.60305 36.3312C3.22804 36.1583 3.01803 36.0456 2.80053 35.9704C1.30049 35.4443 1.4805 35.2188 2.05051 33.7833C2.92053 31.5284 4.93808 31.2879 6.75312 30.4687L5.41809 29.9125L6.0706 28.4769C5.20058 27.6576 5.52309 26.7106 6.1306 25.9214C5.71059 24.0198 3.88055 24.6211 2.80053 23.9221C2.89053 23.7192 2.90553 23.5839 2.98803 23.5238C3.38452 23.2736 3.76756 23.0027 4.13556 22.712C3.77328 21.9728 3.32517 21.279 2.80053 20.6451C2.12229 19.9404 1.40886 19.2706 0.66298 18.6383C1.6005 18.2099 2.26802 17.8867 3.19054 18.6383C5.01308 20.0288 6.66312 21.7725 9.19067 22.0206C10.2376 22.143 11.2538 22.4536 12.1907 22.9375H9.03317C9.62147 23.8094 10.2548 24.6498 10.9307 25.4554C11.2457 25.7936 11.8457 25.8613 12.2957 26.0868C12.7458 26.3122 13.1133 26.5302 13.6008 26.8384L12.7683 28.3416C13.3458 28.6122 13.9083 28.8301 14.4333 29.0932C14.7483 29.2736 15.2508 29.6118 15.2208 29.7997C15.168 30.001 15.0741 30.1891 14.945 30.3521C14.8159 30.5152 14.6544 30.6495 14.4708 30.7467C13.1058 31.4232 11.6882 32.0019 10.3007 32.6258C10.072 32.7574 9.85159 32.903 9.64068 33.0617L11.1407 33.1745L11.1932 33.43L9.69318 34.1064L11.3582 34.6251L9.71568 35.3992C10.8782 35.6999 11.8232 35.9103 12.7158 36.1959C13.6083 36.4815 14.4933 36.8273 15.3783 37.1505L15.3333 37.6465L12.5282 38.4808C13.0383 39.8563 14.0808 39.6909 15.2358 39.6383C17.7334 39.5331 20.2459 39.6383 22.8035 39.6383C23.0585 37.6014 24.3635 36.8273 25.9161 36.4665C28.3986 35.8953 30.9262 35.4894 33.4162 34.9633C34.1204 34.7256 34.8092 34.4445 35.4788 34.1215C35.8013 34.0087 36.2288 33.8734 36.4988 34.0238C37.9088 34.9332 39.1988 34.4522 40.3989 33.6705C41.9739 32.6408 43.1739 33.0316 43.5564 34.7829C43.7365 35.5796 43.4439 36.0005 42.6639 36.0982C40.8339 36.3387 39.0038 36.6093 37.1663 36.7671C36.856 36.7498 36.5491 36.8386 36.2957 37.0188C36.0423 37.199 35.8574 37.4601 35.7713 37.7593C35.0213 40.0141 34.1362 42.2689 33.4537 44.5614C32.4337 47.9737 31.5487 51.4311 30.5962 54.8659C30.4012 55.5499 30.1086 56.1362 29.2086 55.9332C28.4586 55.7603 27.7086 55.5424 27.8961 54.5052C28.1286 53.0019 28.2936 51.4987 28.6461 49.9955C28.7211 49.6498 29.3136 49.4092 29.6736 49.1311C29.8461 49.0034 30.1536 48.9583 30.2061 48.808C30.4537 48.1165 30.6337 47.41 30.8512 46.6358C28.8036 46.5005 26.8311 47.0792 24.9485 46.2149C24.341 47.192 18.9484 47.5979 17.8759 46.6433C17.7559 46.9064 17.6359 47.1544 17.6659 47.1018C16.72 46.8578 15.7531 46.7043 14.7783 46.6433C13.5621 46.7063 12.3544 46.8824 11.1707 47.1694C10.7957 47.2446 10.5107 47.6881 10.1582 47.9211C9.85867 48.1422 9.53988 48.3359 9.20567 48.4998C8.56066 48.808 7.90064 49.086 7.25563 49.3717L7.30813 49.7249L9.55818 50.5291C9.67512 52.8363 9.64255 55.1486 9.46068 57.4515C9.32568 58.4286 8.14815 59.2929 7.39813 60.1648C7.06937 60.4389 6.70629 60.6688 6.31811 60.8488C6.61818 61.0391 6.93441 61.2026 7.26313 61.3373C8.68816 61.7732 9.57318 62.5474 9.36318 64.2085C9.24317 65.1104 9.94819 65.0427 10.5482 65.0578L25.9611 65.4636C29.7111 65.5689 33.5137 65.6515 37.2863 65.7493C37.6613 65.7493 38.0363 65.8019 38.3963 65.8319L38.4713 66.1927C37.9466 66.4378 37.3917 66.6121 36.8213 66.7113C34.0312 66.809 31.2412 66.8692 28.4436 66.8692C26.1261 66.8692 23.801 66.7188 21.4834 66.7339C17.3209 66.7339 13.1583 66.8692 8.99567 66.9669C8.51539 66.9985 8.03718 67.0562 7.56314 67.1397L7.51063 67.4855C7.92515 67.6351 8.33082 67.8082 8.72566 68.0041C8.96398 68.1721 9.18284 68.3662 9.37818 68.5828C9.17861 68.7899 8.95443 68.9717 8.71066 69.124C8.42228 69.2476 8.1201 69.3359 7.81064 69.3871C6.0556 69.8004 5.56059 70.9729 6.44561 72.5137C6.94812 73.3631 7.03812 74.017 5.8831 74.4228C5.51804 74.6233 5.18445 74.8765 4.89308 75.1744L5.9131 76.144C6.48542 75.9859 7.0747 75.8976 7.66814 75.881C17.9059 77.0309 28.1886 76.9257 38.4563 77.0685C55.9317 77.3165 73.4146 77.4669 90.89 77.6172C94.9401 77.6172 98.9977 77.4293 103.048 77.4293C108.995 77.4293 114.936 77.542 120.883 77.542C128.383 77.542 135.884 77.4218 143.436 77.4443C159.337 77.4443 175.237 77.6322 191.145 77.6322C199.717 77.6322 208.298 77.4443 216.87 77.279C217.726 77.1869 218.556 76.9317 219.315 76.5274C219.488 76.4522 219.585 75.6705 219.413 75.4525C218.997 74.9956 218.508 74.612 217.965 74.3176C217.437 74.0545 216.89 73.8284 216.33 73.6412C217.013 73.1601 217.485 72.7843 218.003 72.4687C218.52 72.153 219.03 71.92 219.735 71.5592L218.633 70.8076V69.2217L219.615 68.7181C218.67 67.4329 217.313 67.6809 216.008 67.5757L216.18 66.5384L215.085 65.8319V66.1175C214.682 66.3193 214.253 66.4635 213.81 66.546C212.13 66.6512 210.45 66.6587 208.77 66.7489C206.963 66.8466 205.163 66.9969 203.633 67.1097L204.938 67.3051L204.893 67.4855H198.142L198.097 67.1472L198.705 66.8015V66.6512C198.18 66.7414 197.46 66.6512 197.205 66.9593C196.38 67.8462 195.607 67.2825 194.812 67.26L194.692 66.8767C195.84 66.3581 196.987 65.8545 198.127 65.3208C198.352 65.2156 198.517 64.9525 198.75 64.8924C199.147 64.7947 199.71 64.5993 199.957 64.7872C200.343 65.0849 200.812 65.2531 201.298 65.268C201.784 65.2828 202.263 65.1435 202.665 64.8699C203.217 64.654 203.821 64.612 204.398 64.7496C204.945 64.8323 205.485 65.3359 206.003 65.2983C207.79 65.2061 209.577 65.4824 211.253 66.11C211.937 66.2067 212.631 66.2067 213.315 66.11L211.343 64.6068L211.463 64.3588C210.638 64.3588 209.813 64.4039 208.988 64.3588C208.573 64.2712 208.171 64.127 207.795 63.9304C208.125 63.4944 208.358 62.8405 208.8 62.6451C209.821 62.2451 210.868 61.9186 211.935 61.668C212.948 61.3899 213.968 61.1268 214.988 60.9164C215.682 60.8457 216.367 60.7098 217.035 60.5105C217.894 60.0883 218.702 59.5688 219.443 58.9622C219.57 58.8645 219.383 58.3384 219.323 58.0077C219.263 57.677 219.143 57.2561 218.993 56.6322H215.58C216.143 55.4973 215.625 55.2417 214.785 54.8659C213.405 54.2421 212.025 54.4525 210.63 54.4676C210.004 54.5128 209.374 54.5128 208.748 54.4676C208.448 54.4676 208.185 54.1669 207.9 54.0016C208.119 53.7809 208.372 53.598 208.65 53.4604C210.9 52.8892 213.15 52.3556 215.4 51.7994C215.573 51.7994 215.73 51.6791 215.843 51.3484L213.18 51.7994L213.008 51.2958C213.502 51.0491 214.02 50.8526 214.553 50.7095C216.437 50.3596 218.206 49.5518 219.705 48.357C218.385 47.3584 216.77 46.8295 215.115 46.8538C213.581 46.9032 212.051 47.0387 210.533 47.2596L210.375 46.9214C211.002 46.5731 211.657 46.279 212.333 46.042C213.578 45.7038 214.883 45.5685 216.12 45.2002C216.863 44.8885 217.578 44.5138 218.258 44.0803C219.383 43.5241 219.008 42.517 218.835 41.7203C218.768 41.382 217.988 41.1941 217.545 40.9236C216.158 40.0893 214.74 40.6981 213.33 40.8409C211.268 41.0438 209.213 41.4647 207.15 41.4948C203.22 41.5474 199.282 41.3896 195.345 41.3144C194.982 41.2839 194.621 41.2312 194.265 41.1566L194.212 40.7206C194.831 40.5069 195.469 40.3534 196.117 40.2621C201.33 39.9916 206.55 39.7661 211.77 39.5105C212.61 39.5105 213.45 39.5105 214.545 39.5105C213.84 38.1877 214.545 38.2102 215.22 38.1426C216.276 38.0793 217.325 37.9285 218.355 37.6916C219.585 37.376 219.165 36.1283 219.36 35.3165C219.608 34.2493 219.015 33.6179 217.8 33.5954C216.771 33.576 215.754 33.3671 214.8 32.979L216.585 31.8366C214.185 30.7392 211.808 31.9719 209.498 31.4157C211.088 29.9801 213.368 30.5739 215.16 29.4014L212.963 29.0932C214.95 28.74 217.02 29.0932 218.85 27.838L216.45 27.7253V27.5223C216.998 27.4732 217.542 27.3853 218.078 27.2593C218.325 27.1916 218.505 26.906 218.715 26.7106C218.52 26.4926 218.348 26.1168 218.13 26.0943C217.14 25.974 216.143 25.9665 215.13 25.8913C214.118 25.8162 213.173 25.6283 212.228 25.6283C209.363 25.5907 206.498 25.6283 203.633 25.3727H217.508L217.56 24.9443L215.64 24.4182C214.853 24.1927 213.975 24.3505 213.39 23.4787C213.143 23.1179 212.318 23.1254 211.748 23.0427C210.998 22.93 210.293 22.8924 209.498 22.8173L209.655 21.6372C209.76 21.5843 209.871 21.544 209.985 21.517C212.235 21.2614 214.523 21.0359 216.78 20.7278C217.148 20.6752 217.455 20.2242 217.785 19.9762C217.44 19.7657 217.103 19.3824 216.75 19.3749C212.115 19.3072 207.48 19.3373 202.845 19.2621C200.22 19.217 197.595 18.9765 194.977 18.9089C190.252 18.7886 185.52 18.488 180.817 18.751C178.522 18.8863 176.317 18.4955 174.067 18.5782C172.739 18.6233 171.412 18.8187 170.084 18.8412C168.584 18.8412 167.024 18.7736 165.502 18.7135C164.752 18.7135 164.002 18.5707 163.252 18.5556C156.006 18.4279 148.769 18.3452 141.501 18.1798C138.156 18.1047 134.826 17.8641 131.481 17.556C133.101 17.556 134.721 17.556 136.334 17.556C138.134 17.556 139.934 17.4508 141.726 17.4883C142.641 17.4883 143.556 17.8115 144.471 17.8266C150.059 17.9092 155.646 17.9318 161.234 17.9994C162.614 17.9994 163.987 18.1573 165.367 18.1422C165.834 18.0597 166.283 17.8969 166.694 17.6612C166.484 17.1201 166.424 16.3985 166.034 16.0753C164.939 15.1583 163.912 14.309 163.402 12.8584C162.967 11.6107 162.194 11.7235 161.264 13.0538C160.072 12.0692 159.442 9.57388 160.289 8.45398C160.588 8.17228 160.943 7.95652 161.331 7.8206C161.718 7.68467 162.13 7.6316 162.539 7.66479C163.708 7.88139 164.852 8.21891 165.952 8.67195L165.839 9.06279C165.044 8.8373 164.249 8.62685 163.462 8.37882C163.019 8.20122 162.533 8.1629 162.068 8.26897C161.603 8.37504 161.181 8.62047 160.859 8.97259C160.432 9.41604 160.364 11.032 160.859 11.3326C161.038 11.4163 161.235 11.4546 161.433 11.4441C161.63 11.4336 161.822 11.3747 161.992 11.2725C162.892 10.4683 163.492 10.8291 164.129 11.6032C164.64 12.1869 165.181 12.7438 165.749 13.2718C166.274 13.7979 166.814 14.309 167.369 14.8577V13.0989C168.344 13.2342 168.974 14.993 170.227 13.4447L172.372 14.9479L172.604 14.6773L171.404 13.1741C171.653 13.142 171.905 13.142 172.154 13.1741C173.332 13.6251 173.474 13.5123 173.587 12.2797C173.663 11.9212 173.828 11.5877 174.067 11.3101C174.273 11.0742 174.494 10.8509 174.727 10.6412C174.867 10.4312 174.99 10.21 175.094 9.97975L173.834 10.7314L176.767 6.75534C177.179 6.19163 177.517 6.1766 177.944 6.75534C178.121 7.05837 178.35 7.32801 178.619 7.55205C179.655 8.30366 179.715 8.50659 178.777 9.37095C178.117 9.97975 177.277 10.4157 176.647 11.032C176.017 11.6483 175.319 12.5352 174.629 13.2868C174.214 13.6754 173.778 14.0417 173.324 14.3842L173.594 15.1358C172.703 15.3327 171.833 15.6198 170.999 15.9926C170.459 16.2933 170.137 16.9848 169.717 17.4959C170.213 17.7984 170.759 18.0097 171.329 18.1197C185.535 18.3001 199.747 18.4128 213.953 18.6007C215.737 18.7145 217.514 18.9177 219.278 19.2095C219.301 19.6635 219.163 20.111 218.889 20.4729C218.614 20.8347 218.221 21.0874 217.778 21.1863C216.675 21.4644 215.528 21.6974 214.448 21.9379C214.005 22.0431 213.57 22.1784 213.135 22.2986V22.7195C215.003 23.1038 216.844 23.6059 218.648 24.2228C219.398 24.5234 219.848 25.6208 220.373 26.3949C220.691 26.9399 220.974 27.5048 221.22 28.0861L216.923 30.416L217.605 32.6709C218.26 32.8299 218.899 33.0436 219.518 33.3097C219.726 33.4171 219.908 33.569 220.05 33.7548C220.193 33.9406 220.293 34.1556 220.343 34.3845C220.287 35.4549 220.172 36.5214 219.998 37.5789C219.923 38.0223 219.923 38.4959 219.863 39.0971ZM24.356 43.4339C24.206 43.1183 24.086 42.7876 23.9135 42.4869C23.0585 40.9837 22.9385 40.9386 21.1759 41.3219C19.9946 41.5971 18.7972 41.7979 17.5909 41.9232C15.4083 42.0961 13.2108 42.1412 11.0207 42.299C10.6757 42.299 10.3532 42.6748 10.0232 42.8702C10.3457 43.1333 10.6307 43.5392 10.9982 43.6218C11.7631 43.8058 12.5446 43.9115 13.3308 43.9375C14.1183 43.9826 14.7483 44.1029 14.5158 45.2228C15.5508 45.1326 16.4358 45.0424 17.3209 44.9823C20.8684 44.7342 24.386 45.576 27.9336 45.2228C28.362 45.226 28.7845 45.3235 29.1711 45.5084C30.5137 46.012 31.1212 45.7489 31.5637 44.4336C32.2387 42.4293 32.9112 40.425 33.5812 38.4207C33.6937 38.075 33.7612 37.7067 33.8962 37.1505C30.8962 37.4436 28.1886 37.7367 25.8035 39.2399L25.856 39.5556L29.9886 40.2471V40.8033L24.9935 41.4121L26.2461 44.5012L25.8785 44.8019L24.356 43.4339ZM210.638 40.5928L210.585 40.4726H200.963V40.5928H210.638ZM168.247 18.3978L169.274 17.1877L168.097 16.2858C167.902 16.5563 167.542 16.8344 167.557 17.09C167.572 17.3455 167.887 17.7514 168.247 18.3978ZM218.37 38.7364V38.2629L215.1 38.5259C216.315 39.9465 217.343 38.9168 218.37 38.7364ZM203.13 66.095V66.2979H207.503V66.095H203.13Z" fill="#62CCB6"/>
<path d="M77.5251 37.6991C75.9051 38.7288 74.525 39.5932 73.205 40.435C71.5775 41.4346 71.7575 43.013 72.035 44.614C69.7849 44.0352 68.8474 41.2016 70.4449 39.9615C72.6505 38.3328 74.944 36.8273 77.3151 35.4518C77.8926 35.0986 78.3726 34.8581 78.3201 34.0839C78.3201 33.8509 78.4851 33.415 78.5976 33.4074C78.743 33.3934 78.8896 33.4117 79.0271 33.461C79.1645 33.5104 79.2893 33.5896 79.3926 33.6931C79.8202 34.4447 80.3452 34.2643 81.0052 34.114C82.181 33.8129 83.3851 33.6365 84.5978 33.5878C85.2705 33.7059 85.8996 34.0017 86.4203 34.4447C86.8995 34.7589 87.3144 35.162 87.6428 35.6322C87.9302 36.033 88.085 36.5141 88.0853 37.0077C87.8903 40.7657 86.3153 43.6218 82.6552 45.2754C83.3527 45.7865 83.9978 46.1999 84.5828 46.6959C85.4996 47.4314 86.3642 48.2301 87.1703 49.086C88.1678 50.1984 88.1528 51.0026 87.4703 52.318C87.1928 52.8516 87.1478 53.5055 86.8478 54.0241C86.6057 54.4996 86.2198 54.8863 85.7453 55.129C84.8333 55.4839 83.8718 55.6943 82.8952 55.7528C80.4652 55.8205 78.0276 55.7979 75.5976 55.6852C75.1701 55.6927 74.42 55.1064 74.42 54.7382C74.3467 54.051 74.546 53.3626 74.975 52.8215C75.2405 52.6892 75.5358 52.6286 75.8318 52.6457C76.1278 52.6628 76.4141 52.7571 76.6626 52.9193C77.9901 54.4901 79.7152 54.182 81.3652 54.0918C82.4966 54.0074 83.6142 53.7904 84.6953 53.4454C85.9478 53.0771 86.1953 52.1902 85.5803 51.0703C85.4213 50.7551 85.2022 50.4742 84.9353 50.2435C83.1802 48.9207 81.4402 47.5678 79.6177 46.3502C78.9063 45.9956 78.149 45.7426 77.3676 45.5986C78.2226 43.8699 79.0626 43.6068 80.7202 44.0352C81.0728 44.1026 81.4352 44.0994 81.7866 44.0259C82.138 43.9524 82.4715 43.81 82.7677 43.6068C84.9203 41.9457 85.7678 39.5406 86.0903 36.9475C86.1878 36.1959 85.8278 35.7525 84.9878 35.8201C84.4403 35.8652 83.8777 35.775 83.3377 35.8201C81.2002 36.1283 79.7227 36.8047 79.0176 39.3677C77.7501 43.9676 75.8376 48.387 74.1575 52.8967C73.6475 54.2646 72.7925 55.3019 71.1575 55.2493C71.0404 55.2439 70.9245 55.2237 70.8125 55.1891C70.7568 55.1633 70.7079 55.1247 70.67 55.0764C70.9037 53.4908 71.2166 51.918 71.6075 50.3638C71.7275 49.9429 72.5675 49.7249 73.1075 49.4092C73.4375 49.1988 73.9475 49.0409 74.0525 48.7478C75.2826 45.3956 76.4451 42.0209 77.6151 38.6537C77.619 38.3332 77.5889 38.0132 77.5251 37.6991Z" fill="#62CCB6"/>
<path d="M97.5054 2.97471C96.3054 3.72633 95.6529 4.53806 95.6979 5.93606C95.8029 9.16047 95.7579 12.3924 95.6979 15.6243C95.6979 16.654 96.1029 17.0749 97.0779 17.0674C97.6655 17.104 98.255 17.0914 98.8405 17.0298C99.3984 16.8848 99.9409 16.686 100.461 16.4361C101.113 17.7213 102.576 16.9847 103.731 16.9847C104.286 16.9847 104.818 16.7142 105.403 17.0298C105.613 17.1426 105.943 17.0298 106.393 17.0298V11.4228H106.506C106.731 13.2267 106.963 15.0305 107.218 16.9622L108.546 17.0449V9.79934H108.921V14.0535C108.921 14.1737 108.883 14.2865 108.876 14.4067C108.613 16.7968 108.838 17.0524 111.246 17.0599H114.808C114.808 16.624 114.876 16.2482 114.868 15.8799C114.831 12.0166 114.786 8.16083 114.711 4.29755C114.711 3.92926 114.381 3.54594 114.313 3.19268C114.246 2.63149 114.211 2.06683 114.208 1.50156C115.438 2.02017 115.288 2.89204 115.303 3.61358C115.303 5.22955 115.258 6.83799 115.243 8.45396C115.216 8.84455 115.319 9.23321 115.536 9.55882C115.776 8.46899 116.008 7.37915 116.241 6.28932H116.353V15.3086H116.053V11.4754H115.671C115.588 13.1215 115.491 14.775 115.446 16.421C115.446 16.624 115.693 16.9998 115.858 17.0148C116.831 17.1311 117.812 17.1688 118.791 17.1275C119.031 17.1275 119.361 16.6089 119.436 16.2782C119.493 15.7788 119.493 15.2744 119.436 14.775L120.373 15.3086C120.373 15.9851 119.413 16.8645 121.123 17.2177L120.756 17.4282H112.671C109.993 17.4282 107.323 17.4282 104.646 17.4282C101.968 17.4282 99.2005 17.5259 96.4929 17.353C93.7854 17.1802 91.2428 17.5409 88.5652 17.3079C85.8877 17.0749 83.1351 17.2628 80.4201 17.3079C77.705 17.353 75.0574 17.3605 72.3799 17.3605C69.7023 17.3605 66.9572 17.3605 64.2422 17.3605V16.9096H71.1648C77.5025 16.9096 83.8401 16.9096 90.1778 16.9096C91.2203 16.9096 91.6778 16.639 91.6253 15.5041C91.5428 13.1666 91.5653 10.829 91.6253 8.49154C91.6415 7.88051 91.8726 7.29488 92.2778 6.83799C93.7029 5.48509 95.2329 4.24494 96.7254 2.9672C97.4754 2.34336 98.0905 2.82439 98.6155 3.26033C99.2581 3.87527 99.8665 4.52514 100.438 5.207L104.188 1.56169C105.246 2.57636 106.116 3.35052 106.918 4.19232C107.466 4.75603 107.893 4.66584 108.418 4.19232C109.446 3.1551 110.421 2.14043 111.516 1.22346C111.985 0.958213 112.533 0.87021 113.061 0.975431C111.898 2.90707 109.716 3.98187 109.446 6.65009L108.651 5.56777H108.321V10.0774L107.841 10.1601C107.608 9.48366 107.091 8.78466 107.196 8.1458C107.503 5.6279 106.446 3.91423 104.248 2.68159C104.085 2.77034 103.934 2.87889 103.798 3.00478C103.086 3.80149 102.396 4.62826 101.683 5.42496C100.971 6.22167 101.038 6.55238 101.578 7.40922C101.698 7.59712 101.578 7.92783 101.578 8.16083C99.8155 8.28109 100.356 6.7929 99.853 6.01874C99.1705 4.95145 98.3155 3.9969 97.5054 2.97471ZM94.5054 6.3269L92.9153 7.40922C94.4454 8.0556 94.6704 7.88273 94.4979 6.3269H94.5054Z" fill="#62CCB6"/>
<path d="M151.815 47.6882C150.314 49.6499 148.814 51.6341 147.314 53.5733C146.793 54.2146 146.221 54.8128 145.604 55.3621C145.042 55.8807 144.404 56.3693 143.654 55.6552C143.343 55.4136 143.131 55.0668 143.056 54.6795C142.981 54.2922 143.05 53.891 143.249 53.5507C143.944 51.4743 144.483 49.3489 144.862 47.1921C145.057 46.2827 145.079 45.3356 145.207 44.1857L143.084 45.6062C143.204 43.8474 144.929 42.1413 146.324 42.0962C147.344 42.0962 147.734 42.4945 147.592 43.419C147.277 45.516 146.924 47.6055 146.549 49.6875C146.299 50.7825 146.116 51.892 146.002 53.0096C146.804 52.025 147.674 51.0855 148.402 50.0031C150.014 47.6957 151.852 45.4935 152.587 42.6824C152.64 42.4795 153.172 42.1864 153.24 42.239C153.765 42.6373 154.455 43.0432 154.65 43.5994C154.753 44.2574 154.684 44.9311 154.447 45.5536C153.21 51.0253 151.98 56.5046 149.714 61.6756C148.823 63.9561 147.484 66.034 145.777 67.7862C144.898 68.6386 143.778 69.198 142.569 69.3877C141.361 69.5774 140.124 69.3882 139.027 68.846C137.902 68.2014 136.844 67.446 135.869 66.5912C135.599 66.3732 135.607 65.8396 135.494 65.3961C135.877 65.4054 136.256 65.4712 136.619 65.5915C137.137 65.8621 137.564 66.2981 138.074 66.5912C140.654 68.0944 142.807 67.7637 144.824 65.5615C146.872 63.1543 148.381 60.335 149.249 57.2938C150.284 54.1295 151.117 50.9051 152.04 47.7032L151.815 47.6882Z" fill="#62CCB6"/>
<path d="M166.828 53.1374C169.506 53.3102 172.198 53.5507 174.891 53.6184C175.446 53.6184 176.023 53.0096 176.653 52.6488C177.04 52.9531 177.332 53.3614 177.495 53.8259C177.659 54.2905 177.687 54.792 177.576 55.2719C177.347 55.751 176.948 56.1274 176.457 56.3276C175.966 56.5277 175.419 56.5372 174.921 56.3542C171.561 55.5033 168.086 55.2063 164.631 55.4749C164.194 55.5664 163.781 55.7454 163.416 56.001C162.958 56.2265 162.516 56.4895 162.073 56.7526C161.739 56.2033 161.487 55.6083 161.323 54.9863C161.271 54.6105 161.661 54.0844 161.991 53.7762C162.306 53.5412 162.693 53.4218 163.086 53.438C164.488 53.438 164.871 52.6338 165.336 51.4237C166.836 47.1771 168.448 42.953 170.233 38.8117C171.073 37.168 172.102 35.6291 173.301 34.2268C173.633 33.7671 174.123 33.4463 174.676 33.3257C175.23 33.205 175.808 33.2931 176.301 33.5729C176.968 33.851 177.801 33.8585 178.424 34.1592C178.881 34.3696 179.564 34.9108 179.526 35.2415C179.249 37.4061 178.866 39.5633 178.386 41.6903C178.221 42.4419 176.713 42.6223 176.181 42.0436C176.038 41.9008 176.106 41.5024 176.181 41.2394C176.541 39.6384 176.931 38.0525 177.261 36.4366C177.286 36.2167 177.257 35.994 177.176 35.7882C177.095 35.5823 176.964 35.3997 176.796 35.2565C176.579 35.1978 176.351 35.1939 176.133 35.245C175.914 35.2962 175.712 35.4008 175.543 35.5497C174.396 36.8725 173.083 38.1578 172.326 39.6986C170.826 42.7952 169.611 46.0422 168.321 49.2515C167.691 50.4992 167.286 51.807 166.828 53.1374Z" fill="#62CCB6"/>
<path d="M52.0839 49.5672C51.9829 49.9315 51.8499 50.2861 51.6864 50.6269C50.7864 52.1903 49.8414 53.7386 48.9564 55.3095C48.6189 55.9032 48.2814 56.2565 47.5613 55.9108C47.4016 55.8679 47.2533 55.79 47.1273 55.6828C47.0012 55.5755 46.9004 55.4416 46.8323 55.2906C46.7641 55.1396 46.7302 54.9753 46.7331 54.8096C46.736 54.6439 46.7755 54.4809 46.8488 54.3324C47.8013 51.2658 48.6864 48.1767 49.5639 45.0876C49.6629 44.6072 49.5996 44.1074 49.3839 43.667C48.8749 44.0374 48.3912 44.4417 47.9363 44.8771C45.4471 47.602 43.4724 50.7574 42.1087 54.1896C41.9137 54.6781 41.8687 55.5124 40.9987 55.2193C40.6113 55.1346 40.2732 54.8997 40.0582 54.5659C39.8431 54.2321 39.7687 53.8266 39.8512 53.438C41.1937 46.3428 42.9187 39.3828 46.1738 32.8889C46.8214 31.6798 47.5744 30.5304 48.4239 29.4541C48.5467 29.2779 48.7058 29.1302 48.8905 29.0209C49.0751 28.9116 49.281 28.8433 49.4942 28.8205C49.7075 28.7977 49.9231 28.821 50.1266 28.8888C50.3301 28.9566 50.5167 29.0673 50.6739 29.2136C51.3639 29.7472 52.0014 30.341 52.669 30.9122L52.5265 31.2354C52.2489 31.2354 51.9264 31.3782 51.7014 31.2354C50.4414 30.6566 49.6014 31.2354 49.0539 32.2651C47.8124 34.3575 46.7197 36.5351 45.7838 38.7816C44.5238 42.1939 43.5862 45.7264 42.5137 49.2064L42.8587 49.3567C43.3012 48.6803 43.6988 47.9587 44.2013 47.3349C45.4013 45.8317 46.6463 44.3284 47.9063 42.9079C48.0342 42.7035 48.2039 42.5286 48.4042 42.3947C48.6044 42.2608 48.8307 42.1711 49.0682 42.1313C49.3056 42.0915 49.5488 42.1026 49.7816 42.164C50.0144 42.2253 50.2317 42.3354 50.4189 42.487C50.8702 42.6826 51.2372 43.0328 51.4543 43.4749C51.6715 43.9169 51.7245 44.422 51.6039 44.8997C51.2739 46.7862 50.8539 48.6577 50.5164 50.5518L51.8139 49.3642L52.0839 49.5672Z" fill="#62CCB6"/>
<path d="M188.054 44.3059C187.959 44.2562 187.858 44.2184 187.754 44.1932C187.086 44.1932 186.254 44.3586 186.186 43.4416C186.186 43.2011 186.981 42.7351 187.469 42.6374C187.871 42.5703 188.244 42.3841 188.539 42.1028C188.835 41.8214 189.039 41.4579 189.126 41.059C189.996 38.6163 190.964 36.2111 191.902 33.7984C192.09 33.3181 192.305 32.8489 192.547 32.3929C194.452 28.7702 195.404 28.9881 198.637 31.2881C198.817 31.4158 198.869 31.7315 198.989 31.957C198.712 32.0246 198.419 32.205 198.179 32.1449C195.809 31.5887 195.554 31.6338 194.429 33.7158C193.642 35.219 192.974 36.7598 192.314 38.3156C191.782 39.5783 191.347 40.8786 190.814 42.3142L194.332 42.9305V43.4792L190.184 44.2308C188.091 50.4541 186.104 56.8278 185.736 63.5772C183.966 63.3367 183.201 62.4198 183.599 60.8264C184.731 56.3167 185.946 51.807 187.101 47.2974C187.281 46.5908 187.281 45.8468 187.446 45.1402C187.601 44.8298 187.806 44.5477 188.054 44.3059Z" fill="#62CCB6"/>
<path d="M131.811 43.6668L129.936 45.1701L129.538 44.7792C130.232 43.836 131.013 42.9603 131.871 42.1636C132.103 41.9757 133.101 42.4643 133.536 42.9152C133.722 43.116 133.864 43.3533 133.953 43.6122C134.042 43.871 134.076 44.1456 134.053 44.4185C133.836 45.7037 133.423 46.9589 133.101 48.1765C134.443 46.5831 135.771 44.9371 137.181 43.3662C137.863 42.6146 138.613 41.9231 139.843 42.6146C140.354 42.8257 140.764 43.2245 140.99 43.729C141.216 44.2336 141.24 44.8057 141.059 45.3279C140.721 46.8311 140.504 48.402 140.226 49.9503L141.171 49.2438L141.441 49.4016C141.373 49.7314 141.272 50.0537 141.141 50.3637C140.278 51.9947 139.363 53.5956 138.523 55.2416C138.474 55.4017 138.389 55.5483 138.274 55.67C138.16 55.7916 138.018 55.8852 137.862 55.9434C137.705 56.0015 137.537 56.0227 137.371 56.0053C137.205 55.9879 137.045 55.9323 136.903 55.8429C136.101 55.5047 136.243 55.0387 136.453 54.3397C137.323 51.4986 138.118 48.6275 138.891 45.7563C138.959 45.1972 138.959 44.6319 138.891 44.0727L138.508 43.8698C137.533 44.8437 136.63 45.8888 135.808 46.9965C134.233 49.4317 132.808 51.9872 131.308 54.46C131.038 54.8959 130.506 55.4371 130.071 55.4521C128.953 55.4972 128.616 54.8433 129.051 53.7685C130.436 50.5465 131.365 47.1464 131.811 43.6668Z" fill="#62CCB6"/>
<path d="M98.6234 43.7045L99.2759 42.8927C101.023 43.5241 101.166 43.8322 100.626 45.4858C100.138 46.989 99.6734 48.4922 99.2159 49.9955C99.158 50.2653 99.1204 50.5392 99.1034 50.8147L100.378 49.9804L100.633 50.2059C100.483 50.5667 100.326 50.9575 100.168 51.2957C99.6734 52.4382 99.2159 53.6032 98.6684 54.7231C98.4734 55.129 97.9709 55.7603 97.7383 55.7077C97.0408 55.5574 96.2383 55.2267 96.4108 54.2045C96.6658 52.7012 96.9958 51.2882 97.2883 49.8301C97.3333 49.5745 97.3633 49.319 97.4233 48.9056C96.0133 50.5516 94.7458 52.0774 93.4258 53.5656C92.8729 54.1797 92.2736 54.7501 91.6332 55.2718C91.1007 55.7227 90.5382 56.1662 89.7432 55.6626C88.9482 55.159 88.3331 54.5201 88.6106 53.5506C88.9733 51.9121 89.535 50.3244 90.2832 48.8229C91.522 46.7818 92.9295 44.8484 94.4908 43.0431C95.6833 41.615 96.3283 41.6902 97.7459 42.9078C98.0309 43.1633 98.3159 43.4264 98.6234 43.7045ZM98.5709 44.4561C98.2749 44.2767 97.946 44.1588 97.6036 44.1094C97.2613 44.06 96.9125 44.08 96.5781 44.1684C96.2436 44.2567 95.9303 44.4116 95.6568 44.6237C95.3833 44.8358 95.1551 45.1009 94.9858 45.4031C93.7108 47.2295 92.4582 49.0785 91.3407 51.0026C90.9004 51.9677 90.5586 52.975 90.3207 54.0091L90.8157 54.2721C94.0228 51.5311 96.6582 48.1826 98.5709 44.4185V44.4561Z" fill="#62CCB6"/>
<path d="M105.125 51.183L106.52 49.9879L106.813 50.1833C106.663 50.5366 106.505 50.8823 106.348 51.2281C105.868 52.3029 105.373 53.3626 104.9 54.4374C104.668 54.9636 104.9 55.843 103.91 55.7452C103.463 55.6591 103.067 55.4028 102.804 55.0301C102.541 54.6574 102.432 54.1972 102.5 53.746C102.74 52.3104 103.003 50.8823 103.318 49.4693C104.668 43.4564 106.318 37.5112 109.243 32.0244C109.74 31.1314 110.315 30.2838 110.961 29.4915C111.079 29.2921 111.243 29.1229 111.437 28.9973C111.632 28.8717 111.854 28.7931 112.084 28.7676C112.314 28.7421 112.548 28.7705 112.765 28.8504C112.983 28.9304 113.179 29.0598 113.338 29.2284C114.021 29.7771 114.666 30.3558 115.333 30.9271L115.191 31.2427C114.913 31.2427 114.591 31.3855 114.373 31.2427C113.121 30.6715 112.281 31.2427 111.696 32.2424C110.756 33.7833 109.899 35.3741 109.131 37.0076C107.16 41.5289 105.813 46.2977 105.125 51.183Z" fill="#62CCB6"/>
<path d="M128.248 45.9894C127.903 49.1391 126.713 52.1364 124.805 54.663C123.538 56.2263 122.082 56.2789 119.555 55.4146C118.002 54.8734 117.425 53.6182 117.725 51.6565C118.154 48.5327 119.341 45.5621 121.182 43.0055C121.857 42.081 122.585 41.8781 123.56 42.6222C123.74 42.7489 123.944 42.837 124.16 42.8809C124.375 42.9249 124.597 42.9238 124.813 42.8777C127.018 42.1637 128.278 43.1257 128.248 45.9894ZM126.32 43.6669C124.94 44.2005 123.883 44.5688 122.855 45.0198C122.465 45.1852 121.955 45.4632 121.827 45.7714C121.048 47.8147 120.375 49.8969 119.81 52.0098C119.577 52.9418 119.577 54.212 120.785 54.6479C121.865 55.0313 122.645 54.212 123.253 53.4378C124.68 51.549 125.614 49.332 125.968 46.989C126.17 46.042 126.17 45.0048 126.32 43.6669Z" fill="#62CCB6"/>
<path d="M201.749 50.2961C201.685 50.6067 201.568 50.9041 201.404 51.1755C200.137 52.5585 198.862 53.949 197.519 55.2718C197.357 55.4608 197.158 55.615 196.935 55.7253C196.711 55.8356 196.468 55.8997 196.22 55.9137C195.971 55.9278 195.722 55.8915 195.488 55.807C195.254 55.7225 195.039 55.5916 194.856 55.4221C193.896 54.6705 192.449 54.1895 193.004 52.4157C193.333 51.3276 193.583 50.2174 193.754 49.0936C193.807 48.3579 193.807 47.6194 193.754 46.8838L191.504 46.4328L191.549 45.9819L194.736 46.2224C195.487 45.0875 196.132 43.9676 196.897 42.8477C197.384 42.1562 198.029 41.6225 199.004 42.0585C199.15 42.1151 199.308 42.1307 199.462 42.1036C201.412 41.7653 201.419 41.7653 201.427 43.6895C201.427 44.8169 201.427 45.9443 201.427 47.1694L203.422 47.425C203.384 47.5603 203.369 47.688 203.339 47.688C201.804 47.8228 200.299 48.2035 198.884 48.8155C198.037 49.1462 196.964 48.8756 195.884 48.8756C195.19 50.6419 194.933 52.5501 195.134 54.4375C197.924 53.7686 199.379 51.4311 201.502 50.0556L201.749 50.2961ZM196.499 46.7636C197.196 46.9063 197.903 46.9893 198.614 47.0116C198.899 47.0116 199.364 46.6283 199.364 46.3878C199.454 45.4407 199.364 44.4711 199.364 43.5091L198.974 43.3362L196.499 46.7636Z" fill="#62CCB6"/>
<path d="M53.6968 47.6203C54.1468 47.0641 54.5593 46.6282 54.8893 46.1171C55.6393 44.9672 56.3068 43.7646 57.0868 42.6447C57.282 42.3499 57.5675 42.1267 57.9003 42.0088C58.2331 41.8908 58.5952 41.8845 58.9319 41.9908C59.7399 42.0372 60.5505 41.9688 61.3394 41.7878C61.4266 43.2898 61.4266 44.7956 61.3394 46.2975C61.2757 46.721 61.1268 47.1272 60.9018 47.4914C60.6768 47.8555 60.3803 48.1701 60.0304 48.4161C59.6804 48.6621 59.2843 48.8343 58.866 48.9223C58.4477 49.0103 58.0159 49.0123 57.5969 48.9281C57.0568 48.868 56.5168 48.7853 55.6393 48.6576C55.4143 50.3412 55.1668 51.9797 55.0018 53.6182C54.9343 54.2721 55.3768 54.5051 55.9093 54.1443C57.1918 53.2574 58.4444 52.3254 59.6969 51.3859C60.2819 50.9425 60.8294 50.4464 61.3994 49.9729L61.7369 50.2359C61.68 50.5453 61.5709 50.8427 61.4144 51.1153C60.1769 52.4833 58.9469 53.8662 57.6644 55.144C56.9143 55.8956 55.9843 56.2263 55.0018 55.4897C54.0193 54.7531 52.5267 54.2195 53.0068 52.4307C53.2918 51.3784 53.5318 50.3036 53.7193 49.2213C53.7552 48.6879 53.7477 48.1525 53.6968 47.6203ZM56.1718 47.6203C57.4994 47.7932 58.4819 48.0563 59.1719 47.0641C59.4702 46.4568 59.6089 45.7832 59.5748 45.1071C59.5407 44.4311 59.3349 43.7749 58.9769 43.2009L56.1718 47.6203Z" fill="#62CCB6"/>
<path d="M116.09 50.9725C116.053 54.7306 112.663 56.8501 109.76 55.3544C109.162 55.0424 108.679 54.5481 108.379 53.9429C108.08 53.3377 107.981 52.6528 108.095 51.9872C108.55 49.0286 109.61 46.196 111.208 43.6669C112.145 42.1636 112.513 42.1636 114.208 42.6522C114.664 42.7347 115.131 42.7347 115.588 42.6522C116.675 42.5845 117.2 42.9829 117.133 44.0502C117.04 45.1403 116.872 46.2227 116.63 47.2896C116.51 47.8458 116.173 48.3644 115.445 48.0412C114.868 47.7556 114.305 47.4625 114.695 46.6057C114.92 46.1053 115.049 45.5676 115.078 45.0198C115.078 44.6815 114.943 44.0802 114.748 44.0276C114.305 43.9378 113.844 43.9932 113.435 44.1855C113.141 44.3728 112.898 44.6312 112.73 44.9371C111.241 47.1689 110.326 49.7356 110.067 52.4081C110.04 52.8004 110.081 53.1946 110.187 53.5731C110.503 54.8659 111.395 55.2642 112.438 54.445C113.341 53.662 114.195 52.8236 114.995 51.9346C115.28 51.679 115.588 51.4235 116.09 50.9725Z" fill="#62CCB6"/>
<path d="M8.95036 18.751C8.55732 18.4942 8.12365 18.3062 7.66783 18.1948C6.68531 18.1572 5.70278 18.2549 4.71276 18.27C4.30393 18.2621 3.89582 18.232 3.49023 18.1798V17.7288C5.98029 17.4657 8.47785 17.2027 10.9904 16.9772C12.0235 16.8495 13.0623 16.7742 14.103 16.7517C14.733 16.7517 15.3705 17.0599 16.0005 17.0599C27.3808 17.0599 38.7585 17.0348 50.1338 16.9847H51.8738V17.3154C50.805 17.5406 49.7227 17.6962 48.6338 17.7814C38.5635 17.9768 28.4908 18.1372 18.4156 18.2624C17.3455 18.1587 16.2832 17.9855 15.2355 17.7438C13.2255 17.4733 11.2004 17.3229 9.29537 18.2399C9.09286 18.3226 8.99536 18.6833 8.95036 18.751Z" fill="#62CCB6"/>
<path d="M179.422 45.0123C180.076 44.1004 180.831 43.2657 181.672 42.5245C182.475 41.9382 184.05 43.2761 183.847 44.3133C183.502 46.0796 183.015 47.8158 182.572 49.5746C182.475 49.9879 182.332 50.3863 182.175 50.9049L183.172 50.003L183.435 50.1984C183.27 50.5592 183.12 50.95 182.932 51.2732C182.227 52.5434 181.432 53.7761 180.81 55.0313C180.375 55.8881 179.835 55.8956 179.085 55.5499C178.334 55.2041 178.567 54.7231 178.792 54.1218C179.542 52.1075 180.292 50.0781 180.9 48.0262C181.282 46.7635 181.455 45.4332 181.792 43.7496L179.745 45.343L179.422 45.0123Z" fill="#62CCB6"/>
<path d="M102.823 20.1716L62.2695 19.5703V19.3147H62.3895C66.4021 19.3147 70.4147 19.3147 74.3898 19.3974C82.4525 19.4951 90.5227 19.6304 98.5854 19.7131C98.7751 19.6877 98.9571 19.6215 99.119 19.519C99.2808 19.4165 99.4186 19.2802 99.5229 19.1193C99.8754 18.518 100.16 18.4504 100.723 18.8788C101.4 19.3453 102.101 19.7768 102.823 20.1716Z" fill="#62CCB6"/>
<path d="M118.491 8.03311C118.153 6.92072 117.831 5.77827 117.456 4.69595C117.253 4.08715 117.261 3.42573 116.301 3.19273C115.866 3.07248 115.761 1.77219 115.498 1.01306L115.911 0.855225C116.039 1.14569 116.186 1.42695 116.353 1.69703C116.877 2.50263 117.456 3.27109 118.086 3.99696C118.228 4.13976 118.836 3.91428 119.226 3.75644C120.163 3.32802 121.048 2.78686 122.008 2.41857C122.256 2.32838 122.758 2.59896 123.006 2.85451C124.941 4.98908 126.838 7.15372 125.586 10.5134C125.746 9.41334 125.653 8.29124 125.315 7.2324C124.977 6.17356 124.403 5.20585 123.636 4.40283C123.469 4.16725 123.241 3.98183 122.977 3.86659C122.712 3.75135 122.421 3.71066 122.136 3.74893C119.136 3.93683 118.896 4.9966 118.828 7.38672C118.806 7.63935 118.769 7.89038 118.716 8.13833L118.491 8.03311Z" fill="#62CCB6"/>
<path d="M16.5703 20.6677C23.718 20.2618 30.8731 19.6154 38.0283 20.3671V20.6677H16.5703Z" fill="#62CCB6"/>
<path d="M8.53781 69.4397C11.8829 69.312 15.228 69.1391 18.573 69.079C21.9181 69.0188 25.1657 69.079 28.4658 69.079V69.4623C25.1057 69.56 21.7156 69.6953 18.3855 69.7479C15.0555 69.8005 11.8004 69.7479 8.50781 69.7479L8.53781 69.4397Z" fill="#62CCB6"/>
<path d="M207.368 22.6217C206.225 22.4932 205.075 22.443 203.925 22.4714C202.868 22.6414 201.824 22.8927 200.805 23.223L201.023 22.7119L197.708 22.0806L197.64 22.4789L199.35 22.8397H194.062C194.453 21.8401 194.985 21.4718 195.923 21.5845C197.85 21.8175 199.785 22.0129 201.728 22.1482C203.67 22.2835 205.478 22.3211 207.353 22.4038L207.368 22.6217Z" fill="#62CCB6"/>
<path d="M195.668 65.5238L192.773 66.5761L193.17 67.2826C191.67 67.4254 190.245 67.7636 188.963 66.6362C188.637 66.4451 188.268 66.3415 187.89 66.3356C187.439 66.2992 186.995 66.2006 186.57 66.0424C189.525 65.2908 192.653 66.4633 195.511 64.8774L195.668 65.5238Z" fill="#62CCB6"/>
<path d="M196.537 20.5473C195.743 20.8689 194.915 21.1008 194.07 21.2388C191.325 21.3365 188.572 21.3215 185.819 21.3365C185.692 21.3365 185.564 21.2238 185.429 21.1637L185.377 20.7954C185.786 20.6772 186.205 20.5992 186.629 20.5624C189.802 20.5398 192.982 20.5473 196.537 20.5473Z" fill="#62CCB6"/>
<path d="M113.114 3.03491L112.619 15.9701H112.221C112.311 11.6333 111.779 7.28151 113.114 3.03491Z" fill="#62CCB6"/>
<path d="M181.936 39.3226C182.776 38.5259 183.503 37.7743 184.298 37.0677C185.093 36.3612 185.566 37.1204 185.993 37.5413C186.166 37.7141 186.068 38.4357 185.851 38.6987C184.711 40.1193 183.398 40.3297 181.936 39.3226Z" fill="#62CCB6"/>
<path d="M48.8594 20.7954L65.1947 20.3669V20.5548C62.5097 20.7127 59.8246 20.9307 57.1396 21.0058C54.4545 21.081 51.6494 21.0058 48.8894 21.0058L48.8594 20.7954Z" fill="#62CCB6"/>
<path d="M106.49 21.0509H84.8223V20.8555H106.535L106.49 21.0509Z" fill="#62CCB6"/>
<path d="M210.361 20.2844L204.586 21.2841L204.488 20.9834L205.238 20.6302L204.563 20.1116H210.353L210.361 20.2844Z" fill="#62CCB6"/>
<path d="M103.43 16.4136V7.89038H103.842C103.505 10.739 104.502 13.5801 103.842 16.4362L103.43 16.4136Z" fill="#62CCB6"/>
<path d="M209.468 45.9819C207.053 46.9214 204.046 46.9139 202.846 45.9819H209.468Z" fill="#62CCB6"/>
<path d="M184.589 20.3671L184.049 20.9459H178.049C180.066 19.7959 182.241 20.6227 184.589 20.3671Z" fill="#62CCB6"/>
<path d="M123.172 8.67943C123.337 10.4307 123.464 12.1744 123.697 13.9407C123.742 14.294 123.187 15.2034 124.312 14.993C124.358 15.2414 124.358 15.4962 124.312 15.7446C124.252 15.9099 123.899 16.1429 123.809 16.0978C123.704 16.0383 123.612 15.9574 123.54 15.8603C123.468 15.7633 123.416 15.6522 123.389 15.5341C123.232 13.2342 123.104 10.9418 122.977 8.64185L123.172 8.67943Z" fill="#62CCB6"/>
<path d="M204 27.8004L211.065 27.3269V27.7253L203.992 28.2815L204 27.8004Z" fill="#62CCB6"/>
<path d="M182.055 66.1326L185.22 65.6816C184.102 67.2751 183.12 67.3202 182.055 66.1326Z" fill="#62CCB6"/>
<path d="M167.692 9.1604L171.375 10.596C170.85 11.2273 170.85 11.2273 167.625 9.45353L167.692 9.1604Z" fill="#62CCB6"/>
<path d="M105.92 5.95114L105.687 9.153L105.17 9.09287L105.342 5.87598L105.92 5.95114Z" fill="#62CCB6"/>
<path d="M211.126 58.5941L208.734 58.9398L208.666 58.5114C209.319 57.6621 210.204 58.0078 211.044 58.098L211.126 58.5941Z" fill="#62CCB6"/>
<path d="M121.67 7.44696L122.93 4.62842C123.23 5.98883 123.11 6.94338 122.015 7.58976L121.67 7.44696Z" fill="#62CCB6"/>
<path d="M180.059 21.8704C179.009 22.4716 177.937 22.87 176.654 21.8704H180.059Z" fill="#62CCB6"/>
<path d="M98.4722 83.9908L98.1797 80.3831H98.5247L98.9972 83.9457L98.4722 83.9908Z" fill="#62CCB6"/>
<path d="M43.5792 20.6902H39.4766V20.5173H43.5867L43.5792 20.6902Z" fill="#62CCB6"/>
<path d="M125.907 12.3926V16.3911H125.652V12.355L125.907 12.3926Z" fill="#62CCB6"/>
<path d="M119.832 9.9496C119.63 8.49899 119.367 7.04839 120.365 5.75562L119.832 9.9496Z" fill="#62CCB6"/>
<path d="M104.09 8.43891L104.585 4.46289H104.9L104.472 8.43891H104.09Z" fill="#62CCB6"/>
<path d="M181.192 21.8704L184.942 22.186L184.904 22.5618L181.154 22.0958L181.192 21.8704Z" fill="#62CCB6"/>
<path d="M111.11 19.931H109.895L110.36 18.5105C111.312 18.533 111.32 18.5406 111.11 19.931Z" fill="#62CCB6"/>
<path d="M169.35 21.6223C169.687 21.6223 170.025 21.5622 170.355 21.5622C171.689 21.5309 173.025 21.5862 174.352 21.7275H169.357L169.35 21.6223Z" fill="#62CCB6"/>
<path d="M112.206 80.6987V83.6225H112.049V80.6987H112.206Z" fill="#62CCB6"/>
<path d="M122.474 19.8485L120.906 20.1191C121.004 19.5478 121.071 19.1044 121.191 18.4204L122.474 19.8485Z" fill="#62CCB6"/>
<path d="M122.217 81.7585L121.962 83.9307C121.085 83.0889 121.467 82.45 122.217 81.7585Z" fill="#62CCB6"/>
</svg>
