<svg width="521" height="116" viewBox="0 0 521 116" fill="none" xmlns="http://www.w3.org/2000/svg">
<path d="M59.388 17.801C58.2877 12.8206 54.8709 11.7203 50.4117 14.6158C46.995 16.8454 43.3466 18.2063 39.3217 15.6293C38.3568 15.3633 37.3281 15.4559 36.4262 15.8899C34.545 16.8047 32.6112 17.6072 30.635 18.2932C23.5988 19.6831 16.331 20.8413 9.26579 22.4628C7.02016 22.7416 4.93637 23.7767 3.35747 25.3977C1.77857 27.0187 0.798678 29.129 0.579102 31.3812V35.8693C1.67942 36.2167 2.40331 37.3171 3.67735 39.6046C4.13885 40.4701 4.55446 41.3593 4.92245 42.2685L9.12101 46.0906L10.1634 45.2219C9.00519 42.3264 7.81801 39.4308 6.63083 36.5353C6.61472 35.3748 6.83133 34.2228 7.26785 33.1474C7.66625 32.1521 8.24547 31.2391 8.97623 30.4546C15.7808 26.1691 23.454 25.3584 31.967 24.6635C31.5906 26.256 31.4168 27.2695 31.0983 28.2539L30.8088 29.1226L25.3072 45.164C25.1265 45.7436 24.8939 46.3057 24.6123 46.8435L23.1066 51.1868C22.4696 53.3874 21.9773 55.3854 21.2824 57.3254C21.1086 57.7597 20.24 57.9045 19.7477 58.252C18.7343 59.0338 17.0549 59.7287 16.8522 60.7132C15.9545 64.9118 15.4912 69.2262 14.8253 73.5116C14.362 76.4071 16.3599 77.0442 18.5316 77.5364C20.7033 78.0287 21.9484 76.4651 22.4696 74.6409C25.1914 64.8828 27.7105 55.0958 30.6061 45.4246C32.5461 38.9096 35.0363 32.5683 37.208 26.1402C37.4228 25.2736 37.9343 24.5095 38.6536 23.9806C39.3729 23.4517 40.2547 23.1913 41.1459 23.2446C46.3869 22.7813 51.57 21.9995 56.753 21.3336C59.0405 21.1019 59.8802 19.9147 59.388 17.801Z" fill="#91DBCC"/>
<path d="M158.242 25.7051C153.638 28.6007 149.816 31.0909 145.965 33.4652C141.332 36.3608 141.853 40.791 142.635 45.337C136.323 43.6866 133.63 35.6659 138.118 32.278C144.391 27.6715 150.917 23.418 157.663 19.5376C159.285 18.5241 160.559 17.8581 160.559 15.6865C160.559 15.0205 161.022 13.7464 161.341 13.7464C161.753 13.7123 162.168 13.767 162.558 13.9068C162.947 14.0467 163.302 14.2685 163.599 14.5572C164.815 16.6131 166.321 16.1787 168.203 15.7444C171.541 14.9069 174.957 14.4121 178.395 14.2676C180.316 14.5729 182.117 15.3935 183.607 16.642C184.968 17.5308 186.148 18.6707 187.082 20.0009C187.893 21.1447 188.337 22.5079 188.356 23.9099C188.407 28.9144 186.967 33.8208 184.218 38.0032C181.469 42.1856 177.537 45.4545 172.923 47.3929C174.892 48.8117 176.745 49.9989 178.395 51.3888C180.99 53.4242 183.447 55.6297 185.75 57.9906C188.646 61.1758 188.646 63.4343 186.619 67.1696C185.837 68.6753 185.692 70.5574 184.824 72.0052C184.15 73.3603 183.051 74.4583 181.696 75.1324C179.106 76.1504 176.368 76.7467 173.589 76.8987C166.697 77.1014 159.777 76.8987 152.886 76.7249C151.611 76.7249 149.498 75.0745 149.382 74.0321C149.278 73.0625 149.368 72.0819 149.646 71.1474C149.924 70.2128 150.386 69.343 151.003 68.5884C151.757 68.2207 152.593 68.0542 153.43 68.1049C154.267 68.1556 155.077 68.4219 155.781 68.878C159.545 73.3371 164.468 72.4685 169.13 72.2079C172.345 71.9614 175.521 71.3494 178.598 70.3837C182.16 69.3123 182.97 66.8221 181.146 63.637C180.675 62.7496 180.047 61.955 179.293 61.2916C174.313 57.5274 169.361 53.7052 164.178 50.2305C162.128 49.2521 159.956 48.551 157.721 48.1457C160.153 43.2522 162.557 42.3546 167.248 43.7445C169.263 44.1104 171.341 43.6739 173.039 42.5283C179.148 37.8086 181.523 30.9461 182.478 23.6203C182.768 21.4776 181.725 20.2615 179.351 20.4352C177.787 20.4352 176.195 20.4352 174.66 20.4352C168.579 21.3039 164.41 23.3308 162.383 30.4828C158.792 43.5418 153.349 56.0796 148.571 68.7911C147.123 72.6711 144.691 75.5957 139.884 75.4509C139.549 75.4505 139.216 75.3917 138.9 75.2772C138.739 75.2089 138.599 75.0989 138.495 74.9586C139.334 70.4416 139.884 65.9245 141.13 61.6101C141.477 60.394 144.025 59.7859 145.328 58.8883C146.255 58.3092 147.702 57.8748 148.021 57.0351C151.496 47.5087 154.826 37.9533 158.126 28.398C158.263 27.5072 158.302 26.6043 158.242 25.7051Z" fill="#91DBCC"/>
<path d="M369.299 54.0536C365.072 59.6131 360.873 65.2304 356.53 70.732C355.04 72.5164 353.414 74.1816 351.665 75.7124C350.073 77.1891 348.277 78.6079 346.135 76.5521C345.255 75.8643 344.654 74.882 344.441 73.7861C344.228 72.6901 344.418 71.5542 344.976 70.5872C346.955 64.6962 348.494 58.6665 349.58 52.5479C350.13 49.9708 350.188 47.278 350.536 43.8612L344.513 47.886C344.807 45.489 345.854 43.247 347.504 41.4831C349.153 39.7191 351.32 38.5241 353.692 38.0701C356.588 38.0701 357.688 39.2283 357.311 41.8343C356.385 47.7799 355.42 53.7061 354.416 59.6131C353.71 62.7152 353.198 65.858 352.881 69.0236C355.169 66.1281 357.63 63.58 359.686 60.6265C364.261 54.0825 369.473 47.8571 371.587 39.8653C371.731 39.2862 373.237 38.4465 373.44 38.5913C374.916 39.7495 376.885 40.8788 377.436 42.4424C377.735 44.3142 377.535 46.2319 376.856 48.0018C373.353 63.5221 369.849 79.0423 363.421 93.7228C360.883 100.204 357.073 106.111 352.215 111.096C349.705 113.5 346.512 115.068 343.075 115.586C339.639 116.105 336.126 115.548 333.018 113.992C329.827 112.175 326.82 110.051 324.041 107.65C323.289 107.013 323.318 105.421 322.999 104.263C324.082 104.292 325.154 104.478 326.184 104.813C327.661 105.566 328.877 106.811 330.325 107.708C337.651 111.965 343.789 111.038 349.522 104.813C355.314 98.0289 359.58 90.0797 362.031 81.5035C364.927 72.5273 367.33 63.3773 369.965 54.3142L369.299 54.0536Z" fill="#91DBCC"/>
<path d="M411.95 69.4864C419.565 69.9786 427.21 70.6446 434.883 70.8473C436.447 70.8473 438.097 69.1389 439.892 68.0965C440.988 68.9616 441.815 70.1208 442.277 71.4386C442.738 72.7564 442.815 74.1783 442.498 75.5381C441.842 76.9021 440.702 77.9724 439.299 78.54C437.896 79.1076 436.332 79.1316 434.912 78.6074C425.364 76.1908 415.486 75.3497 405.667 76.1172C404.437 76.3916 403.268 76.8923 402.221 77.594C400.918 78.2599 399.673 79.0128 398.399 79.7077C397.428 78.1527 396.687 76.4655 396.198 74.6984C396.27 74.0285 396.473 73.3794 396.796 72.7882C397.119 72.1969 397.556 71.6751 398.08 71.2527C398.985 70.5892 400.087 70.2523 401.208 70.2972C405.203 70.2972 406.275 68.0097 407.491 64.506C411.805 52.4605 416.351 40.4729 421.448 28.7458C423.823 24.0861 426.738 19.7223 430.134 15.7448C431.071 14.4615 432.445 13.5649 433.997 13.2236C435.548 12.8823 437.171 13.1199 438.56 13.8916C440.471 14.7024 442.73 14.7024 444.612 15.571C445.915 16.1502 447.855 17.7138 447.739 18.6403C446.957 24.7789 445.857 30.8886 444.496 36.9113C444.033 38.9961 439.748 39.5463 438.242 37.9248C437.836 37.4904 438.039 36.3901 438.242 35.6373C439.255 31.0912 440.471 26.6031 441.311 22.0281C441.371 21.4028 441.281 20.7722 441.05 20.1883C440.818 19.6043 440.451 19.0837 439.979 18.6693C439.365 18.4964 438.717 18.4801 438.095 18.6217C437.473 18.7633 436.896 19.0584 436.418 19.48C432.889 23.0121 429.815 26.9711 427.268 31.265C422.982 39.9517 419.565 49.2464 415.888 58.3385C414.498 62.0159 413.282 65.7222 411.95 69.4864Z" fill="#91DBCC"/>
<path d="M85.9713 59.3815C85.6689 60.3739 85.2914 61.3419 84.842 62.277C82.2939 66.7362 79.601 71.1085 77.0819 75.5676C76.1264 77.2471 75.1708 78.2316 73.115 77.276C72.664 77.1527 72.2458 76.9316 71.8899 76.6284C71.534 76.3252 71.2492 75.9474 71.0558 75.5218C70.8623 75.0962 70.7649 74.6332 70.7705 74.1657C70.7761 73.6982 70.8845 73.2377 71.0881 72.8169C73.8099 64.1302 76.3001 55.4435 78.8192 46.7568C79.1181 45.3764 78.9341 43.9351 78.298 42.6741C76.8509 43.7175 75.4771 44.8591 74.1863 46.0908C67.0896 53.8553 61.4759 62.8548 57.6237 72.6431C57.0736 74.004 56.9288 76.3784 54.4676 75.5387C53.9153 75.4187 53.3922 75.1907 52.9284 74.8678C52.4646 74.5448 52.0693 74.1333 51.7651 73.6569C51.461 73.1806 51.2541 72.6488 51.1564 72.0921C51.0586 71.5355 51.072 70.965 51.1956 70.4135C55.0177 50.3183 59.8823 30.5706 69.177 12.1838C71.0551 8.71037 73.2454 5.41513 75.721 2.33887C76.0588 1.83686 76.5026 1.415 77.021 1.10298C77.5394 0.790957 78.12 0.596353 78.7217 0.532865C79.3235 0.469377 79.9318 0.538548 80.504 0.73551C81.0761 0.932472 81.5982 1.25244 82.0333 1.67289C84.0023 3.17858 85.8265 4.88696 87.8244 6.47952L87.3032 7.37714C86.5214 7.37714 85.5948 7.81148 84.9578 7.52192C84.283 7.16068 83.5383 6.94908 82.7743 6.90153C82.0104 6.85398 81.2452 6.97159 80.5308 7.24637C79.8164 7.52114 79.1696 7.94661 78.6344 8.49383C78.0992 9.04104 77.6882 9.69715 77.4294 10.4175C73.9161 16.3631 70.8201 22.5455 68.1636 28.9201C64.5731 38.5624 61.9092 48.581 58.8399 58.4549L59.8243 58.8892C61.0984 56.9492 62.2277 54.9223 63.6465 53.0981C67.0633 48.8416 70.5958 44.672 74.1863 40.5313C74.5439 39.9695 75.0137 39.4876 75.5662 39.1158C76.1188 38.744 76.7422 38.4903 77.3973 38.3707C78.0525 38.2511 78.7253 38.2681 79.3735 38.4207C80.0218 38.5732 80.6316 38.858 81.1646 39.2573C82.447 39.8198 83.4822 40.8278 84.0784 42.0949C84.6747 43.3619 84.7917 44.8021 84.4077 46.1487C83.4521 51.4766 82.3518 56.8044 81.3094 62.1612L84.9868 58.8023L85.9713 59.3815Z" fill="#91DBCC"/>
<path d="M472.409 44.4395C471.975 44.4395 471.772 44.121 471.569 44.1499C469.658 44.1499 467.313 44.6132 467.11 42.0362C467.11 41.3412 469.369 40.0093 470.759 39.7487C471.885 39.5228 472.918 38.9672 473.727 38.1526C474.537 37.338 475.086 36.3011 475.305 35.1737C477.766 28.2533 480.517 21.4487 483.181 14.5862C483.718 13.2418 484.327 11.9273 485.005 10.6483C490.42 0.369035 493.141 1.00606 502.378 7.52107C502.899 7.8975 503.073 8.76617 503.392 9.43215C502.61 9.60588 501.77 10.1271 501.075 9.95335C494.357 8.38974 493.634 8.50557 490.506 14.4125C488.248 18.64 486.366 23.0992 484.484 27.4425C482.978 31.033 481.588 34.7104 480.198 38.7931L490.217 40.5305V42.0941L478.432 44.2368C472.641 61.8997 466.85 79.9391 465.807 99.0788C460.769 98.3838 458.597 95.8068 459.727 91.2897C462.941 78.4623 466.386 65.6929 469.658 52.8656C470.18 50.8676 470.208 48.7539 470.672 46.7559C470.817 46.061 471.598 45.395 472.409 44.4395Z" fill="#91DBCC"/>
<path d="M312.461 42.558L307.162 46.7566L306.004 45.6562C308 43.0373 310.218 40.5959 312.635 38.3594C313.301 37.8093 316.138 39.1991 317.383 40.3574C317.912 40.9357 318.315 41.6184 318.564 42.3614C318.813 43.1044 318.904 43.8914 318.831 44.6718C318.223 48.3202 317.036 51.8528 316.138 55.2695C319.961 50.7524 323.725 46.0906 327.721 41.6314C329.632 39.4887 331.774 37.5487 335.278 39.4018C336.728 40.0019 337.893 41.1346 338.534 42.5671C339.175 43.9995 339.243 45.6231 338.724 47.104C337.768 51.4184 337.131 55.7907 336.378 60.192L339.216 58.3388L339.969 58.7731C339.781 59.7063 339.5 60.6182 339.129 61.495C336.668 66.1279 334.091 70.6739 331.688 75.3068C331.55 75.7625 331.31 76.1805 330.985 76.5283C330.66 76.8762 330.26 77.1445 329.815 77.3125C329.369 77.4805 328.891 77.5437 328.418 77.4972C327.944 77.4506 327.488 77.2956 327.084 77.0441C324.825 76.0596 325.202 74.7566 325.81 72.7587C328.3 64.709 330.558 56.5725 332.73 48.436C332.933 46.8499 332.933 45.2444 332.73 43.6583L331.63 43.0792C328.871 45.8524 326.307 48.813 323.956 51.9396C319.497 58.86 315.559 66.0989 311.216 73.1062C310.463 74.3513 308.928 76.0017 307.712 76.0017C304.527 76.1465 303.572 74.2644 304.817 71.253C308.68 62.0877 311.253 52.4306 312.461 42.558Z" fill="#91DBCC"/>
<path d="M218.18 42.7318L220.033 40.4443C225.014 42.2395 225.419 43.1082 223.856 47.799C222.466 52.0265 221.163 56.283 219.889 60.5105C219.71 61.2817 219.594 62.0661 219.541 62.8559L223.161 60.4816L223.913 61.1186L222.582 64.13C221.163 67.402 219.86 70.7029 218.296 73.8591C217.717 75.0173 216.327 76.7546 215.632 76.7546C213.663 76.3203 211.376 75.3647 211.868 72.5561C212.621 68.4154 213.518 64.3037 214.358 60.163C214.503 59.4392 214.59 58.7153 214.764 57.5281C210.768 62.2189 207.148 66.5333 203.384 70.7608C201.822 72.5361 200.128 74.1913 198.317 75.7122C196.782 76.9863 195.19 78.2314 192.931 76.8125C190.672 75.3937 188.906 73.5695 189.717 70.8477C190.732 66.1552 192.317 61.6044 194.437 57.2964C197.974 51.5306 201.984 46.0682 206.424 40.9655C209.812 36.9117 211.636 37.1144 215.661 40.5601L218.18 42.7318ZM218.18 44.7876C217.341 44.2765 216.407 43.9397 215.434 43.7971C214.461 43.6546 213.47 43.7092 212.519 43.9578C211.568 44.2063 210.677 44.6437 209.898 45.244C209.12 45.8442 208.47 46.595 207.988 47.4515C204.368 52.6346 200.807 57.8756 197.651 63.3192C196.383 66.1051 195.413 69.0167 194.755 72.0059L196.145 72.7587C205.213 64.9675 212.652 55.4618 218.036 44.7876H218.18Z" fill="#91DBCC"/>
<path d="M236.654 63.9268L240.766 60.539L241.606 61.0892C241.171 62.1026 240.737 63.0871 240.274 63.9848C238.913 66.8803 237.378 70.0365 236.162 73.0768C235.496 74.5536 236.162 77.0437 233.267 76.7831C231.971 76.5365 230.824 75.7919 230.072 74.7092C229.32 73.6265 229.021 72.292 229.242 70.992C229.937 66.9382 230.69 62.8844 231.587 58.8596C234.923 41.7593 240.563 25.1904 248.352 9.60611C249.758 7.07524 251.396 4.68087 253.246 2.45407C253.594 1.90249 254.061 1.4363 254.614 1.09011C255.167 0.743917 255.79 0.5266 256.438 0.454282C257.086 0.381965 257.742 0.456503 258.358 0.672367C258.973 0.888231 259.532 1.23988 259.993 1.70122C261.933 3.23587 263.786 4.88634 265.784 6.50785L265.407 7.40548C264.626 7.40548 263.699 7.81086 263.062 7.40548C262.381 7.05341 261.633 6.84913 260.868 6.80601C260.103 6.76289 259.337 6.8819 258.621 7.15525C257.904 7.4286 257.254 7.85012 256.712 8.39223C256.17 8.93434 255.749 9.5848 255.476 10.301C252.8 14.6729 250.364 19.187 248.179 23.8233C242.545 36.6098 238.668 50.1002 236.654 63.9268Z" fill="#91DBCC"/>
<path d="M302.354 49.2179C301.389 58.1502 298.006 66.65 292.567 73.8013C288.977 78.2604 284.836 78.4052 277.597 75.8861C273.167 74.3514 271.545 70.7899 272.385 65.2304C273.604 56.376 276.974 47.9553 282.201 40.705C282.493 40.097 282.929 39.569 283.47 39.1662C284.011 38.7635 284.642 38.4981 285.308 38.3927C285.974 38.2874 286.656 38.3452 287.295 38.5614C287.934 38.7775 288.511 39.1454 288.977 39.6336C290.021 40.3376 291.302 40.598 292.538 40.3575C298.879 38.4175 302.441 41.1104 302.354 49.2179ZM296.882 42.7319C292.972 44.2376 289.961 45.28 287.037 46.554C285.907 47.0463 284.489 47.7991 284.141 48.7836C281.907 54.5771 279.974 60.4822 278.35 66.4755C277.684 69.1104 277.684 72.7009 281.245 73.946C284.807 75.1911 286.544 72.7009 288.282 70.5293C292.238 65.1332 294.813 58.8502 295.781 52.2293C296.418 49.3627 296.505 46.4382 296.882 42.7319Z" fill="#91DBCC"/>
<path d="M510.777 61.6686C504.754 65.4328 500.614 72.1795 492.709 74.0616C492.121 68.7147 492.857 63.3053 494.852 58.3097C497.737 58.7345 500.672 58.6758 503.538 58.136L504.928 57.6148L505.71 57.3252C506.742 56.9148 507.716 56.3696 508.606 55.7037C509.429 55.0785 510.178 54.3594 510.835 53.561V43.6871C510.835 38.2435 510.835 38.2435 505.218 39.199C504.778 39.2666 504.329 39.2167 503.915 39.0542C501.019 37.8092 499.34 39.3438 497.95 41.3128C495.778 44.3821 493.838 47.6541 491.811 50.8681L488.916 58.2229V59.0047C488.435 62.1997 487.719 65.3549 486.773 68.4442C485.209 73.4246 489.292 74.7565 492.014 76.9282C492.534 77.4109 493.146 77.7835 493.814 78.0237C494.482 78.264 495.191 78.3669 495.9 78.3264C496.608 78.2858 497.301 78.1026 497.937 77.7877C498.573 77.4728 499.139 77.0327 499.6 76.4939C503.394 72.7586 507.013 68.8206 510.632 64.9116C511.098 64.1428 511.431 63.301 511.617 62.4214L510.777 61.6686ZM504.002 42.6737L505.102 43.1659C505.102 45.8878 505.247 48.6386 505.102 51.3314C505.102 51.9974 503.683 53.0398 502.872 53.0688C500.857 53.0213 498.851 52.7886 496.879 52.3738L504.002 42.6737Z" fill="#91DBCC"/>
<path d="M90.5417 53.8499C91.7401 52.5076 92.8708 51.1064 93.9295 49.6514C96.0722 46.4083 97.9543 42.9916 100.155 39.8064C100.725 38.9832 101.548 38.3682 102.499 38.0546C103.45 37.7411 104.477 37.7462 105.425 38.0691C107.719 38.1914 110.018 37.9965 112.258 37.49C112.507 41.7428 112.507 46.0066 112.258 50.2594C112.063 51.4361 111.635 52.5622 111 53.5722C110.366 54.5822 109.537 55.4561 108.561 56.143C107.586 56.83 106.484 57.3163 105.319 57.5739C104.155 57.8314 102.95 57.8549 101.776 57.6431L95.9854 56.8613C95.3773 61.639 94.6534 66.2719 94.1901 70.9337C93.9874 72.7869 95.2615 73.4529 96.7672 72.4105C100.416 69.9203 103.977 67.2564 107.539 64.5925C109.189 63.3474 110.753 61.9285 112.374 60.5676L113.359 61.2336C113.205 62.1044 112.891 62.939 112.432 63.6948C108.929 67.5749 105.425 71.4839 101.661 75.1323C100.785 76.2593 99.4997 76.9949 98.0845 77.1793C96.6692 77.3637 95.2384 76.9818 94.1032 76.1168C91.2077 73.9162 87.096 72.4973 88.4569 67.4301C89.2387 64.5345 89.9336 61.3784 90.4548 58.3091C90.6182 56.8284 90.6473 55.3359 90.5417 53.8499ZM97.5779 53.8499C101.342 54.3422 104.122 55.095 106.265 52.2863C107.103 50.5621 107.489 48.6533 107.388 46.739C107.287 44.8246 106.701 42.9672 105.685 41.3411L97.5779 53.8499Z" fill="#91DBCC"/>
<path d="M267.812 63.3477C267.812 73.9455 258.083 80.0262 249.83 75.7697C248.134 74.8882 246.763 73.4899 245.915 71.7773C245.066 70.0647 244.784 68.1266 245.111 66.2433C246.343 57.8429 249.301 49.7884 253.797 42.5866C256.461 38.388 257.504 38.2432 262.31 39.691C263.604 39.9081 264.925 39.9081 266.219 39.691C269.317 39.4883 270.823 40.5886 270.62 43.629C270.365 46.7182 269.89 49.7855 269.202 52.8079C268.854 54.4005 267.899 55.7035 265.843 54.8638C263.787 54.024 262.6 53.2422 263.758 50.81C264.389 49.3826 264.752 47.8515 264.829 46.2929C264.829 45.3374 264.453 43.629 263.903 43.3973C262.64 43.1487 261.331 43.3111 260.167 43.8606C259.319 44.3924 258.629 45.1425 258.17 46.0323C253.937 52.3663 251.331 59.6463 250.583 67.2278C250.512 68.3398 250.629 69.4559 250.931 70.5287C251.828 74.2061 254.376 75.3354 257.388 73.0189C259.915 70.8246 262.313 68.4849 264.569 66.0117C265.495 65.3457 266.393 64.6218 267.812 63.3477Z" fill="#91DBCC"/>
<path d="M447.653 46.4376C449.513 43.8747 451.638 41.5161 453.995 39.4014C456.282 37.751 460.77 41.4573 460.191 44.4687C459.207 49.478 457.817 54.4004 456.572 59.3519C456.282 60.5101 455.877 61.6393 455.414 63.1161L458.483 60.5969L459.236 61.1471C458.772 62.1895 458.338 63.2319 457.788 64.2164C455.79 67.8069 453.618 71.3105 451.765 74.9589C450.549 77.4202 448.87 77.4202 446.872 76.4357C444.874 75.4512 445.395 74.0903 446.032 72.3819C448.175 66.5908 450.259 60.7996 452.026 55.0085C453.097 51.447 453.589 47.6827 454.574 42.9051L448.783 47.4221L447.653 46.4376Z" fill="#91DBCC"/>
<path d="M455.037 30.3102C457.411 28.0806 459.467 25.9379 461.726 24.0268C463.984 22.1158 465.345 24.0268 466.561 25.3588C467.054 25.8511 466.764 27.8779 466.156 28.6597C465.587 29.5624 464.829 30.3314 463.935 30.9142C463.041 31.4971 462.031 31.8799 460.975 32.0366C459.92 32.1933 458.842 32.1202 457.818 31.8222C456.793 31.5243 455.844 31.0085 455.037 30.3102Z" fill="#91DBCC"/>
<path d="M514.514 55.6749L515.295 55.3853C516.328 54.9749 517.302 54.4297 518.191 53.7638C519.015 53.1386 519.763 52.4195 520.421 51.6211" fill="#91DBCC"/>
</svg>
