<svg width="25" height="22" viewBox="0 0 25 22" fill="none" xmlns="http://www.w3.org/2000/svg">
<path d="M12.049 21.1245L2.59521 11.8073C2.19293 11.4357 1.87685 11.007 1.5895 10.5497C0.0378211 8.00605 0.440108 4.74787 2.59521 2.63291C3.83081 1.40395 5.49743 0.718018 7.25025 0.718018C10.0088 0.718018 11.7329 2.31853 12.4512 3.2331C13.1696 2.31853 14.8937 0.718018 17.6522 0.718018C19.405 0.718018 21.0717 1.40395 22.3073 2.63291C24.4336 4.74787 24.8647 8.00605 23.313 10.5497C23.0256 11.007 22.7095 11.4357 22.3073 11.8073L12.8535 21.1245C12.6236 21.3532 12.2788 21.3532 12.049 21.1245ZM7.25025 1.86124C5.78477 1.86124 4.43424 2.43285 3.39979 3.43317C1.64697 5.17658 1.30215 7.86315 2.56648 9.94953C2.79636 10.3211 3.08371 10.6926 3.39979 11.007L12.4512 19.9241L21.5027 11.007C21.8188 10.6926 22.1061 10.3497 22.336 9.94953C23.6003 7.83457 23.2842 5.148 21.5027 3.43317C20.4682 2.43285 19.089 1.86124 17.6522 1.86124C15.5833 1.86124 13.8592 2.97588 12.9397 4.51923C12.7099 4.89077 12.1639 4.89077 11.934 4.51923C11.0432 2.97588 9.31915 1.86124 7.25025 1.86124V1.86124Z" fill="#62CCB6"/>
</svg>
