<svg width="17" height="26" viewBox="0 0 17 26" fill="none" xmlns="http://www.w3.org/2000/svg">
<path d="M8.75536 0.694824C7.47152 0.696559 6.24075 1.21775 5.33294 2.1441C4.42513 3.07045 3.91438 4.32636 3.91268 5.63642V7.26285H0.699219V25.288H16.7601V7.26285H13.5964V5.63642C13.5947 4.32664 13.0842 3.07098 12.1767 2.14468C11.2693 1.21837 10.0389 0.696993 8.75536 0.694824V0.694824ZM8.75536 2.33437C10.5613 2.33437 11.9897 3.79357 11.9897 5.63642V7.26285H5.51941V5.63642C5.51941 3.79193 6.94939 2.33437 8.75536 2.33437ZM2.30595 8.90239H3.91268V12.1716H5.51941V8.90239H11.9897V12.1716H13.5964V8.90239H15.1534V23.6485H2.30595V8.90239Z" fill="#62CCB6"/>
</svg>
