<svg width="20" height="20" viewBox="0 0 20 20" fill="none" xmlns="http://www.w3.org/2000/svg">
<path d="M18.0067 0.0169802H1.71277C1.52961 0.0144364 1.34774 0.0479979 1.17755 0.115748C1.00737 0.183498 0.852191 0.284109 0.720891 0.411836C0.589591 0.539563 0.484738 0.691904 0.41232 0.860158C0.339902 1.02841 0.301337 1.20928 0.298828 1.39244V17.8788C0.301337 18.0619 0.339902 18.2428 0.41232 18.411C0.484738 18.5793 0.589591 18.7316 0.720891 18.8594C0.852191 18.9871 1.00737 19.0877 1.17755 19.1555C1.34774 19.2232 1.52961 19.2568 1.71277 19.2542H18.0067C18.1899 19.2568 18.3717 19.2232 18.5419 19.1555C18.7121 19.0877 18.8673 18.9871 18.9986 18.8594C19.1299 18.7316 19.2347 18.5793 19.3072 18.411C19.3796 18.2428 19.4181 18.0619 19.4207 17.8788V1.39244C19.4181 1.20928 19.3796 1.02841 19.3072 0.860158C19.2347 0.691904 19.1299 0.539563 18.9986 0.411836C18.8673 0.284109 18.7121 0.183498 18.5419 0.115748C18.3717 0.0479979 18.1899 0.0144364 18.0067 0.0169802V0.0169802ZM6.09886 16.1186H3.21327V7.46179H6.09886V16.1186ZM4.65607 6.24985C4.25811 6.24985 3.87645 6.09176 3.59505 5.81036C3.31365 5.52896 3.15556 5.1473 3.15556 4.74934C3.15556 4.35138 3.31365 3.96972 3.59505 3.68833C3.87645 3.40693 4.25811 3.24884 4.65607 3.24884C4.86738 3.22487 5.08138 3.24581 5.28404 3.31028C5.4867 3.37476 5.67346 3.48131 5.83209 3.62297C5.99072 3.76462 6.11764 3.93818 6.20454 4.13229C6.29144 4.3264 6.33636 4.53667 6.33636 4.74934C6.33636 4.96201 6.29144 5.17229 6.20454 5.36639C6.11764 5.5605 5.99072 5.73407 5.83209 5.87572C5.67346 6.01738 5.4867 6.12393 5.28404 6.1884C5.08138 6.25287 4.86738 6.27381 4.65607 6.24985V6.24985ZM16.5062 16.1186H13.6206V11.4728C13.6206 10.3089 13.207 9.54904 12.1586 9.54904C11.8341 9.55141 11.5182 9.65319 11.2533 9.84065C10.9885 10.0281 10.7874 10.2922 10.6773 10.5975C10.6021 10.8235 10.5694 11.0616 10.5811 11.2996V16.1089H7.69555C7.69555 16.1089 7.69555 8.2409 7.69555 7.45217H10.5811V8.67374C10.8433 8.21888 11.2245 7.84415 11.6839 7.58992C12.1432 7.33568 12.6632 7.21157 13.1878 7.23095C15.1115 7.23095 16.5062 8.47175 16.5062 11.1361V16.1186Z" fill="#62CCB6"/>
</svg>
