<svg width="20" height="20" viewBox="0 0 20 20" fill="none" xmlns="http://www.w3.org/2000/svg">
<path d="M15.1789 3.97157C14.9541 3.97157 14.7344 4.03822 14.5475 4.1631C14.3607 4.28797 14.215 4.46546 14.129 4.67312C14.043 4.88078 14.0205 5.10928 14.0643 5.32973C14.1082 5.55017 14.2164 5.75267 14.3753 5.9116C14.5343 6.07054 14.7368 6.17877 14.9572 6.22262C15.1777 6.26647 15.4062 6.24397 15.6138 6.15795C15.8215 6.07194 15.999 5.92628 16.1238 5.73939C16.2487 5.5525 16.3154 5.33278 16.3154 5.10802C16.3154 4.80661 16.1956 4.51755 15.9825 4.30443C15.7694 4.0913 15.4803 3.97157 15.1789 3.97157V3.97157ZM19.5353 6.2634C19.5169 5.47764 19.3697 4.70022 19.0996 3.9621C18.8588 3.33055 18.4841 2.75868 18.0011 2.28585C17.5321 1.80042 16.9589 1.428 16.3248 1.19675C15.5887 0.918477 14.8104 0.767945 14.0235 0.751646C13.0197 0.694824 12.6977 0.694824 10.1217 0.694824C7.5458 0.694824 7.2238 0.694824 6.21994 0.751646C5.4331 0.767945 4.65482 0.918477 3.91864 1.19675C3.28572 1.43034 2.713 1.80244 2.24239 2.28585C1.75696 2.7548 1.38454 3.328 1.1533 3.9621C0.87502 4.69827 0.724488 5.47656 0.708189 6.2634C0.651367 7.26726 0.651367 7.58925 0.651367 10.1652C0.651367 12.7411 0.651367 13.0631 0.708189 14.067C0.724488 14.8538 0.87502 15.6321 1.1533 16.3683C1.38454 17.0024 1.75696 17.5756 2.24239 18.0445C2.713 18.5279 3.28572 18.9 3.91864 19.1336C4.65482 19.4119 5.4331 19.5624 6.21994 19.5787C7.2238 19.6356 7.5458 19.6356 10.1217 19.6356C12.6977 19.6356 13.0197 19.6356 14.0235 19.5787C14.8104 19.5624 15.5887 19.4119 16.3248 19.1336C16.9589 18.9024 17.5321 18.53 18.0011 18.0445C18.4862 17.5735 18.8613 17.0011 19.0996 16.3683C19.3697 15.6302 19.5169 14.8527 19.5353 14.067C19.5353 13.0631 19.5921 12.7411 19.5921 10.1652C19.5921 7.58925 19.5921 7.26726 19.5353 6.2634V6.2634ZM17.8306 13.9533C17.8237 14.5545 17.7148 15.1501 17.5086 15.7148C17.3574 16.127 17.1145 16.4994 16.7983 16.8039C16.4912 17.1169 16.1195 17.3593 15.7093 17.5142C15.1445 17.7204 14.5489 17.8293 13.9478 17.8362C13.0007 17.8835 12.6503 17.893 10.1596 17.893C7.66891 17.893 7.31851 17.893 6.37147 17.8362C5.74727 17.8479 5.12573 17.7518 4.53422 17.5521C4.14194 17.3893 3.78734 17.1475 3.49248 16.8418C3.17815 16.5376 2.93831 16.1649 2.79167 15.7527C2.56046 15.1799 2.43222 14.5708 2.41286 13.9533C2.41286 13.0063 2.35603 12.6559 2.35603 10.1652C2.35603 7.67449 2.35603 7.32408 2.41286 6.37705C2.4171 5.76247 2.52929 5.15342 2.74432 4.57768C2.91104 4.17794 3.16695 3.82162 3.49248 3.53593C3.7802 3.21031 4.13579 2.9517 4.53422 2.77831C5.11149 2.57 5.71991 2.46112 6.33359 2.45631C7.28063 2.45631 7.63103 2.39949 10.1217 2.39949C12.6124 2.39949 12.9628 2.39949 13.9099 2.45631C14.511 2.46321 15.1067 2.57208 15.6714 2.77831C16.1017 2.93803 16.488 3.1977 16.7983 3.53593C17.1087 3.82684 17.3512 4.18251 17.5086 4.57768C17.7191 5.15436 17.828 5.76316 17.8306 6.37705C17.878 7.32408 17.8874 7.67449 17.8874 10.1652C17.8874 12.6559 17.878 13.0063 17.8306 13.9533ZM10.1217 5.30689C9.16126 5.30877 8.22289 5.59529 7.4252 6.13027C6.6275 6.66524 6.00627 7.42465 5.64001 8.31256C5.27375 9.20046 5.17889 10.177 5.36742 11.1188C5.55594 12.0606 6.0194 12.9254 6.69922 13.6039C7.37904 14.2824 8.24472 14.7441 9.18688 14.9308C10.129 15.1175 11.1054 15.0208 11.9926 14.6528C12.8798 14.2848 13.638 13.6621 14.1714 12.8633C14.7048 12.0646 14.9895 11.1257 14.9895 10.1652C14.9908 9.52604 14.8656 8.89295 14.6213 8.30233C14.377 7.71171 14.0184 7.17522 13.566 6.72371C13.1136 6.2722 12.5764 5.91459 11.9853 5.67144C11.3942 5.42829 10.7609 5.3044 10.1217 5.30689V5.30689ZM10.1217 13.3188C9.49801 13.3188 8.88828 13.1339 8.36967 12.7873C7.85106 12.4408 7.44685 11.9483 7.20816 11.372C6.96947 10.7958 6.90702 10.1617 7.0287 9.54995C7.15038 8.93821 7.45074 8.37628 7.89178 7.93524C8.33282 7.49419 8.89475 7.19384 9.50649 7.07216C10.1182 6.95047 10.7523 7.01293 11.3286 7.25162C11.9048 7.49031 12.3974 7.89452 12.7439 8.41313C13.0904 8.93174 13.2754 9.54146 13.2754 10.1652C13.2754 10.5793 13.1938 10.9894 13.0353 11.372C12.8768 11.7547 12.6445 12.1023 12.3517 12.3951C12.0588 12.688 11.7112 12.9203 11.3286 13.0788C10.946 13.2373 10.5359 13.3188 10.1217 13.3188V13.3188Z" fill="#62CCB6"/>
</svg>
