<svg width="51" height="309" viewBox="0 0 51 309" fill="none" xmlns="http://www.w3.org/2000/svg">
<path d="M50.3418 272.095L38.4473 275.718V293.936L50.3418 297.559V308.975L0.166016 291.338V278.384L50.3418 260.679V272.095ZM29.5605 278.248L17.9395 281.871C17.1647 282.098 16.1735 282.406 14.9658 282.793C13.7354 283.158 12.4935 283.534 11.2402 283.921C9.96419 284.286 8.85905 284.582 7.9248 284.81C8.85905 285.038 10.0212 285.357 11.4111 285.767C12.7783 286.154 14.0771 286.53 15.3076 286.895C16.5381 287.26 17.4154 287.522 17.9395 287.681L29.5605 291.27V278.248ZM50.3418 254.356H0.371094V243.76H41.5918V223.492H50.3418V254.356ZM50.3418 214.776H0.371094L0.371094 204.18H41.5918V183.912H50.3418V214.776ZM50.3418 137.735V148.331H9.18945V161.9H0.371094V124.166H9.18945V137.735H50.3418ZM20.9473 100.923L0.371094 90.4985V79.0825L30.8936 95.6597H50.3418V106.187H31.2354L0.371094 122.764V111.28L20.9473 100.923ZM0.371094 56.8315C0.371094 50.383 1.76107 45.6776 4.54102 42.7153C7.29818 39.7531 11.1035 38.272 15.957 38.272C18.1445 38.272 20.2409 38.6024 22.2461 39.2632C24.2285 39.924 25.9945 41.0063 27.5439 42.5103C29.0934 43.9914 30.3239 45.9738 31.2354 48.4575C32.124 50.9412 32.5684 54.006 32.5684 57.6519V62.1978H50.3418V72.7935H0.371094V56.8315ZM9.05273 57.3784V62.1978H23.8867V58.7114C23.8867 56.729 23.6247 55.0086 23.1006 53.5503C22.5765 52.092 21.7562 50.964 20.6396 50.1665C19.5231 49.369 18.0876 48.9702 16.333 48.9702C13.8721 48.9702 12.0492 49.6538 10.8643 51.021C9.65658 52.3882 9.05273 54.5073 9.05273 57.3784ZM50.3418 0.059082V28.8384H0.371094L0.371094 0.059082H9.05273V18.2427H20.0244V1.32373H28.7061V18.2427H41.5918V0.059082H50.3418Z" fill="white" fill-opacity="0.3"/>
</svg>
