<svg width="133" height="781" viewBox="0 0 133 781" fill="none" xmlns="http://www.w3.org/2000/svg">
<path d="M58.2871 726.245V675.268H124.908C127.135 682.006 128.922 689.008 130.27 696.274C131.559 703.54 132.203 711.772 132.203 720.971C132.203 733.745 129.684 744.584 124.645 753.491C119.605 762.397 112.164 769.165 102.32 773.793C92.4766 778.422 80.377 780.737 66.0215 780.737C52.5449 780.737 40.8848 778.159 31.041 773.002C21.1973 767.788 13.5801 760.2 8.18945 750.239C2.79883 740.219 0.103516 728.002 0.103516 713.588C0.103516 706.792 0.835937 700.083 2.30078 693.461C3.76562 686.84 5.66992 680.834 8.01367 675.444L29.8105 684.497C27.8184 688.422 26.1484 692.905 24.8008 697.944C23.4531 702.983 22.7793 708.256 22.7793 713.764C22.7793 721.674 24.5957 728.559 28.2285 734.418C31.8613 740.219 36.959 744.731 43.5215 747.954C50.0254 751.118 57.7012 752.7 66.5488 752.7C74.9277 752.7 82.3691 751.557 88.873 749.272C95.3184 746.987 100.387 743.383 104.078 738.461C107.711 733.54 109.527 727.124 109.527 719.213C109.527 715.346 109.352 712.094 109 709.458C108.59 706.762 108.18 704.243 107.77 701.899H80.9629V726.245H58.2871ZM130.445 565.932L99.8594 575.249V622.094L130.445 631.411V660.766L1.42188 615.415L1.42187 582.104L130.445 536.577V565.932ZM77.0078 581.752L47.125 591.069C45.1328 591.655 42.584 592.446 39.4785 593.442C36.3145 594.379 33.1211 595.346 29.8984 596.342C26.6172 597.28 23.7754 598.042 21.373 598.627C23.7754 599.213 26.7637 600.034 30.3379 601.088C33.8535 602.084 37.1934 603.051 40.3574 603.989C43.5215 604.926 45.7773 605.6 47.125 606.01L77.0078 615.239V581.752ZM130.445 520.317H1.94922V493.071H107.945V440.952H130.445V520.317ZM130.445 418.54H1.94922V391.293H107.945V339.174H130.445V418.54ZM130.445 242.758V316.762H1.94922V242.758H24.2734V289.516H52.4863V246.01H74.8105V289.516H107.945V242.758H130.445ZM1.94922 178.422C1.94922 166.762 3.35547 157.153 6.16797 149.594C8.98047 141.977 13.2285 136.323 18.9121 132.631C24.5957 128.94 31.7734 127.094 40.4453 127.094C46.3047 127.094 51.4316 128.208 55.8262 130.434C60.2207 132.661 63.9414 135.59 66.9883 139.223C70.0352 142.856 72.5254 146.782 74.459 151L130.445 113.208V143.442L81.1387 174.116V188.618H130.445V215.864H1.94922V178.422ZM24.2734 180.356V188.618H58.9902V179.829C58.9902 170.805 57.4961 164.36 54.5078 160.493C51.4609 156.567 47.0078 154.604 41.1484 154.604C35.0547 154.604 30.7187 156.713 28.1406 160.932C25.5625 165.092 24.2734 171.567 24.2734 180.356ZM54.8594 57.0454L1.94922 30.2388V0.883301L80.4355 43.5103H130.445V70.5806H81.3145L1.94922 113.208V83.6763L54.8594 57.0454Z" fill="white" fill-opacity="0.3"/>
</svg>
