<svg width="1314" height="293" viewBox="0 0 1314 293" fill="none" xmlns="http://www.w3.org/2000/svg">
<path d="M149.153 44.641C146.374 32.0646 137.746 29.2861 126.486 36.598C117.858 42.2281 108.645 45.6647 98.4813 39.1571C96.0446 38.4855 93.4471 38.7193 91.1694 39.8152C86.419 42.1253 81.5359 44.1518 76.5457 45.8841C58.7778 49.3937 40.425 52.3185 22.5841 56.4131C16.9134 57.1171 11.6514 59.7308 7.66438 63.8242C3.67734 67.9176 1.20291 73.2465 0.648438 78.9337V90.2671C3.42695 91.1445 5.25492 93.923 8.47214 99.6994C9.63752 101.885 10.687 104.13 11.6162 106.426L22.2185 116.078L24.8507 113.884C21.926 106.573 18.9281 99.2607 15.9303 91.9488C15.8896 89.0184 16.4365 86.1095 17.5389 83.394C18.5449 80.8805 20.0076 78.5749 21.8529 76.5939C39.0358 65.7723 58.4122 63.725 79.9091 61.9702C78.9586 65.9917 78.5199 68.5508 77.7156 71.0369L76.9844 73.2304L63.0918 113.738C62.6355 115.202 62.0481 116.621 61.337 117.979V117.979L57.5348 128.947C55.9262 134.504 54.6832 139.549 52.9283 144.448C52.4896 145.545 50.2961 145.91 49.053 146.788C46.4939 148.762 42.253 150.517 41.7412 153.003C39.4745 163.605 38.3046 174.5 36.6228 185.321C35.4529 192.633 40.4981 194.242 45.982 195.485C51.466 196.728 54.6101 192.78 55.9262 188.173C62.7994 163.532 69.1607 138.818 76.4726 114.396C81.3715 97.9446 87.6597 81.9316 93.1436 65.6992C93.6862 63.5109 94.9777 61.5815 96.7941 60.2459C98.6105 58.9103 100.837 58.2528 103.088 58.3874C116.322 57.2175 129.411 55.2432 142.499 53.5615C148.275 52.9766 150.396 49.9787 149.153 44.641Z" fill="#91DBCC"/>
<path d="M398.778 64.6013C387.153 71.9131 377.501 78.2013 367.776 84.1971C356.077 91.509 357.393 102.696 359.367 114.176C343.428 110.008 336.627 89.7541 347.961 81.1992C363.802 69.5667 380.279 58.8259 397.316 49.027C401.411 46.4678 404.628 44.7861 404.628 39.3022C404.628 37.6205 405.798 34.4032 406.602 34.4032C407.644 34.317 408.692 34.4551 409.676 34.8083C410.66 35.1614 411.556 35.7215 412.305 36.4506C415.376 41.642 419.179 40.5452 423.931 39.4484C432.361 37.3335 440.985 36.084 449.669 35.7194C454.518 36.4901 459.067 38.5623 462.83 41.7151C466.267 43.9595 469.245 46.8381 471.605 50.1969C473.652 53.0853 474.774 56.5276 474.822 60.0679C474.951 72.7054 471.313 85.095 464.372 95.6564C457.431 106.218 447.501 114.472 435.85 119.367C440.822 122.95 445.501 125.948 449.669 129.458C456.222 134.597 462.426 140.167 468.241 146.129C475.553 154.172 475.553 159.875 470.435 169.307C468.461 173.109 468.095 177.862 465.901 181.518C464.199 184.94 461.427 187.713 458.005 189.415C451.462 191.986 444.55 193.491 437.531 193.875C420.129 194.387 402.654 193.875 385.251 193.436C382.034 193.436 376.697 189.269 376.404 186.636C376.141 184.188 376.368 181.712 377.071 179.352C377.774 176.992 378.939 174.796 380.499 172.89C382.402 171.962 384.513 171.541 386.627 171.669C388.741 171.797 390.786 172.47 392.563 173.621C402.069 184.882 414.499 182.688 426.271 182.03C434.39 181.408 442.412 179.862 450.181 177.423C459.174 174.718 461.222 168.43 456.615 160.387C455.426 158.146 453.841 156.139 451.936 154.464C439.359 144.959 426.856 135.307 413.768 126.533C408.59 124.062 403.107 122.292 397.462 121.268C403.604 108.911 409.673 106.645 421.518 110.154C426.607 111.078 431.855 109.976 436.142 107.083C451.57 95.1649 457.566 77.8358 459.979 59.3367C460.71 53.9259 458.078 50.8549 452.082 51.2937C448.134 51.2937 444.112 51.2937 440.237 51.2937C424.882 53.4872 414.353 58.6055 409.234 76.6659C400.168 109.642 386.421 141.303 374.357 173.402C370.701 183.2 364.559 190.585 352.421 190.219C351.573 190.218 350.732 190.07 349.935 189.781C349.529 189.608 349.175 189.331 348.911 188.976C351.032 177.57 352.421 166.163 355.565 155.268C356.443 152.198 362.877 150.662 366.167 148.395C368.507 146.933 372.163 145.836 372.968 143.716C381.742 119.66 390.15 95.5305 398.486 71.4013C398.83 69.152 398.928 66.8718 398.778 64.6013Z" fill="#91DBCC"/>
<path d="M931.741 136.187C921.066 150.226 910.464 164.411 899.496 178.303C895.735 182.809 891.628 187.014 887.212 190.88C883.19 194.609 878.657 198.191 873.246 193C871.026 191.263 869.507 188.783 868.97 186.015C868.432 183.248 868.912 180.379 870.321 177.938C875.317 163.061 879.203 147.835 881.947 132.385C883.336 125.877 883.483 119.077 884.36 110.449L869.151 120.612C869.894 114.559 872.538 108.898 876.704 104.444C880.869 99.9893 886.34 96.9716 892.33 95.8252C899.642 95.8252 902.42 98.7499 901.47 105.331C899.13 120.344 896.693 135.309 894.158 150.226C892.376 158.059 891.082 165.995 890.283 173.989C896.059 166.677 902.274 160.243 907.466 152.785C919.018 136.26 932.18 120.539 937.517 100.359C937.883 98.8962 941.685 96.7757 942.197 97.1413C945.926 100.066 950.898 102.918 952.287 106.866C953.044 111.593 952.539 116.436 950.825 120.905C941.978 160.097 933.13 199.288 916.898 236.359C910.49 252.726 900.868 267.643 888.601 280.231C882.261 286.3 874.199 290.26 865.521 291.569C856.842 292.878 847.971 291.472 840.123 287.542C832.065 282.954 824.474 277.591 817.456 271.529C815.555 269.921 815.629 265.899 814.824 262.975C817.558 263.05 820.267 263.517 822.867 264.364C826.596 266.265 829.667 269.409 833.323 271.676C851.822 282.424 867.323 280.084 881.801 264.364C896.425 247.233 907.197 227.16 913.388 205.503C920.7 182.836 926.769 159.731 933.423 136.845L931.741 136.187Z" fill="#91DBCC"/>
<path d="M1039.44 175.158C1058.67 176.401 1077.98 178.082 1097.35 178.594C1101.3 178.594 1105.47 174.28 1110 171.648C1112.77 173.832 1114.86 176.76 1116.02 180.087C1117.19 183.415 1117.38 187.005 1116.58 190.439C1114.93 193.884 1112.05 196.586 1108.5 198.02C1104.96 199.453 1101.01 199.514 1097.43 198.19C1073.32 192.087 1048.37 189.963 1023.58 191.902C1020.47 192.594 1017.52 193.859 1014.87 195.631C1011.58 197.313 1008.44 199.214 1005.22 200.968C1002.77 197.042 1000.9 192.781 999.666 188.319C999.847 186.627 1000.36 184.988 1001.18 183.495C1001.99 182.002 1003.09 180.685 1004.42 179.618C1006.7 177.942 1009.49 177.092 1012.32 177.205C1022.41 177.205 1025.11 171.428 1028.18 162.581C1039.08 132.164 1050.56 101.893 1063.43 72.2795C1069.42 60.5127 1076.79 49.4933 1085.36 39.4492C1087.73 36.2087 1091.2 33.9446 1095.11 33.0828C1099.03 32.2209 1103.13 32.8208 1106.64 34.7696C1111.46 36.8169 1117.17 36.8169 1121.92 39.0105C1125.21 40.4729 1130.11 44.4213 1129.82 46.7611C1127.84 62.2622 1125.06 77.6903 1121.63 92.899C1120.46 98.1635 1109.64 99.5528 1105.83 95.4581C1104.81 94.3614 1105.32 91.5828 1105.83 89.6818C1108.39 78.2021 1111.46 66.8687 1113.59 55.316C1113.74 53.7369 1113.51 52.1445 1112.93 50.6699C1112.34 49.1953 1111.41 47.8807 1110.22 46.8342C1108.67 46.3977 1107.04 46.3564 1105.46 46.714C1103.89 47.0716 1102.44 47.8167 1101.23 48.8815C1092.32 57.8007 1084.56 67.7979 1078.12 78.6408C1067.3 100.576 1058.67 124.048 1049.39 147.007C1045.88 156.293 1042.81 165.652 1039.44 175.158Z" fill="#91DBCC"/>
<path d="M216.28 149.64C215.516 152.146 214.563 154.591 213.428 156.952C206.994 168.212 200.194 179.253 193.832 190.514C191.419 194.754 189.007 197.24 183.815 194.828C182.676 194.516 181.62 193.958 180.721 193.192C179.823 192.427 179.104 191.472 178.615 190.398C178.127 189.323 177.881 188.154 177.895 186.973C177.909 185.793 178.183 184.63 178.697 183.567C185.57 161.632 191.858 139.696 198.219 117.76C198.974 114.274 198.51 110.635 196.903 107.451C193.249 110.086 189.78 112.968 186.52 116.079C168.6 135.686 154.424 158.411 144.697 183.129C143.307 186.565 142.942 192.561 136.727 190.44C135.332 190.137 134.011 189.562 132.84 188.746C131.669 187.931 130.67 186.892 129.902 185.689C129.135 184.486 128.612 183.143 128.365 181.737C128.118 180.332 128.152 178.891 128.464 177.498C138.116 126.754 150.4 76.887 173.871 30.4566C178.613 21.6856 184.145 13.3644 190.396 5.59625C191.249 4.32859 192.369 3.26332 193.679 2.4754C194.988 1.68747 196.454 1.19606 197.973 1.03574C199.493 0.875422 201.029 1.05009 202.474 1.54746C203.919 2.04483 205.237 2.8528 206.336 3.91452C211.308 7.7167 215.914 12.0307 220.959 16.0522L219.643 18.3189C217.669 18.3189 215.329 19.4157 213.721 18.6845C212.017 17.7723 210.136 17.238 208.207 17.1179C206.278 16.9978 204.345 17.2948 202.541 17.9887C200.737 18.6825 199.104 19.7569 197.753 21.1388C196.401 22.5206 195.363 24.1774 194.71 25.9964C185.838 41.0102 178.02 56.622 171.312 72.7192C162.245 97.0678 155.518 122.367 147.768 147.3L150.254 148.397C153.471 143.498 156.322 138.38 159.905 133.773C168.533 123.025 177.454 112.496 186.52 102.04C187.423 100.621 188.61 99.4041 190.005 98.4652C191.4 97.5264 192.974 96.8858 194.629 96.5838C196.283 96.2817 197.982 96.3247 199.619 96.7099C201.256 97.0952 202.796 97.8145 204.142 98.8226C207.38 100.243 209.994 102.789 211.5 105.988C213.006 109.188 213.301 112.824 212.331 116.225C209.918 129.679 207.14 143.133 204.508 156.66L213.794 148.178L216.28 149.64Z" fill="#91DBCC"/>
<path d="M1192.11 111.909C1191.01 111.909 1190.5 111.105 1189.99 111.178C1185.16 111.178 1179.24 112.348 1178.73 105.84C1178.73 104.085 1184.43 100.722 1187.94 100.064C1190.79 99.4935 1193.4 98.0906 1195.44 96.0335C1197.48 93.9764 1198.87 91.358 1199.42 88.5111C1205.64 71.0358 1212.58 53.8529 1219.31 36.5237C1220.67 33.1288 1222.2 29.8093 1223.92 26.5796C1237.59 0.622427 1244.46 2.23104 1267.79 18.6828C1269.1 19.6333 1269.54 21.8269 1270.35 23.5086C1268.37 23.9473 1266.25 25.2634 1264.5 24.8247C1247.53 20.8763 1245.71 21.1688 1237.81 36.085C1232.11 46.7603 1227.35 58.0206 1222.6 68.9884C1218.8 78.0552 1215.29 87.3412 1211.78 97.651L1237.08 102.038V105.987L1207.32 111.397C1192.7 156 1178.07 201.553 1175.44 249.884C1162.72 248.129 1157.23 241.622 1160.08 230.215C1168.2 197.824 1176.9 165.578 1185.16 133.187C1186.48 128.141 1186.55 122.804 1187.72 117.759C1188.09 116.004 1190.06 114.322 1192.11 111.909Z" fill="#91DBCC"/>
<path d="M788.212 107.158L774.831 117.76L771.907 114.982C776.946 108.368 782.548 102.203 788.651 96.556C790.332 95.1668 797.498 98.6764 800.642 101.601C801.978 103.062 802.993 104.785 803.623 106.662C804.252 108.538 804.482 110.525 804.298 112.496C802.763 121.709 799.765 130.629 797.498 139.257C807.15 127.851 816.655 116.079 826.746 104.818C831.571 99.4076 836.982 94.5087 845.83 99.1883C849.491 100.704 852.433 103.564 854.052 107.181C855.67 110.798 855.841 114.898 854.531 118.638C852.118 129.533 850.509 140.573 848.608 151.688L855.774 147.008L857.675 148.105C857.201 150.461 856.49 152.764 855.554 154.978C849.339 166.677 842.832 178.157 836.763 189.855C836.416 191.006 835.81 192.062 834.989 192.94C834.169 193.818 833.158 194.496 832.033 194.92C830.909 195.345 829.702 195.504 828.506 195.387C827.31 195.269 826.157 194.878 825.137 194.243C819.434 191.757 820.384 188.466 821.92 183.421C828.208 163.094 833.911 142.548 839.395 122.001C839.908 117.996 839.908 113.942 839.395 109.937L836.617 108.474C829.65 115.477 823.176 122.953 817.24 130.849C805.98 148.324 796.036 166.604 785.068 184.298C783.167 187.443 779.292 191.61 776.221 191.61C768.178 191.976 765.765 187.223 768.909 179.619C778.664 156.474 785.16 132.088 788.212 107.158V107.158Z" fill="#91DBCC"/>
<path d="M550.133 107.597L554.813 101.82C567.389 106.354 568.413 108.547 564.465 120.393C560.955 131.068 557.665 141.816 554.447 152.492C553.996 154.439 553.703 156.42 553.57 158.414L562.71 152.419L564.611 154.027L561.248 161.631C557.665 169.894 554.374 178.229 550.426 186.199C548.964 189.124 545.454 193.511 543.699 193.511C538.727 192.414 532.951 190.002 534.194 182.909C536.095 172.453 538.361 162.07 540.482 151.614C540.847 149.786 541.067 147.958 541.505 144.96C531.415 156.806 522.275 167.7 512.77 178.376C508.824 182.859 504.547 187.038 499.974 190.879C496.099 194.096 492.077 197.24 486.374 193.657C480.671 190.075 476.21 185.468 478.258 178.595C480.822 166.746 484.824 155.254 490.176 144.375C499.108 129.816 509.234 116.022 520.447 103.137C529.002 92.8999 533.609 93.4117 543.772 102.113L550.133 107.597ZM550.133 112.788C548.013 111.498 545.655 110.647 543.199 110.287C540.743 109.927 538.239 110.065 535.838 110.693C533.436 111.32 531.185 112.425 529.22 113.941C527.254 115.456 525.613 117.352 524.396 119.515C515.256 132.603 506.262 145.838 498.292 159.584C495.092 166.619 492.641 173.972 490.98 181.52L494.49 183.421C517.387 163.746 536.173 139.743 549.768 112.788H550.133Z" fill="#91DBCC"/>
<path d="M596.784 161.118L607.167 152.563L609.287 153.953C608.191 156.512 607.094 158.998 605.924 161.264C602.487 168.576 598.612 176.546 595.541 184.224C593.859 187.953 595.541 194.241 588.229 193.583C584.958 192.96 582.062 191.08 580.162 188.346C578.262 185.612 577.509 182.242 578.066 178.959C579.82 168.723 581.722 158.486 583.988 148.322C592.412 105.141 606.654 63.301 626.324 23.9475C629.873 17.5565 634.01 11.5103 638.681 5.88717C639.559 4.49431 640.74 3.31711 642.136 2.4429C643.531 1.56869 645.105 1.01992 646.742 0.837309C648.378 0.654693 650.035 0.842917 651.589 1.38802C653.143 1.93312 654.554 2.8211 655.718 3.98608C660.617 7.86137 665.296 12.0291 670.341 16.1238L669.391 18.3905C667.417 18.3905 665.077 19.4141 663.468 18.3905C661.749 17.5014 659.861 16.9856 657.928 16.8767C655.996 16.7678 654.062 17.0683 652.253 17.7586C650.445 18.4488 648.802 19.5133 647.434 20.8822C646.065 22.2511 645.001 23.8937 644.311 25.7023C637.555 36.7422 631.404 48.1411 625.885 59.8488C611.659 92.1372 601.87 126.203 596.784 161.118V161.118Z" fill="#91DBCC"/>
<path d="M762.689 123.976C760.253 146.532 751.708 167.995 737.975 186.054C728.908 197.314 718.452 197.679 700.172 191.318C688.985 187.443 684.891 178.449 687.011 164.41C690.089 142.051 698.6 120.787 711.798 102.479C712.536 100.944 713.635 99.6102 715.002 98.5932C716.368 97.5762 717.961 96.906 719.644 96.6399C721.326 96.3739 723.048 96.5201 724.662 97.0658C726.275 97.6116 727.732 98.5407 728.908 99.7735C731.545 101.551 734.78 102.209 737.902 101.601C753.915 96.7025 762.908 103.503 762.689 123.976ZM748.869 107.597C738.998 111.399 731.394 114.032 724.009 117.249C721.157 118.492 717.575 120.393 716.697 122.879C711.055 137.509 706.174 152.42 702.073 167.555C700.392 174.208 700.392 183.275 709.385 186.419C718.379 189.563 722.766 183.275 727.153 177.791C737.144 164.165 743.646 148.299 746.091 131.58C747.7 124.341 747.919 116.956 748.869 107.597V107.597Z" fill="#91DBCC"/>
<path d="M1289 155.416C1273.79 164.921 1263.33 181.958 1243.37 186.711C1241.89 173.209 1243.75 159.549 1248.78 146.934C1256.07 148.007 1263.48 147.859 1270.72 146.496L1274.23 145.179L1276.2 144.448C1278.81 143.412 1281.27 142.035 1283.51 140.354C1285.59 138.775 1287.48 136.959 1289.14 134.943V110.009C1289.14 96.2629 1289.14 96.2629 1274.96 98.6759C1273.85 98.8465 1272.71 98.7204 1271.67 98.3103C1264.36 95.1662 1260.12 99.0415 1256.61 104.014C1251.12 111.764 1246.22 120.027 1241.1 128.143L1233.79 146.715V148.689C1232.58 156.757 1230.77 164.725 1228.38 172.526C1224.43 185.102 1234.74 188.466 1241.62 193.95C1242.93 195.168 1244.48 196.109 1246.16 196.716C1247.85 197.323 1249.64 197.583 1251.43 197.48C1253.22 197.378 1254.97 196.915 1256.57 196.12C1258.18 195.325 1259.61 194.214 1260.77 192.853C1270.35 183.42 1279.49 173.476 1288.63 163.605C1289.81 161.664 1290.65 159.538 1291.12 157.317L1289 155.416ZM1271.89 107.45L1274.67 108.693C1274.67 115.566 1275.03 122.513 1274.67 129.313C1274.67 130.994 1271.08 133.627 1269.04 133.7C1263.95 133.58 1258.88 132.992 1253.9 131.945L1271.89 107.45Z" fill="#91DBCC"/>
<path d="M227.821 135.673C230.847 132.283 233.703 128.745 236.376 125.07C241.787 116.881 246.54 108.253 252.097 100.21C253.536 98.1311 255.614 96.5781 258.015 95.7864C260.417 94.9948 263.011 95.0076 265.404 95.823C271.196 96.1318 277.003 95.6397 282.66 94.3606C283.289 105.1 283.289 115.867 282.66 126.606C282.166 129.577 281.086 132.421 279.483 134.971C277.881 137.522 275.787 139.729 273.325 141.463C270.862 143.198 268.079 144.426 265.138 145.076C262.197 145.727 259.156 145.786 256.191 145.251L241.568 143.277C240.032 155.342 238.204 167.041 237.034 178.813C236.522 183.492 239.74 185.174 243.542 182.542C252.755 176.254 261.748 169.527 270.742 162.8C274.91 159.656 278.858 156.073 282.953 152.636L285.439 154.318C285.051 156.517 284.258 158.625 283.099 160.533C274.252 170.331 265.404 180.202 255.899 189.415C253.688 192.261 250.442 194.118 246.868 194.584C243.295 195.05 239.681 194.085 236.815 191.901C229.503 186.344 219.12 182.761 222.557 169.965C224.531 162.653 226.286 154.684 227.602 146.933C228.014 143.194 228.088 139.425 227.821 135.673V135.673ZM245.589 135.673C255.095 136.916 262.114 138.817 267.525 131.724C269.641 127.37 270.617 122.55 270.361 117.716C270.105 112.882 268.626 108.192 266.062 104.085L245.589 135.673Z" fill="#91DBCC"/>
<path d="M675.461 159.657C675.461 186.418 650.893 201.773 630.054 191.025C625.772 188.798 622.309 185.268 620.166 180.943C618.024 176.618 617.313 171.724 618.136 166.968C621.248 145.756 628.717 125.416 640.072 107.23C646.799 96.6283 649.431 96.2627 661.569 99.9186C664.836 100.467 668.172 100.467 671.44 99.9186C679.263 99.4068 683.066 102.185 682.554 109.863C681.907 117.664 680.71 125.409 678.971 133.041C678.093 137.063 675.681 140.353 670.489 138.233C665.298 136.112 662.3 134.138 665.225 127.996C666.817 124.392 667.734 120.525 667.93 116.59C667.93 114.177 666.979 109.863 665.59 109.278C662.402 108.65 659.096 109.06 656.158 110.448C654.015 111.791 652.273 113.685 651.113 115.932C640.423 131.926 633.844 150.31 631.956 169.454C631.776 172.263 632.072 175.081 632.833 177.79C635.1 187.076 641.534 189.928 649.138 184.078C655.521 178.537 661.576 172.629 667.272 166.383C669.612 164.702 671.878 162.874 675.461 159.657Z" fill="#91DBCC"/>
<path d="M1129.6 116.955C1134.29 110.483 1139.66 104.527 1145.61 99.187C1151.39 95.0193 1162.72 104.378 1161.26 111.983C1158.77 124.632 1155.26 137.063 1152.12 149.566C1151.39 152.491 1150.37 155.342 1149.2 159.071L1156.95 152.71L1158.85 154.099C1157.68 156.731 1156.58 159.364 1155.19 161.85C1150.15 170.917 1144.66 179.764 1139.98 188.977C1136.91 195.192 1132.67 195.192 1127.63 192.706C1122.58 190.22 1123.9 186.783 1125.5 182.469C1130.92 167.846 1136.18 153.222 1140.64 138.598C1143.35 129.604 1144.59 120.099 1147.07 108.034L1132.45 119.441L1129.6 116.955Z" fill="#91DBCC"/>
<path d="M1148.25 76.2299C1154.24 70.5997 1159.43 65.1889 1165.14 60.3631C1170.84 55.5373 1174.28 60.3631 1177.35 63.7265C1178.59 64.9696 1177.86 70.0879 1176.32 72.0621C1174.89 74.3415 1172.97 76.2834 1170.71 77.7551C1168.46 79.2268 1165.91 80.1936 1163.24 80.5893C1160.58 80.9851 1157.86 80.8004 1155.27 80.048C1152.68 79.2956 1150.28 77.9932 1148.25 76.2299V76.2299Z" fill="#91DBCC"/>
<path d="M1298.44 140.28L1300.41 139.549C1303.02 138.513 1305.48 137.136 1307.72 135.454C1309.8 133.876 1311.69 132.06 1313.35 130.044" fill="#91DBCC"/>
</svg>
