<svg width="161" height="62" viewBox="0 0 161 62" fill="none" xmlns="http://www.w3.org/2000/svg">
<path d="M159.293 28.1811L157.39 28.9165L159.565 29.5429L159.375 29.7445C159.426 30.0578 159.437 30.3763 159.407 30.6924C159.358 31.0469 159.205 31.3788 158.967 31.6457C158.478 32.0294 157.958 32.3719 157.412 32.6698C157.157 32.8278 156.869 32.9586 156.488 33.1656C157.516 33.5523 158.407 33.8629 159.271 34.2224C159.533 34.3212 159.75 34.5132 159.88 34.7617C159.929 34.8924 159.695 35.2084 159.516 35.3391C159.021 35.6932 158.489 35.9929 157.804 36.4287H158.923C157.967 38.1555 156.086 38.0629 154.575 38.891C155.118 38.9618 155.472 38.9999 155.825 39.0598C156.11 39.0573 156.388 39.1449 156.621 39.3102C156.853 39.4755 157.027 39.7101 157.119 39.9805C157.154 40.113 157.218 40.2362 157.305 40.3417C157.393 40.4471 157.502 40.5323 157.625 40.5914C157.749 40.6504 157.884 40.6819 158.02 40.6837C158.157 40.6854 158.293 40.6574 158.418 40.6015C158.826 40.5468 159.239 40.5468 159.646 40.6015L159.434 40.8139C159.608 41.3587 159.809 41.849 159.945 42.3828C159.969 42.4879 159.969 42.5969 159.947 42.7022C159.924 42.8075 159.879 42.9067 159.815 42.993C159.34 43.4026 158.813 43.7487 158.249 44.0226C156.961 44.5673 155.629 45.0358 154.319 45.5424C154.168 45.6226 154.022 45.7136 153.884 45.8148L154.466 46.109L153.525 46.6537C153.96 46.8117 154.243 46.9315 154.537 47.0133C155.243 47.2094 156.167 47.1876 156.619 47.6288C157.608 48.544 158.989 48.653 160 49.481C158.913 50.5705 158.94 50.9736 160.076 51.5783L157.929 53.0219C159.13 53.899 160.217 54.7869 160.13 56.3667C158.293 56.4484 156.472 56.5465 154.656 56.601C152.634 56.6609 150.606 56.6663 148.584 56.7208C147.676 56.748 146.774 56.8679 145.866 56.8788C145.393 56.8788 144.926 56.6827 144.447 56.6663C142.148 56.6064 139.843 56.5465 137.538 56.5465C130.232 56.5465 122.93 56.5737 115.631 56.6282C111.212 56.6282 106.792 56.7099 102.373 56.7045C100.383 56.7045 98.3935 56.5628 96.393 56.5465C95.0231 56.5465 93.675 56.6445 92.2834 56.6554C91.7398 56.6554 91.5332 56.8842 91.5441 57.4235C91.5441 58.5512 91.5441 59.6843 91.5441 60.8174H91.3104C91.2563 60.6392 91.2164 60.4571 91.1908 60.2726C91.1908 59.815 91.1908 59.3574 91.1581 58.8998C91.0875 57.0531 90.9353 56.9169 89.0816 56.9278C87.2279 56.9387 87.3094 56.9278 87.1953 58.7364C87.1013 59.4438 86.9541 60.1431 86.755 60.8283L86.4016 60.7629C86.3964 60.5436 86.4333 60.3254 86.5104 60.1201C87.054 59.2648 86.7604 58.366 86.668 57.4835C86.668 57.3091 86.5104 57.015 86.4071 57.0041C85.5644 56.9052 84.7169 56.8524 83.8685 56.8461C83.6782 56.8461 83.4879 57.1348 83.227 57.3527C82.4931 56.2632 81.3625 57.0095 80.3296 56.8407L80.1937 57.6741C79.8458 57.3473 79.8839 56.5247 79.2424 56.857L80.0143 60.1637L80.1067 60.2018L80.2481 58.3006C80.6775 58.9489 80.8678 60.4796 80.4764 60.7792C80.0875 60.9515 79.6676 61.0424 79.2424 61.0462V57.8212H79.0467L78.639 58.366L78.4107 58.3278L78.5847 56.808C78.2309 56.6558 77.8355 56.6312 77.4658 56.7385C77.096 56.8458 76.7749 57.0783 76.557 57.3963C76.3831 57.6469 76.4864 58.0827 76.4646 58.4313H76.6712L76.9593 57.8866C77.1387 58.8889 76.8343 59.9022 77.8127 60.7956C78.0084 60.2018 78.1335 59.7388 78.3129 59.303C78.4206 59.1047 78.5541 58.9215 78.7097 58.7582C78.813 58.987 79.0413 59.2485 78.9869 59.4282C78.8699 59.9178 78.6368 60.3719 78.3074 60.752C78.1373 60.8465 77.9476 60.9002 77.7533 60.9087C77.5589 60.9172 77.3653 60.8803 77.1876 60.801C76.856 60.6539 76.22 60.4687 76.644 59.7769C76.7201 59.6516 76.5027 59.3574 76.4266 59.1395C76.3624 58.9899 76.3185 58.8323 76.2961 58.671C76.2961 58.415 76.3233 58.159 76.3233 57.9029C76.3423 57.6621 76.2939 57.4207 76.1834 57.206C76.0729 56.9913 75.9047 56.8118 75.6979 56.6878C75.491 56.5638 75.2537 56.5001 75.0126 56.504C74.7716 56.5079 74.5365 56.5792 74.3337 56.7099C74.2677 56.7539 74.2121 56.8118 74.1708 56.8795C74.1295 56.9473 74.1035 57.0232 74.0945 57.1021C74.0945 57.8594 74.0945 58.622 74.0945 59.3847H74.3283L74.5457 58.6166L74.7794 61.3403C73.9423 60.7683 73.9586 60.0547 73.8608 59.3847C73.7629 58.7146 73.6596 58.0337 73.5564 57.3636C72.5018 57.429 72.2463 58.0827 72.7083 59.657L72.9366 58.9053H73.0345C73.0345 59.45 73.0725 60.0275 73.0345 60.5831C73.0345 60.7683 72.7627 60.9263 72.6159 61.0952C72.5018 60.9263 72.2898 60.7575 72.2898 60.5886C72.2626 59.4991 72.2898 58.4096 72.2898 57.32C72.2898 57.1621 72.2517 56.9986 72.2137 56.6663L71.8984 57.2111L71.5831 56.7045L71.2732 57.5271L70.7677 57.0749L70.5665 57.8212L70.3219 57.0422H70.061L70.273 59.766H70.1154L69.7566 56.9278H69.338L69.2836 60.7901H68.9249L68.7074 59.5481L68.3541 60.4415C68.3106 59.7006 68.2562 59.1995 68.2617 58.6983C68.2671 58.1971 68.3432 57.8485 68.3867 57.429L67.9518 57.3963L67.7072 60.4306L66.7831 60.5613L66.4134 60.2672L66.1634 60.387C66.0927 59.4282 66.022 58.4695 65.9677 57.5107C65.9188 56.6881 65.5926 56.3558 64.6794 56.3667C58.2069 56.4212 51.7326 56.4357 45.2565 56.4103C35.9555 56.3667 26.6599 56.2741 17.3589 56.1924C14.1897 56.1924 11.0205 56.1924 7.85676 56.0617C5.51384 55.9527 3.18179 55.5877 0.844309 55.3208C0.23004 55.25 0.213732 54.9068 0.561636 54.5037C0.725384 54.3471 0.907997 54.2117 1.10524 54.1005C1.23987 54.0193 1.35534 53.9098 1.44369 53.7796C1.53204 53.6494 1.59116 53.5015 1.617 53.3462C1.64283 53.1908 1.63476 53.0317 1.59333 52.8798C1.55191 52.7279 1.47811 52.5868 1.37704 52.4663C1.25167 52.3146 1.14236 52.1503 1.05088 51.976C0.881639 51.5809 0.668274 51.2062 0.414864 50.8592C0.643176 50.2055 1.20309 49.8242 1.84997 49.3775C2.7143 48.7837 3.94283 48.3425 4.10048 47.0242C4.10048 46.8771 3.9374 46.6483 3.78519 46.5448C3.54757 46.4419 3.29699 46.3723 3.04046 46.3378L3.75257 45.5424C2.56209 45.1829 1.21939 45.4444 0.170244 44.5673C0.751897 43.9299 1.02913 43.1509 1.93695 42.8077C2.56752 42.5626 3.02415 41.849 3.56775 41.3478C2.84476 40.5851 2.85563 40.6015 3.80693 40.2147C4.30161 40.0132 4.76367 39.7353 5.48666 39.3649C4.94306 39.2832 4.61146 39.2178 4.29617 39.196C3.98089 39.1742 3.69278 39.196 3.42098 39.196C3.37205 39.0435 3.32313 38.9781 3.33944 38.94C3.80693 37.6217 3.65472 37.3983 2.25223 37.1259C1.59448 37.0006 0.958465 36.7664 0.31158 36.5812V36.2216C0.599558 36.0861 0.879114 35.9333 1.14873 35.7641C1.48032 35.5407 1.76843 35.2574 2.08915 35.0177C2.40988 34.778 2.83932 34.473 3.29595 34.1734C3.08006 34.119 2.86006 34.0826 2.63819 34.0644C2.18432 34.1005 1.7287 34.1096 1.27375 34.0917C0.856491 33.9935 0.450311 33.853 0.0615234 33.6722C0.263473 33.2417 0.535346 32.8477 0.866053 32.5064C1.81735 31.8309 2.84476 31.2698 3.91565 30.6161L3.76888 29.9679L5.00285 29.799L5.03547 29.6464L0.920413 27.9468C1.35834 27.7829 1.7689 27.5533 2.13808 27.2659C2.34438 26.9327 2.48466 26.5628 2.55121 26.1764C2.27941 26.0511 2.12721 25.9693 1.96956 25.9149C0.882361 25.5335 1.01282 25.3701 1.42596 24.3296C2.05654 22.6954 3.51882 22.521 4.83434 21.9273L3.86673 21.5241L4.33966 20.4837C3.70908 19.8899 3.94283 19.2035 4.38315 18.6315C4.07873 17.2533 2.75235 17.6891 1.96956 17.1824C2.03479 17.0354 2.04567 16.9373 2.10546 16.8937C2.39283 16.7124 2.67045 16.516 2.93717 16.3054C2.6746 15.7696 2.34981 15.2668 1.96956 14.8073C1.47799 14.2966 0.960905 13.8111 0.4203 13.3528C1.0998 13.0423 1.58361 12.808 2.25223 13.3528C3.57318 14.3606 4.76911 15.6244 6.60104 15.8042C7.35981 15.893 8.0964 16.1181 8.77544 16.4688H6.48688C6.91328 17.1007 7.37234 17.7099 7.8622 18.2937C8.09051 18.5389 8.52539 18.5879 8.85155 18.7513C9.17771 18.9148 9.44407 19.0727 9.79741 19.2961L9.19402 20.3856C9.61259 20.5817 10.0203 20.7397 10.4008 20.9304C10.6291 21.0611 10.9933 21.3062 10.9716 21.4424C10.9333 21.5883 10.8653 21.7247 10.7717 21.8428C10.6781 21.961 10.5611 22.0583 10.428 22.1288C9.43864 22.6191 8.41123 23.0386 7.40557 23.4907C7.23982 23.5861 7.08006 23.6916 6.9272 23.8067L8.0144 23.8884L8.05245 24.0736L6.96525 24.5639L8.17205 24.9398L6.98156 25.5009C7.82414 25.7188 8.50908 25.8713 9.15596 26.0783C9.80285 26.2853 10.4443 26.5359 11.0857 26.7701L11.0531 27.1297L9.02006 27.7344C9.38971 28.7313 10.1453 28.6114 10.9825 28.5733C12.7927 28.497 14.6137 28.5733 16.4674 28.5733C16.6522 27.097 17.5981 26.5359 18.7233 26.2744C20.5227 25.8604 22.3546 25.5662 24.1593 25.1849C24.6697 25.0126 25.169 24.8089 25.6542 24.5748C25.888 24.4931 26.1978 24.395 26.3935 24.504C27.4155 25.1631 28.3505 24.8145 29.2203 24.2479C30.3618 23.5016 31.2316 23.7849 31.5088 25.0542C31.6393 25.6316 31.4273 25.9367 30.8619 26.0075C29.5356 26.1818 28.2092 26.3779 26.8774 26.4923C26.6525 26.4798 26.43 26.5441 26.2463 26.6747C26.0627 26.8053 25.9287 26.9945 25.8663 27.2114C25.3227 28.8457 24.6812 30.4799 24.1865 32.1414C23.4472 34.6146 22.8058 37.1205 22.1154 39.61C21.9741 40.1058 21.7621 40.5307 21.1097 40.3836C20.5661 40.2583 20.0225 40.1003 20.1584 39.3485C20.327 38.259 20.4466 37.1695 20.702 36.08C20.7564 35.8294 21.1859 35.6551 21.4468 35.4535C21.5718 35.3609 21.7947 35.3283 21.8327 35.2193C22.0121 34.7181 22.1426 34.2061 22.3002 33.645C20.8162 33.5469 19.3865 33.9664 18.0221 33.3399C17.5818 34.0481 13.6733 34.3422 12.8959 33.6504C12.809 33.8411 12.722 34.0208 12.7437 33.9827C12.0582 33.8059 11.3574 33.6946 10.6509 33.6504C9.76939 33.696 8.89405 33.8237 8.03615 34.0317C7.76435 34.0862 7.55778 34.4076 7.30229 34.5765C7.0852 34.7368 6.85414 34.8772 6.61191 34.9959C6.14442 35.2193 5.66605 35.4209 5.19855 35.6279L5.2366 35.8839L6.86741 36.4668C6.95216 38.139 6.92856 39.8149 6.79674 41.484C6.69889 42.1922 5.84544 42.8186 5.30184 43.4506C5.06355 43.6492 4.8004 43.8159 4.51905 43.9463C4.73654 44.0843 4.96574 44.2027 5.20399 44.3004C6.23683 44.6163 6.87828 45.1774 6.72607 46.3813C6.63909 47.0351 7.15008 46.986 7.58496 46.9969L18.756 47.2911C21.474 47.3674 24.23 47.4273 26.9643 47.4981C27.2361 47.4981 27.5079 47.5362 27.7689 47.558L27.8232 47.8195C27.4429 47.9971 27.0407 48.1235 26.6273 48.1954C24.6051 48.2662 22.5829 48.3098 20.5553 48.3098C18.8755 48.3098 17.1904 48.2008 15.5107 48.2117C12.4937 48.2117 9.47669 48.3098 6.4597 48.3806C6.11161 48.4035 5.76501 48.4454 5.42143 48.5059L5.38338 48.7565C5.68381 48.8649 5.97783 48.9904 6.26401 49.1324C6.43674 49.2541 6.59536 49.3948 6.73694 49.5518C6.5923 49.7019 6.42981 49.8336 6.25314 49.944C6.04412 50.0336 5.8251 50.0976 5.60082 50.1347C4.32879 50.4343 3.97001 51.2841 4.61146 52.4009C4.97567 53.0165 5.04091 53.4904 4.20376 53.7846C3.93918 53.9299 3.6974 54.1134 3.48621 54.3293L4.22551 55.0321C4.64032 54.9175 5.06741 54.8535 5.49753 54.8414C12.9177 55.6749 20.3704 55.5986 27.8123 55.7021C40.4782 55.8819 53.1496 55.9908 65.8155 56.0998C68.7509 56.0998 71.6918 55.9636 74.6272 55.9636C78.938 55.9636 83.2433 56.0453 87.5541 56.0453C92.9901 56.0453 98.4261 55.9582 103.9 55.9745C115.424 55.9745 126.949 56.1107 138.479 56.1107C144.692 56.1107 150.911 55.9745 157.124 55.8546C157.744 55.7879 158.346 55.603 158.896 55.3099C159.021 55.2554 159.092 54.6889 158.967 54.5309C158.666 54.1997 158.311 53.9217 157.918 53.7083C157.535 53.5176 157.139 53.3538 156.733 53.218C157.227 52.8694 157.57 52.597 157.945 52.3682C158.32 52.1394 158.69 51.9705 159.201 51.7091L158.402 51.1643V50.0149L159.114 49.6499C158.429 48.7183 157.445 48.8981 156.499 48.8218L156.624 48.0701L155.83 47.558V47.765C155.538 47.9113 155.227 48.0158 154.906 48.0755C153.689 48.1518 152.471 48.1572 151.253 48.2226C149.943 48.2934 148.638 48.4024 147.53 48.4841L148.475 48.6257L148.443 48.7565H143.55L143.518 48.5113L143.958 48.2608V48.1518C143.578 48.2172 143.056 48.1518 142.871 48.3752C142.273 49.018 141.713 48.6094 141.137 48.5931L141.05 48.3152C141.882 47.9393 142.713 47.5744 143.54 47.1876C143.703 47.1113 143.822 46.9207 143.991 46.8771C144.279 46.8063 144.687 46.6646 144.866 46.8008C145.145 47.0166 145.485 47.1385 145.837 47.1493C146.19 47.16 146.537 47.0591 146.828 46.8607C147.228 46.7043 147.666 46.6739 148.084 46.7736C148.481 46.8335 148.872 47.1985 149.247 47.1712C150.543 47.1045 151.838 47.3047 153.053 47.7596C153.548 47.8296 154.052 47.8296 154.547 47.7596L153.118 46.6701L153.205 46.4903C152.607 46.4903 152.009 46.523 151.411 46.4903C151.11 46.4268 150.819 46.3223 150.547 46.1798C150.786 45.8638 150.954 45.3899 151.275 45.2483C152.015 44.9583 152.774 44.7217 153.547 44.5401C154.281 44.3385 155.02 44.1478 155.76 43.9953C156.262 43.9441 156.759 43.8456 157.244 43.7011C157.866 43.3951 158.452 43.0186 158.989 42.5789C159.081 42.5081 158.945 42.1268 158.902 41.8871C158.858 41.6474 158.771 41.3424 158.662 40.8902H156.189C156.597 40.0676 156.222 39.8824 155.613 39.61C154.613 39.1579 153.612 39.3104 152.601 39.3213C152.147 39.3541 151.691 39.3541 151.237 39.3213C151.019 39.3213 150.829 39.1034 150.623 38.9836C150.781 38.8236 150.965 38.6911 151.166 38.5913C152.797 38.1773 154.428 37.7905 156.059 37.3874C156.184 37.3874 156.298 37.3003 156.379 37.0606L154.45 37.3874L154.325 37.0224C154.683 36.8436 155.058 36.7013 155.444 36.5975C156.81 36.3439 158.092 35.7585 159.179 34.8924C158.222 34.1687 157.051 33.7853 155.852 33.8029C154.74 33.8387 153.631 33.937 152.531 34.0971L152.417 33.852C152.871 33.5995 153.345 33.3863 153.835 33.2146C154.738 32.9695 155.684 32.8714 156.58 32.6045C157.119 32.3785 157.637 32.107 158.13 31.7928C158.945 31.3897 158.673 30.6597 158.548 30.0823C158.499 29.8371 157.934 29.7009 157.613 29.5048C156.608 28.9001 155.58 29.3414 154.558 29.4449C153.063 29.592 151.574 29.897 150.079 29.9188C147.231 29.957 144.377 29.8426 141.523 29.7881C141.26 29.766 140.998 29.7278 140.74 29.6737L140.702 29.3577C141.15 29.2028 141.613 29.0915 142.083 29.0254C145.861 28.8293 149.644 28.6659 153.428 28.4807C154.036 28.4807 154.645 28.4807 155.439 28.4807C154.928 27.5219 155.439 27.5382 155.928 27.4892C156.693 27.4434 157.453 27.334 158.2 27.1624C159.092 26.9336 158.788 26.0293 158.929 25.4409C159.108 24.6674 158.679 24.2098 157.798 24.1934C157.052 24.1794 156.315 24.028 155.624 23.7467L156.918 22.9187C155.178 22.1234 153.455 23.0168 151.781 22.6136C152.933 21.5732 154.585 22.0035 155.885 21.1537L154.292 20.9304C155.732 20.6743 157.233 20.9304 158.559 20.0206L156.82 19.9389V19.7918C157.217 19.7562 157.611 19.6925 157.999 19.6011C158.179 19.5521 158.309 19.3451 158.461 19.2035C158.32 19.0455 158.195 18.7731 158.037 18.7568C157.32 18.6696 156.597 18.6642 155.863 18.6097C155.129 18.5552 154.444 18.419 153.759 18.419C151.683 18.3918 149.606 18.419 147.53 18.2338H157.586L157.624 17.9233L156.233 17.542C155.662 17.3785 155.026 17.4929 154.602 16.861C154.422 16.5995 153.824 16.605 153.411 16.5451C152.868 16.4634 152.357 16.4361 151.781 16.3816L151.895 15.5264C151.971 15.488 152.051 15.4588 152.134 15.4392C153.765 15.254 155.423 15.0906 157.059 14.8672C157.325 14.8291 157.548 14.5022 157.787 14.3225C157.537 14.1699 157.293 13.8921 157.037 13.8867C153.678 13.8376 150.318 13.8594 146.959 13.8049C145.056 13.7723 143.154 13.5979 141.256 13.5489C137.832 13.4618 134.402 13.2439 130.993 13.4345C129.33 13.5326 127.732 13.2493 126.101 13.3092C125.139 13.3419 124.176 13.4835 123.214 13.4999C122.127 13.4999 120.996 13.4509 119.893 13.4073C119.349 13.4073 118.806 13.3038 118.262 13.2929C113.011 13.2003 107.765 13.1403 102.498 13.0205C100.073 12.966 97.6596 12.7917 95.2352 12.5684C96.4093 12.5684 97.5835 12.5684 98.7523 12.5684C100.057 12.5684 101.362 12.4921 102.661 12.5193C103.324 12.5193 103.987 12.7536 104.65 12.7645C108.7 12.8244 112.75 12.8407 116.8 12.8898C117.8 12.8898 118.795 13.0042 119.795 12.9933C120.133 12.9334 120.459 12.8155 120.757 12.6446C120.605 12.2524 120.562 11.7294 120.279 11.4952C119.485 10.8306 118.74 10.215 118.371 9.16363C118.056 8.25933 117.496 8.34105 116.822 9.30527C115.957 8.59164 115.501 6.78305 116.115 5.97136C116.332 5.76719 116.589 5.61081 116.87 5.51229C117.151 5.41378 117.449 5.37531 117.746 5.39937C118.593 5.55635 119.422 5.80099 120.219 6.12934L120.138 6.41261C119.561 6.24919 118.985 6.09665 118.414 5.91688C118.093 5.78816 117.741 5.76039 117.404 5.83727C117.067 5.91415 116.762 6.09203 116.528 6.34724C116.218 6.66865 116.169 7.83987 116.528 8.05777C116.658 8.11842 116.801 8.14616 116.944 8.13856C117.087 8.13096 117.226 8.08826 117.349 8.01419C118.001 7.43131 118.436 7.69279 118.898 8.25389C119.269 8.6769 119.66 9.08055 120.072 9.46324C120.453 9.84457 120.844 10.215 121.246 10.6127V9.33795C121.953 9.43601 122.41 10.7107 123.318 9.58854L124.872 10.6781L125.041 10.4819L124.171 9.39243C124.351 9.36917 124.534 9.36917 124.715 9.39243C125.568 9.71928 125.671 9.63757 125.753 8.74417C125.808 8.48433 125.928 8.24264 126.101 8.04143C126.251 7.87048 126.41 7.70858 126.579 7.5566C126.681 7.4044 126.77 7.24406 126.846 7.07721L125.932 7.62197L128.058 4.74021C128.357 4.33164 128.601 4.32075 128.911 4.74021C129.039 4.95984 129.205 5.15527 129.4 5.31765C130.151 5.86241 130.194 6.00949 129.515 6.63596C129.036 7.07721 128.427 7.39317 127.971 7.83987C127.514 8.28657 127.009 8.92938 126.509 9.47414C126.207 9.75577 125.892 10.0213 125.563 10.2695L125.758 10.8142C125.112 10.957 124.482 11.165 123.877 11.4353C123.486 11.6532 123.252 12.1543 122.948 12.5248C123.308 12.7441 123.703 12.8972 124.117 12.9769C134.412 13.1077 144.714 13.1894 155.01 13.3256C156.303 13.408 157.591 13.5553 158.869 13.7668C158.886 14.0958 158.786 14.4202 158.587 14.6825C158.388 14.9447 158.103 15.1279 157.782 15.1995C156.983 15.4011 156.151 15.57 155.368 15.7443C155.048 15.8205 154.732 15.9186 154.417 16.0058V16.3108C155.77 16.5893 157.105 16.9532 158.412 17.4003C158.956 17.6182 159.282 18.4136 159.663 18.9747C159.893 19.3697 160.099 19.7791 160.277 20.2004L157.162 21.8891L157.657 23.5234C158.131 23.6386 158.595 23.7935 159.043 23.9864C159.194 24.0642 159.325 24.1744 159.429 24.309C159.532 24.4437 159.605 24.5995 159.641 24.7654C159.601 25.5412 159.517 26.3142 159.391 27.0806C159.337 27.4021 159.337 27.7452 159.293 28.1811ZM17.5926 31.3243C17.4839 31.0955 17.397 30.8558 17.2719 30.6379C16.6522 29.5484 16.5652 29.5157 15.2878 29.7935C14.4316 29.993 13.5637 30.1385 12.6894 30.2293C11.1075 30.3546 9.51474 30.3873 7.92743 30.5017C7.67737 30.5017 7.44362 30.7741 7.20444 30.9157C7.43819 31.1064 7.64475 31.4006 7.91112 31.4605C8.46549 31.5938 9.03192 31.6705 9.60172 31.6893C10.1725 31.722 10.6291 31.8091 10.4606 32.6208C11.2108 32.5554 11.8522 32.4901 12.4937 32.4465C15.0649 32.2667 17.6144 32.8768 20.1856 32.6208C20.4961 32.6232 20.8023 32.6938 21.0826 32.8278C22.0556 33.1928 22.4959 33.0021 22.8167 32.0488C23.3059 30.5961 23.7933 29.1435 24.2789 27.6908C24.3605 27.4402 24.4094 27.1733 24.5073 26.7701C22.3328 26.9826 20.3704 27.195 18.6418 28.2846L18.6799 28.5134L21.6751 29.0145V29.4176L18.0547 29.8589L18.9625 32.0978L18.6962 32.3158L17.5926 31.3243ZM152.607 29.2651L152.569 29.178H145.594V29.2651H152.607ZM121.882 13.1785L122.627 12.3014L121.774 11.6477C121.632 11.8438 121.371 12.0454 121.382 12.2306C121.393 12.4158 121.622 12.71 121.882 13.1785ZM158.211 27.9196V27.5764L155.841 27.767C156.722 28.7966 157.467 28.0503 158.211 27.9196ZM147.165 47.7487V47.8958H150.335V47.7487H147.165Z" fill="black"/>
<path d="M56.1292 27.1681C54.9551 27.9144 53.9548 28.5409 52.9981 29.151C51.8185 29.8755 51.949 31.0195 52.1501 32.1798C50.5193 31.7604 49.8398 29.7067 50.9977 28.8078C52.5962 27.6273 54.2585 26.5362 55.977 25.5393C56.3956 25.2832 56.7435 25.1089 56.7055 24.5478C56.7055 24.3789 56.8251 24.063 56.9066 24.0575C57.0119 24.0473 57.1182 24.0606 57.2178 24.0964C57.3175 24.1322 57.4079 24.1896 57.4828 24.2645C57.7927 24.8093 58.1732 24.6786 58.6516 24.5696C59.5038 24.3514 60.3765 24.2236 61.2554 24.1883C61.743 24.2739 62.199 24.4883 62.5764 24.8093C62.9237 25.0371 63.2244 25.3292 63.4624 25.67C63.6707 25.9605 63.7829 26.3092 63.7831 26.6669C63.6418 29.3907 62.5003 31.4608 59.8475 32.6592C60.353 33.0297 60.8205 33.3293 61.2445 33.6888C61.9091 34.2219 62.5357 34.8008 63.12 35.4211C63.8429 36.2274 63.8321 36.8103 63.3374 37.7636C63.1363 38.1504 63.1036 38.6243 62.8862 39.0002C62.7107 39.3448 62.431 39.6251 62.0871 39.801C61.4261 40.0582 60.7292 40.2107 60.0214 40.2531C58.2602 40.3022 56.4935 40.2858 54.7322 40.2041C54.4223 40.2096 53.8787 39.7846 53.8787 39.5177C53.8256 39.0197 53.9701 38.5207 54.281 38.1286C54.4734 38.0326 54.6874 37.9887 54.9019 38.0011C55.1165 38.0136 55.324 38.0819 55.5041 38.1994C56.4663 39.3379 57.7166 39.1146 58.9125 39.0492C59.7325 38.988 60.5426 38.8308 61.3261 38.5807C62.2339 38.3138 62.4133 37.671 61.9675 36.8593C61.8523 36.6308 61.6935 36.4272 61.5 36.2601C60.228 35.3013 58.9668 34.3207 57.6459 33.4382C57.1304 33.1812 56.5814 32.9978 56.0151 32.8935C56.6348 31.6405 57.2436 31.4499 58.445 31.7604C58.7006 31.8092 58.9633 31.8069 59.2179 31.7537C59.4726 31.7004 59.7143 31.5971 59.929 31.4499C61.4892 30.246 62.1034 28.5027 62.3372 26.6233C62.4078 26.0786 62.1469 25.7572 61.5381 25.8062C61.1412 25.8389 60.7335 25.7735 60.3422 25.8062C58.7929 26.0296 57.722 26.5198 57.211 28.3775C56.2923 31.7114 54.9061 34.9145 53.6885 38.1831C53.3188 39.1745 52.6991 39.9263 51.5141 39.8881C51.4292 39.8843 51.3452 39.8696 51.264 39.8446C51.2237 39.8259 51.1883 39.7979 51.1607 39.7629C51.3301 38.6136 51.5569 37.4737 51.8402 36.3472C51.9272 36.0422 52.536 35.8842 52.9274 35.6554C53.1666 35.5029 53.5363 35.3885 53.6124 35.176C54.5039 32.7464 55.3465 30.3004 56.1945 27.8599C56.1973 27.6277 56.1755 27.3957 56.1292 27.1681Z" fill="black"/>
<path d="M70.6106 2.00045C69.7409 2.54521 69.268 3.13355 69.3006 4.14679C69.3767 6.48379 69.3441 8.82625 69.3006 11.1687C69.3006 11.915 69.5941 12.2201 70.3008 12.2146C70.7266 12.2411 71.1539 12.232 71.5783 12.1874C71.9826 12.0823 72.3758 11.9382 72.7524 11.757C73.2254 12.6886 74.2854 12.1547 75.1225 12.1547C75.5248 12.1547 75.9108 11.9586 76.3348 12.1874C76.487 12.2691 76.7262 12.1874 77.0523 12.1874V8.12351H77.1339C77.2969 9.43092 77.4655 10.7383 77.6503 12.1384L78.6125 12.1983V6.94684H78.8843V10.0302C78.8843 10.1173 78.8571 10.199 78.8516 10.2862C78.6614 12.0185 78.8245 12.2037 80.5694 12.2092H83.1515C83.1515 11.8932 83.2004 11.6208 83.195 11.3539C83.1678 8.55387 83.1352 5.75927 83.0809 2.95922C83.0809 2.69229 82.8417 2.41447 82.7927 2.15843C82.7437 1.75169 82.7183 1.34243 82.7166 0.932733C83.6081 1.30861 83.4994 1.94053 83.5103 2.4635C83.5103 3.63472 83.4777 4.8005 83.4668 5.97172C83.4469 6.25482 83.5215 6.53651 83.6788 6.77252C83.8528 5.98262 84.0213 5.19272 84.1898 4.40283H84.2713V10.9399H84.0539V8.16164H83.7767C83.7169 9.35466 83.6462 10.5531 83.6136 11.7461C83.6136 11.8932 83.793 12.1656 83.9126 12.1765C84.6177 12.2608 85.3285 12.2881 86.038 12.2582C86.212 12.2582 86.4512 11.8823 86.5055 11.6426C86.5471 11.2807 86.5471 10.9151 86.5055 10.5531L87.185 10.9399C87.185 11.4302 86.4892 12.0675 87.7286 12.3236L87.4623 12.4761H81.6023C79.6616 12.4761 77.7264 12.4761 75.7857 12.4761C73.8451 12.4761 71.8392 12.5469 69.8768 12.4216C67.9144 12.2963 66.0716 12.5578 64.1309 12.3889C62.1903 12.2201 60.1953 12.3563 58.2274 12.3889C56.2596 12.4216 54.3407 12.4271 52.4 12.4271C50.4594 12.4271 48.4698 12.4271 46.502 12.4271V12.1002H51.5194C56.1128 12.1002 60.7062 12.1002 65.2997 12.1002C66.0553 12.1002 66.3869 11.9041 66.3488 11.0815C66.289 9.38734 66.3053 7.69315 66.3488 5.99896C66.3606 5.5561 66.5281 5.13164 66.8217 4.8005C67.8546 3.81994 68.9635 2.92109 70.0453 1.99501C70.5889 1.54286 71.0347 1.8915 71.4152 2.20746C71.8809 2.65317 72.3219 3.12418 72.7361 3.61838L75.4541 0.976313C76.2206 1.71173 76.8512 2.27283 77.4328 2.88296C77.8297 3.29153 78.1395 3.22615 78.52 2.88296C79.2648 2.1312 79.9715 1.39578 80.7651 0.731173C81.1049 0.538925 81.5022 0.475142 81.8849 0.551404C81.0424 1.95143 79.4605 2.73043 79.2648 4.66431L78.6886 3.87986H78.4494V7.1484L78.1015 7.20832C77.9329 6.71804 77.5579 6.21142 77.634 5.74837C77.8568 3.92344 77.0904 2.6814 75.4976 1.788C75.3797 1.85233 75.2701 1.93101 75.1715 2.02224C74.655 2.59969 74.1549 3.19892 73.6385 3.77636C73.1221 4.3538 73.171 4.59349 73.5624 5.21451C73.6494 5.3507 73.5624 5.5904 73.5624 5.75927C72.2849 5.84643 72.6763 4.76781 72.3121 4.20672C71.8174 3.43316 71.1977 2.74132 70.6106 2.00045ZM68.4362 4.43007L67.2838 5.21451C68.3928 5.683 68.5558 5.55771 68.4308 4.43007H68.4362Z" fill="black"/>
<path d="M109.972 34.4075C108.885 35.8293 107.798 37.2674 106.711 38.6729C106.333 39.1377 105.918 39.5713 105.471 39.9694C105.064 40.3453 104.602 40.6994 104.058 40.1819C103.832 40.0068 103.678 39.7554 103.624 39.4747C103.57 39.194 103.62 38.9032 103.764 38.6566C104.268 37.1516 104.659 35.6111 104.933 34.0479C105.074 33.3888 105.091 32.7024 105.183 31.8689L103.645 32.8985C103.732 31.6238 104.982 30.3872 105.993 30.3545C106.732 30.3545 107.015 30.6432 106.912 31.3133C106.684 32.8331 106.428 34.3476 106.156 35.8565C105.975 36.6502 105.842 37.4543 105.759 38.2643C106.341 37.5507 106.972 36.8698 107.499 36.0853C108.668 34.4129 109.999 32.8168 110.532 30.7794C110.57 30.6323 110.956 30.4199 111.005 30.458C111.386 30.7467 111.886 31.0409 112.027 31.444C112.102 31.9209 112.052 32.4092 111.88 32.8604C110.983 36.8262 110.092 40.7975 108.45 44.5454C107.804 46.1982 106.834 47.7043 105.596 48.9742C104.959 49.592 104.147 49.9975 103.272 50.135C102.396 50.2724 101.499 50.1353 100.704 49.7424C99.8888 49.2751 99.1221 48.7277 98.4154 48.1081C98.2197 47.9501 98.2251 47.5633 98.1436 47.2419C98.4208 47.2486 98.6956 47.2964 98.959 47.3836C99.334 47.5797 99.6439 47.8956 100.014 48.1081C101.884 49.1976 103.444 48.9579 104.906 47.3618C106.39 45.6171 107.484 43.5737 108.113 41.3695C108.863 39.076 109.467 36.739 110.135 34.4184L109.972 34.4075Z" fill="black"/>
<path d="M120.855 38.3569C122.795 38.4822 124.747 38.6565 126.699 38.7055C127.101 38.7055 127.519 38.2643 127.976 38.0028C128.256 38.2233 128.468 38.5193 128.586 38.856C128.705 39.1927 128.725 39.5562 128.645 39.904C128.479 40.2512 128.19 40.5241 127.834 40.6691C127.478 40.8142 127.081 40.8211 126.72 40.6884C124.285 40.0717 121.766 39.8564 119.262 40.0511C118.946 40.1174 118.646 40.2471 118.381 40.4324C118.05 40.5958 117.729 40.7865 117.408 40.9772C117.166 40.579 116.983 40.1478 116.865 39.697C116.827 39.4246 117.109 39.0433 117.349 38.8199C117.577 38.6496 117.858 38.5631 118.142 38.5748C119.159 38.5748 119.436 37.9919 119.773 37.1148C120.86 34.037 122.029 30.9755 123.323 27.9738C123.931 26.7825 124.677 25.6672 125.546 24.6508C125.787 24.3177 126.142 24.0851 126.543 23.9977C126.944 23.9102 127.363 23.9741 127.721 24.1769C128.204 24.3785 128.808 24.3839 129.259 24.6018C129.59 24.7543 130.085 25.1466 130.058 25.3863C129.857 26.9552 129.58 28.5186 129.232 30.0603C129.112 30.605 128.019 30.7358 127.634 30.3163C127.53 30.2128 127.579 29.9241 127.634 29.7334C127.894 28.5731 128.177 27.4236 128.416 26.2524C128.435 26.0931 128.414 25.9317 128.355 25.7825C128.296 25.6333 128.201 25.5009 128.079 25.3972C127.922 25.3546 127.757 25.3517 127.599 25.3888C127.44 25.4259 127.293 25.5017 127.171 25.6096C126.34 26.5684 125.388 27.4999 124.839 28.6167C123.752 30.8611 122.872 33.2144 121.937 35.5405C121.48 36.4448 121.186 37.3927 120.855 38.3569Z" fill="black"/>
<path d="M37.6897 35.7696C37.6165 36.0336 37.5201 36.2907 37.4016 36.5377C36.7493 37.6708 36.0643 38.793 35.4229 39.9315C35.1783 40.3619 34.9337 40.6179 34.4118 40.3673C34.296 40.3362 34.1886 40.2798 34.0972 40.2021C34.0058 40.1243 33.9328 40.0273 33.8834 39.9178C33.834 39.8084 33.8094 39.6893 33.8115 39.5692C33.8136 39.4491 33.8422 39.331 33.8954 39.2233C34.5858 37.0007 35.2272 34.7618 35.8632 32.5228C35.935 32.1746 35.8891 31.8124 35.7327 31.4932C35.3638 31.7617 35.0133 32.0547 34.6836 32.3703C32.8794 34.3452 31.4482 36.6322 30.4598 39.1198C30.3185 39.4739 30.2859 40.0786 29.6553 39.8661C29.3745 39.8048 29.1295 39.6345 28.9736 39.3926C28.8178 39.1507 28.7638 38.8567 28.8236 38.5751C29.7966 33.4326 31.0469 28.3881 33.4061 23.6814C33.8755 22.8051 34.4212 21.972 35.0369 21.1919C35.126 21.0642 35.2413 20.9572 35.3751 20.878C35.509 20.7988 35.6582 20.7492 35.8127 20.7327C35.9673 20.7162 36.1236 20.7331 36.2711 20.7822C36.4186 20.8314 36.5538 20.9116 36.6677 21.0176C37.1679 21.4044 37.6299 21.8347 38.1137 22.2487L38.0104 22.483C37.8093 22.483 37.5756 22.5865 37.4125 22.483C36.4992 22.0635 35.8904 22.483 35.4936 23.2293C34.5938 24.7459 33.8018 26.3241 33.1235 27.9523C32.2102 30.4255 31.5307 32.9859 30.7534 35.5081L31.0034 35.6171C31.3241 35.1268 31.6123 34.6038 31.9765 34.1517C32.8462 33.0621 33.7486 31.9726 34.6619 30.943C34.7545 30.7949 34.8775 30.6681 35.0227 30.5711C35.1678 30.4741 35.3318 30.409 35.5039 30.3802C35.676 30.3513 35.8523 30.3594 36.021 30.4038C36.1898 30.4483 36.3472 30.5281 36.4829 30.638C36.81 30.7798 37.076 31.0336 37.2334 31.354C37.3908 31.6744 37.4292 32.0404 37.3418 32.3866C37.1026 33.754 36.7982 35.1104 36.5536 36.4832L37.494 35.6225L37.6897 35.7696Z" fill="black"/>
<path d="M136.239 31.9559C136.17 31.9198 136.097 31.8924 136.022 31.8742C135.538 31.8742 134.934 31.994 134.885 31.3294C134.885 31.1551 135.462 30.8173 135.815 30.7465C136.106 30.6979 136.377 30.5629 136.591 30.359C136.805 30.1551 136.953 29.8916 137.016 29.6025C137.647 27.8321 138.348 26.0888 139.028 24.3402C139.164 23.9921 139.32 23.652 139.495 23.3215C140.876 20.6958 141.566 20.8537 143.909 22.5207C144.04 22.6133 144.078 22.8421 144.165 23.0055C143.964 23.0546 143.752 23.1853 143.578 23.1417C141.86 22.7386 141.675 22.7713 140.86 24.2803C140.289 25.3698 139.805 26.4865 139.327 27.6142C138.941 28.5294 138.625 29.4718 138.239 30.5123L140.789 30.959V31.3566L137.783 31.9014C136.266 36.412 134.826 41.0315 134.559 45.9234C133.276 45.7491 132.722 45.0845 133.01 43.9296C133.831 40.6611 134.711 37.3925 135.549 34.124C135.679 33.6119 135.679 33.0726 135.799 32.5605C135.91 32.3355 136.059 32.1311 136.239 31.9559Z" fill="black"/>
<path d="M95.4743 31.493L94.1153 32.5825L93.8272 32.2992C94.3302 31.6156 94.8962 30.9809 95.5178 30.4035C95.6863 30.2673 96.4093 30.6214 96.7246 30.9482C96.8593 31.0937 96.9622 31.2658 97.0268 31.4534C97.0913 31.641 97.1162 31.84 97.0997 32.0377C96.942 32.9693 96.6431 33.879 96.4093 34.7615C97.3823 33.6066 98.3445 32.4136 99.3665 31.2751C99.8612 30.7303 100.405 30.2292 101.296 30.7303C101.666 30.8833 101.963 31.1724 102.127 31.5381C102.291 31.9038 102.309 32.3184 102.177 32.6969C101.932 33.7864 101.775 34.9249 101.574 36.0471L102.258 35.5351L102.454 35.6495C102.405 35.8885 102.332 36.1221 102.237 36.3468C101.612 37.5289 100.948 38.6892 100.34 39.8822C100.304 39.9982 100.242 40.1045 100.159 40.1927C100.076 40.2809 99.9734 40.3487 99.8599 40.3908C99.7463 40.433 99.6246 40.4483 99.5041 40.4357C99.3837 40.4231 99.2678 40.3828 99.1654 40.318C98.5837 40.0729 98.687 39.7351 98.8392 39.2285C99.4698 37.1693 100.046 35.0884 100.606 33.0074C100.655 32.6021 100.655 32.1924 100.606 31.7872L100.329 31.6401C99.6213 32.3459 98.9672 33.1034 98.3717 33.9063C97.2301 35.6713 96.1973 37.5234 95.1101 39.3157C94.9144 39.6316 94.5284 40.0239 94.2132 40.0348C93.4032 40.0674 93.1586 39.5935 93.4739 38.8145C94.4777 36.4793 95.151 34.0149 95.4743 31.493Z" fill="black"/>
<path d="M71.4194 31.5205L71.8923 30.9322C73.1589 31.3898 73.2622 31.6131 72.8708 32.8116C72.5175 33.9011 72.1804 34.9906 71.8488 36.0801C71.8069 36.2757 71.7796 36.4742 71.7673 36.6739L72.6914 36.0692L72.8763 36.2327C72.7675 36.4942 72.6534 36.7774 72.5392 37.0226C72.1804 37.8506 71.8488 38.695 71.452 39.5067C71.3107 39.8008 70.9465 40.2584 70.778 40.2203C70.2724 40.1113 69.6908 39.8716 69.8158 39.1308C70.0006 38.0413 70.2398 37.0171 70.4518 35.9603C70.4844 35.7751 70.5062 35.5899 70.5496 35.2902C69.5277 36.4833 68.609 37.5891 67.6522 38.6677C67.2516 39.1128 66.8172 39.5262 66.353 39.9043C65.9671 40.2312 65.5594 40.5526 64.9832 40.1876C64.407 39.8226 63.9612 39.3596 64.1623 38.6568C64.4252 37.4693 64.8323 36.3186 65.3746 35.2303C66.2724 33.7509 67.2925 32.3496 68.4242 31.0411C69.2885 30.0061 69.756 30.0606 70.7834 30.9431C70.99 31.1283 71.1965 31.319 71.4194 31.5205ZM71.3813 32.0653C71.1668 31.9353 70.9284 31.8498 70.6803 31.814C70.4322 31.7782 70.1794 31.7927 69.937 31.8568C69.6946 31.9208 69.4675 32.033 69.2693 32.1868C69.071 32.3405 68.9056 32.5326 68.7829 32.7517C67.8588 34.0754 66.951 35.4155 66.141 36.8101C65.8219 37.5096 65.5742 38.2397 65.4017 38.9891L65.7605 39.1798C68.085 37.1932 69.9951 34.7662 71.3813 32.0381V32.0653Z" fill="black"/>
<path d="M76.1329 36.9409L77.144 36.0747L77.356 36.2163C77.2472 36.4724 77.1331 36.723 77.0189 36.9736C76.671 37.7526 76.3122 38.5207 75.9698 39.2997C75.8013 39.681 75.9698 40.3184 75.2522 40.2475C74.9281 40.1851 74.6406 39.9994 74.4501 39.7292C74.2596 39.4591 74.1808 39.1255 74.2303 38.7985C74.4042 37.758 74.5945 36.723 74.8228 35.6988C75.8013 31.3408 76.9972 27.0318 79.1172 23.055C79.4778 22.4078 79.8943 21.7935 80.3621 21.2192C80.4481 21.0747 80.5665 20.9521 80.7077 20.8611C80.849 20.77 81.0094 20.713 81.1764 20.6946C81.3433 20.6761 81.5123 20.6966 81.67 20.7546C81.8277 20.8125 81.9698 20.9063 82.0853 21.0286C82.58 21.4262 83.0475 21.8457 83.5313 22.2597L83.428 22.4885C83.2268 22.4885 82.9931 22.592 82.8355 22.4885C81.9276 22.0745 81.3188 22.4885 80.8948 23.213C80.2135 24.3299 79.5929 25.4828 79.0357 26.6668C77.6077 29.9437 76.6311 33.4001 76.1329 36.9409Z" fill="black"/>
<path d="M92.8921 33.1767C92.6422 35.4596 91.7799 37.632 90.397 39.4632C89.4783 40.5963 88.4237 40.6344 86.5917 40.0079C85.4665 39.6157 85.0479 38.706 85.2654 37.2842C85.576 35.0201 86.4365 32.867 87.7714 31.014C88.2606 30.344 88.7879 30.1969 89.4946 30.7362C89.625 30.828 89.773 30.8919 89.9292 30.9238C90.0854 30.9556 90.2465 30.9548 90.4024 30.9214C92.0006 30.4039 92.9138 31.1012 92.8921 33.1767ZM91.495 31.4934C90.4948 31.8802 89.7283 32.1471 88.9836 32.474C88.7009 32.5938 88.3313 32.7954 88.2389 33.0187C87.6741 34.4996 87.186 36.0088 86.7766 37.5402C86.6081 38.2157 86.6081 39.1363 87.4833 39.4523C88.266 39.7301 88.8314 39.1363 89.2717 38.5752C90.3066 37.2062 90.9831 35.5994 91.2395 33.9012C91.3863 33.2148 91.3863 32.4631 91.495 31.4934Z" fill="black"/>
<path d="M146.165 36.2978C146.118 36.5229 146.034 36.7385 145.915 36.9352C144.996 37.9375 144.072 38.9453 143.099 39.9041C142.981 40.0411 142.837 40.1529 142.675 40.2328C142.513 40.3128 142.337 40.3592 142.157 40.3694C141.977 40.3795 141.797 40.3532 141.627 40.292C141.457 40.2308 141.301 40.1359 141.169 40.0131C140.473 39.4683 139.424 39.1197 139.826 37.834C140.065 37.0454 140.246 36.2408 140.37 35.4262C140.409 34.893 140.409 34.3578 140.37 33.8246L138.739 33.4978L138.772 33.1709L141.082 33.3452C141.626 32.5227 142.093 31.711 142.648 30.8993C143.001 30.3981 143.469 30.0113 144.175 30.3273C144.281 30.3683 144.395 30.3796 144.507 30.36C145.92 30.1148 145.926 30.1148 145.931 31.5094C145.931 32.3265 145.931 33.1437 145.931 34.0316L147.377 34.2168C147.35 34.3149 147.339 34.4075 147.317 34.4075C146.204 34.5052 145.114 34.7811 144.088 35.2246C143.474 35.4643 142.697 35.2682 141.914 35.2682C141.411 36.5484 141.225 37.9314 141.37 39.2994C143.392 38.8146 144.447 37.1204 145.985 36.1235L146.165 36.2978ZM142.36 33.7375C142.865 33.8409 143.377 33.9011 143.893 33.9172C144.099 33.9172 144.436 33.6394 144.436 33.4651C144.501 32.7787 144.436 32.076 144.436 31.3787L144.154 31.2534L142.36 33.7375Z" fill="black"/>
<path d="M38.8583 34.3587C39.1845 33.9555 39.4834 33.6396 39.7226 33.2691C40.2662 32.4357 40.75 31.5641 41.3154 30.7524C41.4568 30.5387 41.6638 30.377 41.905 30.2915C42.1462 30.206 42.4086 30.2014 42.6526 30.2784C43.2383 30.3121 43.8258 30.2625 44.3976 30.1313C44.4608 31.2199 44.4608 32.3113 44.3976 33.3999C44.3514 33.7069 44.2435 34.0012 44.0804 34.2652C43.9173 34.5291 43.7024 34.7571 43.4488 34.9354C43.1952 35.1137 42.9081 35.2385 42.6049 35.3023C42.3017 35.3661 41.9888 35.3675 41.685 35.3065C41.2936 35.2629 40.9022 35.203 40.2662 35.1104C40.1032 36.3307 39.9238 37.5182 39.8042 38.7058C39.7553 39.1797 40.076 39.3486 40.4619 39.0871C41.3915 38.4443 42.2993 37.7688 43.2071 37.0879C43.6311 36.7665 44.028 36.4069 44.4411 36.0637L44.6857 36.2544C44.6444 36.4786 44.5654 36.6941 44.452 36.8918C43.555 37.8832 42.6635 38.8856 41.734 39.8117C41.1904 40.3564 40.5163 40.5961 39.8042 40.0622C39.0921 39.5284 38.0103 39.1416 38.3582 37.8451C38.5648 37.0824 38.7387 36.3034 38.8746 35.519C38.9007 35.1324 38.8952 34.7443 38.8583 34.3587ZM40.6522 34.3587C41.6144 34.4839 42.3265 34.6746 42.8266 33.9555C43.0428 33.5154 43.1434 33.0271 43.1186 32.5371C43.0939 32.0471 42.9447 31.5716 42.6853 31.1555L40.6522 34.3587Z" fill="black"/>
<path d="M84.0802 36.7883C84.053 39.512 81.5959 41.0483 79.4922 39.9642C79.0589 39.7381 78.7085 39.3798 78.4916 38.9412C78.2747 38.5025 78.2025 38.0061 78.2854 37.5237C78.6151 35.3793 79.3831 33.3263 80.5413 31.4932C81.2208 30.4037 81.4872 30.4037 82.7157 30.7578C83.0465 30.8176 83.3852 30.8176 83.716 30.7578C84.5042 30.7088 84.8847 30.9975 84.8358 31.7711C84.7684 32.5612 84.6467 33.3457 84.4716 34.119C84.3846 34.5221 84.14 34.898 83.6127 34.6637C83.1941 34.4567 82.7864 34.2443 83.0691 33.6232C83.2317 33.2606 83.3258 32.8708 83.3463 32.4738C83.3463 32.2287 83.2485 31.7929 83.1071 31.7547C82.786 31.6896 82.4525 31.7297 82.1558 31.8691C81.9426 32.0049 81.7669 32.1922 81.6448 32.4139C80.5652 34.0314 79.9022 35.8918 79.715 37.8287C79.6954 38.1131 79.7248 38.3988 79.802 38.6731C80.0303 39.6101 80.6772 39.8988 81.4328 39.305C82.0877 38.7376 82.7068 38.1299 83.2865 37.4856C83.4931 37.3003 83.716 37.1151 84.0802 36.7883Z" fill="black"/>
<path d="M6.42714 13.4344C6.14227 13.2483 5.82796 13.112 5.49758 13.0313C4.78547 13.004 4.07335 13.0749 3.3558 13.0858C3.05948 13.08 2.76369 13.0582 2.46973 13.0204V12.6935C4.27448 12.5029 6.08467 12.3122 7.90573 12.1488C8.65448 12.0562 9.40743 12.0017 10.1617 11.9854C10.6183 11.9854 11.0804 12.2087 11.537 12.2087C19.7852 12.2087 28.0316 12.1905 36.2763 12.1542H37.5374V12.3939C36.7627 12.5571 35.9783 12.6699 35.1891 12.7317C27.8903 12.8733 20.5898 12.9895 13.2874 13.0803C12.5118 13.0051 11.7419 12.8796 10.9825 12.7044C9.52566 12.5083 8.05794 12.3994 6.6772 13.064C6.53042 13.1239 6.45976 13.3854 6.42714 13.4344Z" fill="black"/>
<path d="M129.982 32.4684C130.456 31.8074 131.003 31.2025 131.613 30.6652C132.195 30.2403 133.336 31.21 133.189 31.9618C132.939 33.2419 132.586 34.5003 132.265 35.7751C132.195 36.0747 132.091 36.3634 131.977 36.7393L132.7 36.0856L132.89 36.2272C132.771 36.4887 132.662 36.772 132.526 37.0062C132.015 37.9268 131.439 38.8202 130.988 39.73C130.672 40.351 130.281 40.3564 129.737 40.1059C129.194 39.8553 129.362 39.5066 129.525 39.0708C130.069 37.6109 130.613 36.14 131.053 34.6529C131.33 33.7377 131.455 32.7734 131.7 31.5532L130.216 32.7081L129.982 32.4684Z" fill="black"/>
<path d="M74.4648 14.4641L45.0723 14.0283V13.8431H45.1592C48.0675 13.8431 50.9758 13.8431 53.8569 13.903C59.7006 13.9738 65.5497 14.0719 71.3934 14.1318C71.5309 14.1134 71.6629 14.0654 71.7802 13.9911C71.8974 13.9168 71.9973 13.818 72.0729 13.7014C72.3284 13.2656 72.535 13.2166 72.9427 13.5271C73.4338 13.8652 73.9418 14.178 74.4648 14.4641Z" fill="black"/>
<path d="M85.8203 5.66629C85.5757 4.86005 85.342 4.03202 85.0702 3.24757C84.9234 2.80632 84.9288 2.32693 84.233 2.15806C83.9177 2.0709 83.8416 1.12847 83.6514 0.578266L83.9503 0.463867C84.0431 0.674389 84.1503 0.878248 84.2711 1.07399C84.6509 1.65788 85.0705 2.21485 85.5268 2.74095C85.6301 2.84445 86.0704 2.68102 86.3531 2.56662C87.0326 2.25611 87.674 1.86389 88.3698 1.59696C88.5492 1.53159 88.9134 1.7277 89.0928 1.91292C90.4953 3.46002 91.8706 5.02892 90.9628 7.46398C91.0786 6.66666 91.0115 5.85338 90.7666 5.08595C90.5217 4.31851 90.1054 3.61713 89.5494 3.03511C89.4285 2.86437 89.2633 2.72998 89.0717 2.64646C88.8801 2.56293 88.6693 2.53344 88.4622 2.56118C86.2878 2.69737 86.1139 3.46547 86.065 5.19779C86.0491 5.3809 86.0218 5.56284 85.9834 5.74255L85.8203 5.66629Z" fill="black"/>
<path d="M11.9502 14.8239C17.1307 14.5297 22.3167 14.0612 27.5026 14.606V14.8239H11.9502Z" fill="black"/>
<path d="M6.12819 50.1725C8.55265 50.0798 10.9771 49.9546 13.4016 49.911C15.826 49.8674 18.1798 49.911 20.5717 49.911V50.1888C18.1363 50.2596 15.6793 50.3577 13.2657 50.3958C10.8521 50.4339 8.49285 50.3958 6.10645 50.3958L6.12819 50.1725Z" fill="black"/>
<path d="M150.237 16.2401C149.409 16.1469 148.575 16.1105 147.742 16.1311C146.975 16.2543 146.219 16.4364 145.481 16.6759L145.638 16.3054L143.236 15.8479L143.187 16.1366L144.426 16.3981H140.594C140.876 15.6735 141.262 15.4066 141.942 15.4883C143.339 15.6572 144.741 15.7988 146.149 15.8969C147.557 15.9949 148.867 16.0222 150.226 16.0821L150.237 16.2401Z" fill="black"/>
<path d="M141.756 47.3347L139.658 48.0974L139.946 48.6094C138.859 48.7129 137.826 48.9581 136.896 48.1409C136.66 48.0024 136.392 47.9273 136.119 47.923C135.792 47.8967 135.47 47.8252 135.162 47.7106C137.304 47.1658 139.571 48.0156 141.642 46.8662L141.756 47.3347Z" fill="black"/>
<path d="M142.387 14.7362C141.811 14.9693 141.211 15.1374 140.598 15.2374C138.609 15.3082 136.614 15.2973 134.619 15.3082C134.526 15.3082 134.434 15.2265 134.336 15.1829L134.298 14.916C134.594 14.8304 134.898 14.7738 135.206 14.7471C137.505 14.7308 139.81 14.7362 142.387 14.7362Z" fill="black"/>
<path d="M81.9218 2.04346L81.563 11.4187H81.2749C81.3401 8.27546 80.9541 5.12133 81.9218 2.04346Z" fill="black"/>
<path d="M131.803 28.3447C132.412 27.7672 132.939 27.2225 133.515 26.7104C134.091 26.1983 134.434 26.7485 134.744 27.0536C134.869 27.1789 134.798 27.7018 134.64 27.8925C133.814 28.9221 132.863 29.0746 131.803 28.3447Z" fill="black"/>
<path d="M35.3525 14.916L47.1922 14.6055V14.7417C45.2461 14.8561 43.3 15.014 41.3539 15.0685C39.4078 15.123 37.3747 15.0685 35.3743 15.0685L35.3525 14.916Z" fill="black"/>
<path d="M77.1226 15.1016H61.418V14.96H77.1552L77.1226 15.1016Z" fill="black"/>
<path d="M152.406 14.5457L148.22 15.2702L148.149 15.0523L148.693 14.7963L148.204 14.4204H152.4L152.406 14.5457Z" fill="black"/>
<path d="M74.9043 11.7405V5.56299H75.2033C74.9587 7.62761 75.6816 9.68679 75.2033 11.7569L74.9043 11.7405Z" fill="black"/>
<path d="M151.759 33.1709C150.009 33.8518 147.829 33.8464 146.959 33.1709H151.759Z" fill="black"/>
<path d="M133.728 14.6058L133.336 15.0253H128.987C130.45 14.1918 132.026 14.7911 133.728 14.6058Z" fill="black"/>
<path d="M89.2116 6.13466C89.3312 7.40394 89.4236 8.66777 89.5922 9.94795C89.6248 10.204 89.2225 10.8631 90.0379 10.7106C90.0714 10.8906 90.0714 11.0753 90.0379 11.2554C89.9944 11.3752 89.7389 11.5441 89.6737 11.5114C89.5974 11.4682 89.531 11.4096 89.4786 11.3393C89.4261 11.2689 89.3889 11.1884 89.3693 11.1028C89.2551 9.43588 89.1627 7.77437 89.0703 6.10742L89.2116 6.13466Z" fill="black"/>
<path d="M147.795 19.9931L152.916 19.6499V19.9386L147.79 20.3417L147.795 19.9931Z" fill="black"/>
<path d="M131.891 47.7761L134.185 47.4492C133.375 48.6041 132.663 48.6368 131.891 47.7761Z" fill="black"/>
<path d="M121.48 6.4834L124.149 7.52388C123.768 7.98148 123.768 7.98148 121.431 6.69585L121.48 6.4834Z" fill="black"/>
<path d="M76.7086 4.1575L76.5401 6.47816L76.165 6.43458L76.2901 4.10303L76.7086 4.1575Z" fill="black"/>
<path d="M152.96 42.3121L151.226 42.5627L151.177 42.2522C151.65 41.6366 152.291 41.8872 152.9 41.9526L152.96 42.3121Z" fill="black"/>
<path d="M88.125 5.24108L89.0382 3.19824C89.2557 4.18425 89.1687 4.87609 88.3751 5.34458L88.125 5.24108Z" fill="black"/>
<path d="M130.445 15.6953C129.683 16.1311 128.906 16.4198 127.977 15.6953H130.445Z" fill="black"/>
<path d="M71.3116 60.7193L71.0996 58.1045H71.3497L71.6921 60.6866L71.3116 60.7193Z" fill="black"/>
<path d="M31.5253 14.8401H28.5518V14.7148H31.5307L31.5253 14.8401Z" fill="black"/>
<path d="M91.1965 8.82558V11.7237H91.0117V8.79834L91.1965 8.82558Z" fill="black"/>
<path d="M86.7928 7.05536C86.646 6.00398 86.4557 4.95261 87.1787 4.01562L86.7928 7.05536Z" fill="black"/>
<path d="M75.3828 5.96037L75.7416 3.07861H75.9699L75.6601 5.96037H75.3828Z" fill="black"/>
<path d="M131.264 15.6953L133.982 15.9241L133.955 16.1965L131.237 15.8587L131.264 15.6953Z" fill="black"/>
<path d="M80.4715 14.2898H79.5908L79.9279 13.2603C80.6182 13.2766 80.6237 13.282 80.4715 14.2898Z" fill="black"/>
<path d="M122.682 15.5155C122.926 15.5155 123.171 15.472 123.41 15.472C124.377 15.4493 125.345 15.4894 126.307 15.5918H122.687L122.682 15.5155Z" fill="black"/>
<path d="M81.2646 58.3335V60.4526H81.1504V58.3335H81.2646Z" fill="black"/>
<path d="M88.7064 14.2299L87.5703 14.426C87.641 14.012 87.6899 13.6906 87.7769 13.1948L88.7064 14.2299Z" fill="black"/>
<path d="M88.5219 59.1016L88.3371 60.6759C87.701 60.0658 87.9783 59.6027 88.5219 59.1016Z" fill="black"/>
</svg>
