<svg width="23" height="21" viewBox="0 0 23 21" fill="none" xmlns="http://www.w3.org/2000/svg">
<path d="M11.1208 11.4932C14.3912 11.4932 17.0141 8.96054 17.0141 5.87191C17.0141 2.78329 14.3912 0.219727 11.1208 0.219727C7.85033 0.219727 5.22749 2.7524 5.22749 5.84103C5.22749 8.92966 7.85033 11.4932 11.1208 11.4932V11.4932ZM11.1208 1.70227C13.517 1.70227 15.4598 3.55544 15.4598 5.84103C15.4598 8.12661 13.517 9.97979 11.1208 9.97979C8.72461 9.97979 6.78177 8.1575 6.78177 5.87191C6.78177 3.58633 8.72461 1.70227 11.1208 1.70227V1.70227ZM0.888467 20.2958H21.4179C21.8388 20.2958 22.195 19.9561 22.195 19.5545C22.195 15.6629 18.8598 12.4816 14.7798 12.4816H7.52653C3.44655 12.4816 0.111328 15.6629 0.111328 19.5545C0.111328 19.9561 0.467517 20.2958 0.888467 20.2958V20.2958ZM7.52653 13.9641H14.7798C17.7589 13.9641 20.1874 16.0644 20.576 18.8133H1.73037C2.11894 16.0644 4.54749 13.9641 7.52653 13.9641Z" fill="#62CCB6"/>
</svg>
