<svg width="21" height="17" viewBox="0 0 21 17" fill="none" xmlns="http://www.w3.org/2000/svg">
<path d="M20.4119 2.54558C19.6731 2.86641 18.8917 3.0785 18.0922 3.17525C18.9357 2.67085 19.5678 1.87733 19.8713 0.941891C19.0786 1.41421 18.2109 1.74698 17.3058 1.92575C16.7008 1.26909 15.8952 0.83199 15.0153 0.682989C14.1354 0.533989 13.231 0.68152 12.4439 1.10245C11.6568 1.52337 11.0316 2.19388 10.6662 3.00882C10.3009 3.82376 10.2161 4.73702 10.4252 5.60539C8.82239 5.52424 7.25459 5.10652 5.82363 4.37936C4.39266 3.6522 3.13053 2.63186 2.11923 1.38463C1.76452 2.00462 1.57814 2.70676 1.57861 3.42122C1.57735 4.08471 1.74002 4.73823 2.05215 5.32357C2.36427 5.90892 2.81616 6.40793 3.36758 6.77618C2.72667 6.75873 2.09946 6.58659 1.53929 6.27441V6.3236C1.54409 7.25324 1.86956 8.15269 2.46062 8.8698C3.05169 9.58691 3.87208 10.0777 4.78302 10.259C4.43236 10.3659 4.0683 10.4222 3.70178 10.4263C3.44807 10.4233 3.19499 10.4003 2.94491 10.3574C3.20432 11.1571 3.70632 11.856 4.38107 12.3568C5.05582 12.8576 5.86975 13.1354 6.70961 13.1516C5.29141 14.2685 3.54046 14.8781 1.73588 14.8832C1.40731 14.8843 1.07901 14.8645 0.75293 14.8242C2.5954 16.0149 4.74254 16.647 6.93568 16.6443C8.44912 16.66 9.95053 16.3738 11.3522 15.8022C12.7539 15.2306 14.0277 14.3852 15.0993 13.3154C16.1709 12.2456 17.0187 10.9727 17.5934 9.57123C18.168 8.16974 18.4579 6.66769 18.446 5.15281C18.446 4.98555 18.446 4.80846 18.446 4.63136C19.2173 4.05562 19.8826 3.34981 20.4119 2.54558V2.54558Z" fill="#62CCB6"/>
</svg>
