<svg width="74" height="498" viewBox="0 0 74 498" fill="none" xmlns="http://www.w3.org/2000/svg">
<path d="M1.36523 400.604L72.752 418.769V436.005L35.252 445.673C34.5358 445.868 33.4453 446.129 31.9805 446.454C30.5156 446.78 28.9206 447.121 27.1953 447.479C25.4375 447.838 23.7936 448.163 22.2637 448.456C20.7012 448.716 19.4642 448.896 18.5527 448.993C19.4642 449.091 20.6849 449.286 22.2148 449.579C23.7448 449.84 25.3724 450.149 27.0977 450.507C28.8229 450.832 30.4342 451.158 31.9316 451.483C33.429 451.809 34.5684 452.069 35.3496 452.265L72.752 461.884V479.071L1.36523 497.284V482.392L40.3301 473.261C41.502 473 42.9017 472.707 44.5293 472.382C46.1569 472.024 47.8659 471.682 49.6562 471.356C51.4141 470.998 53.123 470.689 54.7832 470.429C56.4108 470.136 57.8268 469.924 59.0312 469.794C57.7943 469.631 56.362 469.42 54.7344 469.159C53.0742 468.899 51.3978 468.622 49.7051 468.329C47.9798 468.004 46.3848 467.678 44.9199 467.353C43.4551 467.027 42.2669 466.734 41.3555 466.474L1.36523 456.073V441.767L41.3555 431.366C42.2344 431.138 43.4225 430.878 44.9199 430.585C46.3848 430.259 47.9798 429.934 49.7051 429.608C51.4303 429.283 53.123 428.99 54.7832 428.729C56.4108 428.437 57.8268 428.225 59.0312 428.095C57.4036 427.867 55.4342 427.558 53.123 427.167C50.7793 426.744 48.4518 426.304 46.1406 425.849C43.8294 425.36 41.8926 424.937 40.3301 424.579L1.36523 415.497V400.604ZM72.752 350.507V391.62H1.36523V350.507H13.7676V376.483H29.4414V352.313H41.8438V376.483H60.252V350.507H72.752ZM72.752 335.565H1.36523V320.429H60.252V291.474H72.752V335.565ZM12.9375 248.7C12.9375 251.597 13.5072 254.169 14.6465 256.415C15.7533 258.629 17.3646 260.5 19.4805 262.03C21.5964 263.528 24.1517 264.667 27.1465 265.448C30.1413 266.229 33.5104 266.62 37.2539 266.62C42.2995 266.62 46.6126 266.002 50.1934 264.765C53.7415 263.495 56.4596 261.542 58.3477 258.905C60.2031 256.269 61.1309 252.867 61.1309 248.7C61.1309 245.803 60.8053 242.906 60.1543 240.009C59.5033 237.079 58.5755 233.905 57.3711 230.487H70.0664C71.3685 233.645 72.2962 236.754 72.8496 239.813C73.4355 242.873 73.7285 246.308 73.7285 250.116C73.7285 257.473 72.2148 263.528 69.1875 268.28C66.1276 273 61.8633 276.5 56.3945 278.778C50.8932 281.057 44.4805 282.196 37.1562 282.196C31.7526 282.196 26.8047 281.464 22.3125 279.999C17.8203 278.534 13.9303 276.386 10.6426 273.554C7.35482 270.722 4.81576 267.222 3.02539 263.056C1.23503 258.889 0.339844 254.104 0.339844 248.7C0.339844 245.152 0.795573 241.604 1.70703 238.056C2.58594 234.475 3.80664 231.057 5.36914 227.802L17.6738 232.685C16.4043 235.354 15.2975 238.039 14.3535 240.741C13.4095 243.443 12.9375 246.096 12.9375 248.7ZM36.9609 150.458C42.4622 150.458 47.4753 151.142 52 152.509C56.4922 153.876 60.3659 155.959 63.6211 158.759C66.8763 161.526 69.3828 165.041 71.1406 169.306C72.8659 173.57 73.7285 178.616 73.7285 184.442C73.7285 190.269 72.8659 195.315 71.1406 199.579C69.3828 203.843 66.8763 207.375 63.6211 210.175C60.3659 212.942 56.4759 215.009 51.9512 216.376C47.4264 217.743 42.3971 218.427 36.8633 218.427C29.474 218.427 23.0449 217.222 17.5762 214.813C12.0749 212.372 7.81055 208.629 4.7832 203.583C1.75586 198.537 0.242187 192.125 0.242187 184.345C0.242187 176.597 1.75586 170.233 4.7832 165.253C7.81055 160.24 12.0749 156.529 17.5762 154.12C23.0775 151.679 29.5391 150.458 36.9609 150.458ZM36.9609 202.558C41.9414 202.558 46.2383 201.939 49.8516 200.702C53.4323 199.433 56.1992 197.463 58.1523 194.794C60.0729 192.125 61.0332 188.674 61.0332 184.442C61.0332 180.146 60.0729 176.662 58.1523 173.993C56.1992 171.324 53.4323 169.387 49.8516 168.183C46.2383 166.946 41.9414 166.327 36.9609 166.327C29.474 166.327 23.582 167.727 19.2852 170.526C14.9883 173.326 12.8398 177.932 12.8398 184.345C12.8398 188.609 13.8164 192.092 15.7695 194.794C17.6901 197.463 20.457 199.433 24.0703 200.702C27.651 201.939 31.9479 202.558 36.9609 202.558ZM72.752 105.438L16.7461 122.626V123.065C18.0807 123 20.099 122.903 22.8008 122.772C25.4701 122.61 28.3184 122.463 31.3457 122.333C34.373 122.203 37.1074 122.138 39.5488 122.138H72.752V135.663H1.36523V115.058L55.9551 98.1631V97.8701L1.36523 79.9502V59.3447H72.752V73.4561H38.9629C36.7168 73.4561 34.1289 73.4235 31.1992 73.3584C28.2695 73.2607 25.4863 73.1468 22.8496 73.0166C20.1803 72.8864 18.1784 72.7887 16.8437 72.7236V73.1631L72.752 91.5713V105.438ZM72.752 0.213867V41.3271H1.36523V0.213867H13.7676V26.1904H29.4414V2.02051H41.8437V26.1904H60.252V0.213867H72.752Z" fill="white" fill-opacity="0.3"/>
</svg>
